<?xml version="1.0" encoding="utf-8"?>
<!-- Generator: Adobe Illustrator 16.0.0, SVG Export Plug-In . SVG Version: 6.00 Build 0)  -->
<!DOCTYPE svg PUBLIC "-//W3C//DTD SVG 1.1//EN" "http://www.w3.org/Graphics/SVG/1.1/DTD/svg11.dtd">
<svg version="1.1" id="Layer_1" xmlns="http://www.w3.org/2000/svg" xmlns:xlink="http://www.w3.org/1999/xlink" x="0px" y="0px"
	 width="552.443px" height="195.296px" viewBox="0 0 552.443 195.296" enable-background="new 0 0 552.443 195.296"
	 xml:space="preserve">
<g>
	<path fill="#EABF0C" d="M140.762,129.865c-1.098-1.462-2.545-0.943-4.084-0.402c0.021-1.004,0.037-2.135-0.703-2.937
		c-0.703-0.774-1.857-0.999-2.764-1.498c-1.768-0.987-3.412-2.367-4.285-4.143c-0.043-0.088-0.102-0.164-0.152-0.252
		c-0.094,0.308-0.178,0.59-0.242,0.81c1.938,3.067,3.936,6.026,5.637,9.147c0.018,0.034,0.002,0.084,0.018,0.12
		c-0.102-0.135-0.201-0.272-0.303-0.407c0.084,0.682-0.545,1.723-0.805,2.57c-0.447-0.124-0.887-0.246-1.34-0.36
		c-0.131-1.074-0.271-2.145-0.434-3.404c-4.01-0.109-5.857-2.461-5.766-5.878c0.01-0.085,0.031-0.165,0.039-0.251
		c-1.086-0.662-2.213-1.301-3.416-1.845c-0.662-0.292-1.359-0.535-2.047-0.794c0.424,1.313,0.439,2.668,0.307,4.028
		c0.068,1.189-0.023,1.701-0.186,1.757c-0.174,0.063-0.414-0.327-0.715-0.934c-2.76-1.822-1.887-3.735-1.727-4.835
		c-3.387,0.814-3.764-0.872-2.725-2.678c0.205-0.36,0.461-0.717,0.773-1.064c0.445-0.505,0.969-0.987,1.572-1.377
		c0.201-0.132,0.424-0.264,0.646-0.373c0.201,0.039,0.363-0.258,0.596,0.083c0.004-0.266,0.195,1.237,0.137,0.316
		c0.02,0.018,0.033,0.029,0.053,0.037c0.41,0.214,2.547,1.917,4.768,3.718c0.596,1.248,1.564,0.734,2.314,1.823
		c0.068-0.515,0.805-1.898,1.145-2.829c-0.953-1.316-1.979-2.59-2.611-4.06c-0.432-0.989-0.541-2.143-1.209-3.024
		c-0.482-0.644-1.414-1.879-2.111-2.288c-0.803-0.466-0.258,0.259-0.939,0.422c-0.551,0.126-0.877-0.722-1.408,0.012
		c-0.498-0.892-1.146,0.027-1.756,0.171c-0.398-0.836-1.014-1.506-1.379-2.371c-0.271-0.636-0.576-1.538-1.389-1.679
		c-0.623-1.604-2.641-2.247-3.938-3.358c-1.689-1.436-3.215-3.007-4.65-4.671c-2.752-3.205,2.553,0.039-0.203-3.176
		c-1.385-1.615-2.957-3.065-4.572-4.479c-0.799-0.717-1.705-1.279-2.588-1.91c-0.76-0.544-1.988-0.868-2.594-1.541
		c-0.209-0.24-0.248-0.684-0.498-0.879c-0.322-0.234-0.627-0.103-0.984-0.176c-0.881-0.186-1.455-0.967-1.826-1.711
		c-0.225-0.453-0.082-1.053-0.332-1.403c-0.135-0.188-0.676-0.388-0.873-0.561c-0.398-0.339-0.695-0.774-1.063-1.146
		c-0.623-0.652-1.221-1.776-2.008-2.22c-0.408-0.222-0.9-0.233-1.314-0.466c-0.496-0.285-3.664-2.646-4.025-3.08
		c-1.672-2.054-0.633-0.502-2.506-2.41c1.629,1.83-2.865-0.143-2.729,1.857c-0.035-0.104-0.111-0.183-0.158-0.275
		c-0.125,0.217-0.262,0.453-0.453,0.617c-0.471-0.283-0.895-0.686-1.275-1.068c-0.639,1.865,2.369,5.588,2.543,7.506
		c0.059,0.646,0.576,3.354-0.875,2.495c-1.199-0.724-0.195-0.499-1.322-1.379c-0.502-0.393-2.09-1.735-2.611-1.204
		c-0.234,0.241-0.313,1.224-0.395,1.564c-0.189,0.906-1.717-0.041-1.609,0.873c-0.584-0.473-0.154,0.531-0.838,0.162
		c-0.102,0.188,15.711,17.904,6.838,8.4c0.049,1.979-6.506-6.479-5.443-4.718c1.082,1.796-0.463,2.439-2.014,1.442
		c-1.152-0.738-1.082-0.999-1.93-2.018c-0.736,0.526-2.566,0.246-2.861,1.109c-0.33,0.942,0.322,1.342,1.043,1.859
		c0.488,0.353,1.512,1.102,1.107,1.832c-0.375,0.694-1.023,0.063-1.379-0.319c-0.551-0.573,0.107,1.457,1.195,2.656
		c0.834,0.919,1.85,1.652,2.727,2.534c0.873,0.89,1.473,1.894,2.092,2.946c0.709,1.184,1.418,2.278,2.514,3.18
		c0.039-0.029,0.104-0.083,0.146-0.124c0.186,0.794,0.834,1.416,1.418,1.935c0.58,0.52,1.342,1.17,1.994,1.771
		c0.697,0.656,1.326,1.39,2.082,1.988c0.711,0.559,1.807,1.305,1.705,2.299c1.18,1.7,2.986-2.162,3.621-0.19
		c0.48,1.462,0.18,3.093,0.672,4.571c0.424,1.292,1.307,2.308,2.258,3.282c2.367,2.425-2.43-2.785,0.346-0.854
		c2.813,1.951,4.482,4.213,6.395,6.903c1.359,1.927,3.332,3.331,5.277,4.698c0.982,0.689,1.779,1.574,2.787,2.244
		c1.104,0.738,2.219,0.696,3.471,0.363c1.189-0.313,2.607-0.632,3.85-0.624c0.854,0.002,2.115,0.153,2.584,0.926
		c0.619,1.019,0.291,2.725-0.33,3.675c-0.053,0.748-1.645,1.535-2.205,2.062c-0.176-0.37-0.609-0.183-0.682,0.134
		c-0.078,0.316,0.467,0.938,0.629,1.191c0.461,0.725,0.9,1.146,1.584,1.582c0.936,0.604,2.594,1.947,2.578,3.139
		c0.496,0.604,1.281,0.841,1.734,1.53c0.717,1.108,1.193,1.952,2.213,2.88c1.008,0.919,8.25,9.095,9.637,8.751
		c1.918-0.478-3.16-8.249-3.082-8.573c0.41-0.075,6.141,7.703,6.398,7.983c-0.16-0.075-0.311,0.08-0.408,0.329
		c0.916,1.296,2.252,1.913,3.537,2.793c0.648,0.443,1.313,0.884,1.961,1.34c0.492,0.346,1.719,1.633,2.344,1.428
		c-0.74-1.097-1.678-2.107-2.578-3.077c-0.547-0.595-1.336-1.375-1.775-2.187c-1.027-0.862-1.232-1.201-3.721-4.187
		c2.494,2.032,2.727,2.084,4.404,4.16c0.574,0.538,1.135,1.104,1.793,1.467c0.883,0.478,2.252,0.875,3.236,1.056
		c-0.258-1.048-1.072-1.399-1.84-2.094c-1.016-0.914-1.113-1.374-0.666-2.561c0.551-1.44-6.131-8.619-6.574-10.084
		c-0.861-2.91-3.068-5.186-4.746-7.686c-0.863-1.268-1.58-2.578-1.811-4.084c0.963,4.313,6.104,5.09,8.541,8.453
		c0.916,1.267,1.248,2.758,1.549,4.24c2.129-0.469,2.67-1.587,2.23-3.559c-0.285-1.24-1.285-2.895-0.982-4.181
		c0.215-0.88,1.016-0.666,1.861-0.588c-0.926-2.104-2.326-4.013-3.713-5.874c2.453,1.292,5.313,2.75,8.148,3.021
		C142.178,132.297,141.658,131.042,140.762,129.865z M90.814,115.619c2.941,1.626,0.639,0.144,3.822,3.165
		C93.354,117.722,92.094,116.675,90.814,115.619z M102.758,122.435l0.797-0.719l5.475,6.07
		C105.719,126.541,107.361,127.864,102.758,122.435z"/>
	<path fill="#EABF0C" d="M136.447,126.699c0.031,0.018,0.064,0.037,0.102,0.054c0.088,0.049,0.186,0.1,0.285,0.153
		c-0.125-0.141-0.23-0.258-0.414-0.445c0.008,0.041,0.012,0.114,0.018,0.212C136.438,126.678,136.441,126.694,136.447,126.699z"/>
	<path fill="#EABF0C" d="M120.834,167.579c0.041,0.073,0.115,0.169,0.166,0.242c0.01-0.013,0.02-0.029,0.031-0.049
		C122.504,169.14,119.822,165.613,120.834,167.579z"/>
	<path fill="#EABF0C" d="M134.455,183.862c0.953-0.484,1.914-0.999,1.912-1.418c2.143-1.82-7.527-5.729-7.084-5.854
		c-0.369-0.802-0.707-0.994-1.082-1.104c-1.023-2.071-5.99-5.775-7.201-7.666c-0.254,0.652-0.906,1.303-2.172,1.983
		c-4.482,0.204-1.961-2.184-0.168-4.608c-1.051-1.372-1.893-2.914-2.395-4.734c-0.244-1.178-6.719-6.745-7.16-7.223
		c-0.109-0.122-0.221-0.241-0.342-0.366c-0.359-0.382-0.77-0.838-1.223-1.649c-0.414-0.424-0.848-0.678-1.309-0.892
		c-0.824-0.388-1.672-0.609-2.533-1.287c-1.98-0.68-2.729-0.765-3.369-3.051c-0.363-0.495-0.66-1.716-1.105-2.604
		c-0.244-0.507-0.539-0.909-0.924-1.004c-0.848-1.114-1.459-1.765-2.063-2.591c-0.463-0.626-0.91-1.343-1.461-2.439
		c-0.291,0.342-0.57,0.678-0.834,0.994c-0.189,0.217-0.373,0.432-0.549,0.607c-0.449,0.438-0.879,0.721-1.332,0.675
		c-0.303,1.667-3.127,1.796-3.127,1.796c-0.09-1.967-0.211-3.926-0.523-5.854c-0.063-0.404-0.16-0.802-0.244-1.201
		c-0.277-1.294-0.623-2.576-1.176-3.823c-0.723-0.096-1.354-0.339-2.682-0.895c0.008-0.986,0.002-1.62-0.012-2.068
		c-1.295-1.15-2.639-2.223-4.021-3.254c0.693,0.502,1.166,0.785,1.176,0.632c-0.113-0.356-0.227-0.624-0.355-0.914
		c-1.234-3.005-10.211-9.421-11.973-8.183c-2,1.408-4.074,3.631-5.578,2.319c0.746-0.59,1.379-1.15,1.92-1.684
		c0.084-0.083,0.15-0.161,0.229-0.244c0.439-0.45,0.82-0.887,1.127-1.306c1.082-1.455,1.387-2.712,1.143-3.87
		c-0.404-1.951-2.318-3.641-4.652-5.551c-1.49-1.226-3.131-2.554-4.633-4.102c-0.594-0.608-1.166-1.237-1.693-1.92
		c-0.199,0.22-0.367,0.438-0.541,0.653c-0.223,0.272-0.404,0.541-0.566,0.812c-1.424,2.3-0.83,2.14,1.605,4.274
		c1.824,3.501-5.748-1.892-8.168,0.38c-1.752,2.746,5.996,11.414,5.107,12.04c-1.195,0.828-5.123-5.834-6.195-6.611
		c-1.369-0.999-2.854-0.148-4.283-1.079c-0.127-0.075-3.246,3.823-1.268,2.89c0.426,0.702,0.865,1.38,1.334,2.037
		c0.42,0.603-0.246,1.57-0.531,2.398c-0.145,0.412-0.199,0.794,0.041,1.072l0.516-0.027c0.283,0.103,0.57,0.205,0.854,0.308
		c1.193,0.431,2.389,0.86,3.582,1.286c-0.375,0.807-0.746,1.621-1.115,2.428c1.168,1.135,2.393,2.259,3.65,3.385
		c0.307,0.277,0.633,0.561,0.947,0.838c0.602,0.531,1.191,1.063,1.814,1.599c0.383,0.507,0.719,1.035,1.047,1.436
		c0.045,0.061,0.104,0.148,0.154,0.202c0.014,0.277,0.027,0.263,0.068,0.155c0-0.024,0.004-0.044,0.029-0.16
		c0.063-0.288,0.125-0.663,0.154-0.01c0.039-0.517,0.117-0.393,0.203-0.059c0.033,0.168,0.08,0.385,0.121,0.592
		c0.047,0.202,0.08,0.397,0.098,0.539c-0.096-0.171-0.145,0.604-0.219,0.848c-0.033,0.1-0.066,0.114-0.113-0.127
		c-0.117,2.052-0.514-2.015-0.699-1.762c-0.514,0.015-1.16-0.692-1.926-1.635c-2.713-1.525-4.863-4.235-7.049-6.879
		c-0.777-0.48-7.27-2.286-8.045-2.762c0.322,0.559,0.852,1.18,1.449,1.823c-0.227-0.095-0.027,0.358,0.633,1.367
		c0.137,0.204,0.256,0.422,0.383,0.629c0.1-0.225,0.205-0.449,0.309-0.671c2.949,2.739,7.209,5.72,9.516,7.291
		c0.311,0.217,0.643,0.771,0.99,1.39l-0.105,0.005c0.773,1.521,0.211,0.945,0.926,1.433c0.33,0.526,0.645,0.938,0.971,0.989
		c1.016,2.464,1.92,1.586,2.982,3.582c0.66,2.554,1.219,2.785,1.77,2.783c-0.068-0.515-0.133-1.126-0.193-1.811
		c0-0.042,0-0.093-0.01-0.137c-0.01-0.065-0.033-0.161-0.063-0.288c-0.061-0.285-0.18-0.794-0.354-1.527
		c-0.025-0.112-0.037-0.181-0.068-0.305c-0.029-0.653,0.02-1.041,0.129-1.265c0.48,0.453,0.984,0.924,1.506,1.418
		c-0.008,0.085,0,0.176-0.008,0.256c0.018,1.555-0.004,2.842-0.047,3.792c0.154,0.098,0.311,0.246,0.475,0.507
		c-0.01-0.225-0.016-0.351-0.016-0.414c-0.02-0.412,0.027,0.238,0.053,0.59c0.01,0.194,0.018,0.253,0.016,0.017
		c0-0.036-0.01-0.073-0.006-0.124c0.184,0.419,0.361,0.712,0.539,0.962c0.016,0.006,0.018,0.013,0.025,0.02
		c0.307,0.437,0.621,0.681,0.926,0.839c-0.09,0.144-0.199,0.349-0.313,0.68c0.414-0.026,0.881,1.146,1.293,1.387
		c0.643,0.735,1.285,1.635,1.9,2.4c0.717,0.272,1.193,0.799,1.568,1.457c0.205,0.365,0.375,0.763,0.541,1.182
		c0.771,1.977,1.293,4.27,3.824,4.315c0.113,0.005,0.26-0.017,0.393-0.021c0.219-0.018,0.428-0.024,0.672-0.068
		c0.443,0.363,0.895,0.779,1.35,1.233c0.459,0.458,3.432,0.07,3.902,0.585c0.031,0.272,0.07,0.662,0.111,0.931
		c0.031,0.199,0.066,0.339,0.08,0.277c0.598,0.473,1.209,1.147,1.814,1.825c0.049,0.641,0.061,0.487,0.061,0.07
		c0.389-0.541,0.723-0.626,0.967-0.579c0.115,0.02,0.227,0.067,0.291,0.121c0.73,1.584,1.787,3.751,3.678,5.076
		c1.572,1.104,3.965,1.348,5.072,2.769c0.75,0.972-1.916,0.604-1.482,1.698c1.018,2.557,4.742,6.616,6.525,7.927
		c0.41,0.707,0.805,0.931,1.213,1.297c1.139,0.755,8.426,6.757,9.57,8.093c0.539,0.375,1.145,0.908,1.732,1.472
		c0.768,0.711,1.541,1.465,2.256,1.996c1.273,1.159,2.355,2.1,2.949,3.9c0.217,0.585,0.23,1.584,0.693,1.453
		c0.58-0.161,2.287,2.352,3.83,2.076c1.314-0.236,2.447-3.192,3.285-4.074c0.48-0.502-2.521-2.364-2.564-3.314
		c-0.053-1.094,2.818-1.287,2.818-1.884c-0.01-2.354-5.824-4.262-4.602-4.791c2.52-1.089,5.617,1.606,8.631,5.229
		c0.607,0.729,1.123,2.847,1.73,3.492c2.719,2.895,5.709,3.745,6.418,3.082c1.17-1.084,0.82-2.59-0.033-4.04
		c0.342-0.6,0.715-1.242,1.061-1.832c0.615-1.067,7.201,7.33,8.613,5.604C140.939,191.812,133.498,184.348,134.455,183.862z
		 M68.51,147.702c-0.24-0.587-0.467-1.174-0.703-1.757l0.625-0.026c0.209,0.183,0.432,0.377,0.648,0.563
		C68.893,146.894,68.695,147.296,68.51,147.702z M79.664,126.485c0.043,0.39,0.102,0.789,0.139,1.141
		c0.027,0.268,0.061,0.489,0.08,0.732c-0.486,0.016-0.936,0.022-1.348,0.025c-0.178-0.622-0.348-1.168-0.477-1.616
		C78.605,126.658,79.123,126.567,79.664,126.485z M74.096,120.308c0.002-0.678,2.67,1.387,4.791,2.99
		c-0.229-0.161-0.453-0.329-0.686-0.487C76.889,121.923,75.543,121.075,74.096,120.308z M79.971,146.594
		c-0.037,0-0.053,0-0.098-0.003c0.008,0.068-0.002,0.142,0.008,0.21c-0.037,0.073-0.076,0.153-0.109,0.225
		c-0.621-0.117-1.248-0.239-1.881-0.358c-0.016-0.697-0.018-1.367-0.025-1.981c0.207-0.129,0.615-0.171,1.762-0.639
		c0.07,0.156,0.135,0.317,0.191,0.473c0.021,0.644,0.037,1.316,0.061,2.052c0.039,0.003,0.068,0.003,0.107,0.003
		C79.98,146.579,79.979,146.587,79.971,146.594z M119.508,178.489c-1.963-1.905-3.896-3.724-6.094-5.256
		c-0.619,0.514-1.191,0.996-1.789,1.498c-0.066-1.014-0.123-1.947-0.186-2.937c-0.75-0.748-1.15-1.684-2.092-2.332
		c-1.318-0.901-2.834-0.141-4.199-0.691c0.865-0.192,1.791-0.11,2.678-0.188c-0.396-2.316-0.486-3.411-3.27-3.576
		c3.416-1.675,3.523,2.792,6.254,4.018c0.15,0.068,0.314,0.112,0.461,0.166c0-0.034,0-0.063,0-0.098
		c1.762,0.404,3.248,0.743,5.578,1.272c-0.277,0.229-0.5,0.419-0.76,0.631c0.857,0.509,1.672,1.055,2.436,1.747
		c3.896,3.514,4.047,7.211,7.268,10.81C123.736,181.53,121.816,180.738,119.508,178.489z M129.27,191.222
		c0.014-0.059,0.086-0.195,0.178-0.373C129.443,191.085,129.404,191.248,129.27,191.222z"/>
	<path fill="#EABF0C" d="M52.467,155.057c-0.031-0.034-0.076-0.1-0.076-0.1C52.127,154.776,52.203,154.845,52.467,155.057z"/>
	<path fill="#EABF0C" d="M181.309,130.196l0.801-0.724c3.283,2.037,3.953,2.391,8.98,7.286c0.566,1.618,1.535,3.395,2.529,4.937
		h60.689c2.756,0,4.99-2.234,4.99-4.99v-18.327c0-2.756-2.234-4.991-4.99-4.991h-69.963V84.861h42.789
		c-0.271-1.63,0.215-2.354,1.451-3.597c0.986,1.196,1.977,2.397,2.965,3.597h6.779c-1.135-0.662-0.004,0.122-2.178-1.633
		c0.764,0.554,1.52,1.092,2.27,1.633h9.541c2.756,0,4.99-2.234,4.99-4.99V61.559c0-2.756-2.234-4.99-4.99-4.99h-57.545
		c0.789,1.086,1.715,2.303,2.859,3.734c-0.627-0.162-1.262-0.323-1.885-0.489c-0.814-0.722-1.643-1.467-2.461-2.188
		c-0.279-0.354-0.557-0.704-0.834-1.057h-3.752v-4.777c-2.852-3.631-5.707-7.262-8.559-10.887c2.695,1.889,0.682,0.204,4.902,4.366
		c-0.785-2.559-0.969-1.755,0.512-2.651c1.299,1.801,2.299,3.273,3.145,4.566v-14.76c-1.916-3.82-3.832-7.658-5.863-11.548
		l0.801-0.724c3.273,2.037,3.955,2.391,8.98,7.286c0.117,0.331,0.258,0.67,0.404,1.011h58.389c-0.578-0.804-1.168-1.62-1.748-2.427
		c0.84,0.807,1.688,1.616,2.529,2.427h6.471c2.756,0,4.99-2.234,4.99-4.99V5.134c0-2.756-2.234-4.991-4.99-4.991h-30.01
		c0.15,0.137,0.293,0.266,0.469,0.42l-0.27,0.243c-0.266-0.224-0.531-0.44-0.799-0.663h-15.561l-0.088,0.078l-0.068-0.078h-48.451
		c-2.756,0-4.99,2.235-4.99,4.991v86.385c1.137,1.58,2.273,3.156,3.418,4.747c-2.402-0.575-1.627-0.445-2.127,1.918
		c-0.43-0.38-0.861-0.765-1.291-1.152v0.848c0.566,0.446,1.215,0.975,2.088,1.677c0.1,0.641,0.189,1.287,0.287,1.93
		c-0.789-0.804-1.584-1.613-2.375-2.417v4.428c0.811,0.777,1.625,1.558,2.441,2.339l-0.27,0.239
		c-0.447-0.324-0.908-0.653-1.361-0.975c-0.268-0.373-0.541-0.751-0.811-1.128v32.733c0,2.756,2.234,4.99,4.99,4.99h27.615
		C185.236,137.89,183.332,134.068,181.309,130.196z M227.637,71.115l1.109,1.224c0.092,0.644,0.189,1.286,0.285,1.928l-2.193-2.43
		L227.637,71.115z M230.957,76.939c-2.467-0.434-3.51-1.364-7.334-4.391c-2.521-3.627-1.902-3.115-3.307-5.805
		C223.639,68.607,224.777,70.021,230.957,76.939z M219.215,65.521l-0.268,0.239c-1.627-1.45-3.27-2.917-4.902-4.365
		C216.59,62.926,215.609,62.23,219.215,65.521z M213.158,75.39l-0.273,0.243c-0.541-0.243-1.092-0.492-1.623-0.73
		c-0.639-0.892-1.291-1.781-1.922-2.668C211.838,73.918,209.547,72.078,213.158,75.39z M211.881,80.943l-0.795,0.717
		c-1.193-1.144-2.373-2.27-3.543-3.395c-0.93-1.387-1.842-2.754-2.764-4.126C207.145,76.398,209.518,78.67,211.881,80.943z
		 M252.256,21.95l4.375,4.852c-0.908,0.075-1.799,0.151-2.695,0.227l-1.092-1.206c-0.27-0.482-0.551-0.975-0.828-1.457
		C252.092,23.557,252.182,22.771,252.256,21.95z M248.506,23.145c0.096,0.641,0.186,1.286,0.285,1.93
		c-1.91-1.942-3.818-3.885-5.736-5.831C245.191,20.42,245.875,21.031,248.506,23.145z M179.783,37.305
		c0.545,0.965,1.104,1.938,1.652,2.902c-3.328-2.734-2.189-1.574-5.738-5.829L179.783,37.305z M171.824,26.877
		c1.74,2.669,0.629,0.748,1.658,2.905l-2.189-2.425L171.824,26.877z M158.467,14.73l0.531-0.479c1.729,2.666,0.627,0.746,1.656,2.9
		L158.467,14.73z M164.758,103.214c-0.908,0.075-1.799,0.15-2.695,0.227l-1.092-1.207c-0.27-0.482-0.549-0.975-0.828-1.457
		c0.076-0.809,0.166-1.594,0.24-2.415L164.758,103.214z M161.293,124.048l0.531-0.478c1.74,2.666,0.629,0.746,1.652,2.9
		L161.293,124.048z M161.232,121.787c-0.471-1.767-0.943-3.541-1.416-5.317l1.064-0.96l4.363,4.847
		c1.721,4.284,3.322,4.856,9.59,11.173c-0.805-0.005-1.631-0.022-2.43-0.026C168.676,128.264,164.955,125.028,161.232,121.787z
		 M174.119,136.676l0.531-0.479c1.74,2.668,0.629,0.748,1.658,2.904L174.119,136.676z M179.033,123.337l-2.191-2.433
		c0.992,0.565,1.998,1.146,2.992,1.711L179.033,123.337z"/>
	<path fill="#EABF0C" d="M377.873,82.532c2.729-0.978,5.355-2.237,7.848-3.768c12.723-7.808,20.326-21.334,20.326-36.182
		c0-14.845-7.604-28.37-20.326-36.18c-6.668-4.097-14.297-6.261-22.045-6.261h-70.297c-0.635,0-1.238,0.13-1.795,0.347
		c0.756,0.702,1.623,1.53,2.727,2.604c1.139,3.264,3.926,7.187,5.242,8.482c3.441,3.471,6.916,6.965,10.373,10.445l-0.527,0.477
		c-0.434,1.848-0.863,3.695-1.287,5.539c-2.623-2.015-5.256-4.045-7.891-6.08c-1.902-1.93-3.824-3.879-5.732-5.818
		c-2.061-3.931-4.031-7.876-6.018-11.838c-0.045,0.272-0.084,0.548-0.084,0.833v14.743c4.91,7.02,5.104,8.791,10.939,16.08
		c-0.629-0.163-1.262-0.324-1.889-0.49c-0.809-0.721-1.643-1.467-2.455-2.188c-2.203-2.798-4.396-5.59-6.596-8.388v111.96
		c0,2.756,2.234,4.99,4.992,4.99c0,0,19.488,0.039,19.752-0.002c0.02,0,0.037,0,0.053,0c1.313,0,2.492-0.515,3.383-1.341
		l-1.563-1.732l0.529-0.478c1.359,2.088,0.99,1.384,1.248,2.005c0.863-0.896,1.395-2.104,1.395-3.445V85.032h28.529l30.934,54.29
		c0.887,1.557,2.541,2.52,4.332,2.52h21.098c1.779,0,3.422-0.945,4.316-2.483c0.893-1.537,0.898-3.434,0.021-4.979L377.873,82.532z
		 M309.543,112.902c-0.814-0.724-1.639-1.467-2.457-2.19c-0.914-1.367-1.834-2.742-2.748-4.119c1.08-1.674,2.967,1.706-0.857-3.621
		c1.457,0.893,2.898,1.781,4.348,2.676c1.281,1.779,2.557,3.549,3.84,5.337C309.266,110.409,310.045,110.538,309.543,112.902z
		 M317.135,57.313c-1.193-1.144-2.371-2.269-3.549-3.395c-0.926-1.387-1.84-2.754-2.758-4.126c2.365,2.26,4.74,4.53,7.104,6.805
		L317.135,57.313z M321.504,62.16l0.797-0.719c0.551,0.963,1.104,1.938,1.656,2.912C323.131,63.622,322.313,62.887,321.504,62.16z
		 M340.189,69.505c-2.008-1.864-3.998-3.719-6.004-5.585c-1.605-4.479-1.424-5.125,0.447-7.001c0.094,0.112,0.182,0.222,0.279,0.333
		c0.574,0.7,1.148,1.402,1.725,2.102c1.066,1.289,2.129,2.578,3.199,3.877c-1.229,0.463-1.732-1.126,0.027,2.166
		c4.244,5.231,4.629,4.462,9.564,9.002c-1.918-1.233-3.822-2.449-5.719-3.67C342.885,71.601,344.461,73.023,340.189,69.505z
		 M342.199,58.883c0.92,0.66,1.818,1.307,2.717,1.951C342.885,59.604,344.65,60.859,342.199,58.883z M350.648,86.46
		c-1.729-2.093-3.471-4.2-5.195-6.302c0.996,0.57,1.986,1.139,2.98,1.706l2.482,4.354L350.648,86.46z M360.707,72.997l-3.279-3.639
		c1.002,0.57,1.996,1.136,2.984,1.704l1.098,1.213L360.707,72.997z M363.676,56.721h-45.5v-5.774
		c-0.289-0.132-0.58-0.264-0.863-0.39c-0.641-0.893-1.291-1.781-1.926-2.669c2.211,1.486,0.693,0.239,2.789,2.206V28.451h45.5
		c7.758,0,14.07,6.339,14.07,14.132C377.746,50.378,371.434,56.721,363.676,56.721z"/>
	<path fill="#EABF0C" d="M517.971,110.103c0.281,0.285,0.59,0.59,0.969,0.96c-0.209-0.673-0.369-1.104-0.477-1.403
		C518.301,109.808,518.141,109.961,517.971,110.103z"/>
	<path fill="#EABF0C" d="M552.443,42.583c0-14.845-7.59-28.37-20.301-36.18c-6.691-4.097-14.316-6.261-22.068-6.261h-67.621
		c0.283,0.269,0.584,0.559,0.945,0.9c0.273,0.482,0.547,0.975,0.814,1.439l-3.271-2.34h-1.162c-2.754,0-4.99,2.235-4.99,4.991v10.2
		c0.51,0.288,1.021,0.58,1.523,0.865c0.563,0.982,1.111,1.947,1.656,2.914c-0.9-0.65-1.807-1.291-2.725-1.954
		c-0.148-0.209-0.301-0.424-0.455-0.636v2.449c0.402,0.406,0.904,0.911,1.582,1.579l-0.264,0.238
		c-0.439-0.312-0.879-0.631-1.318-0.942v116.758c0,2.756,2.236,4.99,4.99,4.99h70.295c7.76,0,15.387-2.161,22.064-6.25
		c12.717-7.82,20.305-21.347,20.305-36.183c0-10.48-3.93-20.532-10.932-28.289C548.514,63.105,552.443,53.054,552.443,42.583z
		 M464.602,30.691v-2.24h44.479c7.752,0,14.057,6.339,14.057,14.132c0,7.795-6.305,14.138-14.057,14.138h-11.576l2.672,2.967
		c-0.908,0.075-1.797,0.15-2.695,0.227l-1.092-1.207c-0.27-0.482-0.549-0.975-0.828-1.457c0.02-0.178,0.035-0.354,0.055-0.529
		h-3.465c0.063,0.412,0.125,0.826,0.188,1.238c-0.408-0.412-0.813-0.826-1.219-1.238h-26.518V30.84
		c-0.125-0.103-0.246-0.205-0.373-0.307C464.369,30.596,464.486,30.645,464.602,30.691z M515.25,79.089l-0.799,0.722l-2.191-2.433
		C513.252,77.943,514.26,78.523,515.25,79.089z M492.4,62.309l-0.27,0.239c-0.447-0.324-0.908-0.653-1.361-0.975
		c-0.627-0.878-1.281-1.779-1.92-2.663C490.035,60.038,491.217,61.171,492.4,62.309z M446.844,119.146
		c-1.277-1.067-2.547-2.113-3.807-3.161c2.896,1.299-0.268-0.926,4.072,2.92L446.844,119.146z M452.398,32.387l-0.803,0.719
		l-0.658-0.732c0.508,0.758,1.014,1.518,1.521,2.275l-3.285-3.646l0.293-0.263l-2.234-2.479
		C450.146,29.88,447.877,28.113,452.398,32.387z M448.857,108.521c3.035,2.479,2.68,1.959,5.73,5.832
		C451.264,111.625,452.41,112.785,448.857,108.521z M462.182,138.296l0.797-0.719c1.016,1.302,2.01,2.591,3.033,3.892
		C464.725,140.404,463.461,139.358,462.182,138.296z M463.992,132.272c2.939,1.214,1.074-0.358,6.543,5.115
		c0.533,0.95,1.092,1.925,1.643,2.897C468.496,137.606,467.99,137.08,463.992,132.272z M542.123,112.159l-0.525,0.478
		c-0.434,1.847-0.863,3.694-1.289,5.539c-2.625-2.016-5.256-4.046-7.889-6.08c-1.904-1.93-3.822-3.88-5.73-5.819
		c-1.223-2.327-2.389-4.661-3.559-6.996c-0.029,3.563-1.381,6.807-3.576,9.279c4.756,6.623,5.594,8.916,8.943,13.563l0.512-0.468
		c0.92,1.372,1.84,2.749,2.756,4.123l-3.189-3.541c0.803,1.119,1.754,2.371,2.947,3.857c-0.629-0.163-1.258-0.324-1.881-0.489
		c-0.824-0.722-1.652-1.467-2.467-2.188c-3.33-4.242-6.666-8.48-9.996-12.718c-0.488,0.349-0.998,0.67-1.529,0.955
		c0.01,0.01,0.018,0.018,0.027,0.027l-0.264,0.238c-0.041-0.029-0.086-0.061-0.127-0.09c-1.873,0.934-3.979,1.472-6.207,1.472
		h-44.479v-28.27h39.834c-2.596-2.257-5.189-4.513-7.785-6.772c-0.471-1.766-0.943-3.54-1.416-5.316l1.064-0.961l4.365,4.848
		c1.4,3.477,2.758,4.557,6.561,8.202h1.855c3.047,0,5.859,0.989,8.164,2.649c-0.176-0.34-0.336-0.673-0.518-1.012l0.805-0.724
		c3.275,2.037,3.953,2.39,8.975,7.286c1.143,3.263,3.928,7.186,5.236,8.482C535.195,105.185,538.668,108.679,542.123,112.159z
		 M496.711,80.521l0.531-0.478c1.734,2.666,0.629,0.746,1.652,2.899L496.711,80.521z"/>
	<path fill="#EABF0C" d="M93.736,33.439l0.797-0.719c0.615,0.785,1.223,1.564,1.83,2.347l2.811-3.452
		c-0.926-0.978-1.975-2.218-3.625-4.199c2.164,0.895,1.732,0.285,3.537,2.084c-0.375-1.385-0.742-2.771-1.117-4.16l1.072-0.96
		l3.164,3.511l18.699-22.964c1.709-2.354-0.678-4.915-2.977-4.915H93.43c-2.771,0-5.973,1.121-7.598,3.365l-2.396,2.849
		c0.625,0.644,1.303,1.483,2.711,3.271c-2.002-1.646-2.389-1.887-3.154-2.746l-5.355,6.367c0.287,0.266,0.619,0.563,1.033,0.931
		l-0.266,0.241c-0.35-0.29-0.689-0.57-1.031-0.857L29.82,69.934V4.99c0-2.756-2.23-4.99-4.99-4.99H4.99C2.232,0,0,2.234,0,4.99
		v79.718v31.98v9.204c1.623,1.553,3.246,3.103,4.865,4.659l-0.797,0.717c-1.193-1.143-2.371-2.269-3.551-3.395
		c-0.172-0.261-0.342-0.514-0.518-0.772v9.426c0,2.756,2.236,4.99,4.99,4.99c0,0,19.49,0.039,19.752-0.002c0,0,0.039,0,0.059,0
		c0.074,0,0.139-0.018,0.211-0.022c-1.297-1.203-2.594-2.41-3.891-3.618c-1.613-4.479-1.426-5.125,0.443-7.001
		c1.732,2.101,3.467,4.198,5.201,6.311c-1.229,0.464-1.729-1.125,0.029,2.167c0.363,0.446,0.662,0.797,0.975,1.162
		c1.221-0.909,2.021-2.349,2.021-3.989v-3.148c-0.18-0.148-0.385-0.316-0.662-0.538c0.225,0.161,0.443,0.314,0.662,0.473v-16.492
		l66.307-81.424C95.309,34.744,94.529,34.096,93.736,33.439z M98.545,7.232l4.371,4.852c-0.902,0.075-1.799,0.15-2.695,0.227
		l-1.092-1.207c-0.268-0.482-0.545-0.975-0.82-1.457C98.379,8.838,98.477,8.053,98.545,7.232z M10.764,74.064l4.086,2.926
		c0.549,0.965,1.104,1.938,1.646,2.902C13.172,77.159,14.313,78.318,10.764,74.064z M17.33,83.799
		c-0.66-0.036-1.326-0.07-1.996-0.102c-0.357-1.004-0.211-0.697,0.934-1.392C16.645,82.829,16.998,83.326,17.33,83.799z
		 M5.867,125.242c-0.541-0.243-1.096-0.492-1.621-0.731c-0.645-0.892-1.293-1.781-1.928-2.668c2.504,1.684,0.207-0.156,3.813,3.156
		L5.867,125.242z M6.891,66.563c1.74,2.669,0.629,0.748,1.656,2.905l-2.188-2.425L6.891,66.563z M8.441,136.115l0.789-0.719
		c0.553,0.963,1.105,1.938,1.656,2.912C10.066,137.577,9.248,136.842,8.441,136.115z M11.926,115.368
		c-1.625-1.45-3.271-2.917-4.904-4.364c2.547,1.53,1.568,0.836,5.172,4.126L11.926,115.368z M10.854,80.59
		c2.363,1.652,1.111,0.57,3.596,3.065c-0.408-0.017-0.818-0.036-1.225-0.051C12.432,82.601,11.645,81.594,10.854,80.59z
		 M25.291,129.604c-0.816-0.725-1.641-1.467-2.459-2.191c-0.334-0.504-0.672-1.014-1.014-1.521
		c-1.336-0.626-2.645-1.703-5.215-3.735c-2.523-3.626-1.904-3.114-3.309-5.805c2.607,1.465,3.906,2.693,7.32,6.487
		c0.141-0.054,0.277-0.071,0.406-0.062l-1.203-1.333l0.422-0.382c-0.281-0.383-0.609-0.829-1.01-1.39
		c1.455,0.893,2.895,1.781,4.342,2.676c1.293,1.779,2.559,3.548,3.846,5.337C25.016,127.111,25.793,127.24,25.291,129.604z
		 M38.414,86.531c-0.43,1.847-0.859,3.693-1.283,5.538c-2.441-1.874-4.893-3.762-7.34-5.655v-1.706c0,0-0.74-0.068-1.982-0.173
		c-1.434-1.452-2.865-2.91-4.293-4.364c-3.418-6.487-6.504-12.981-9.967-19.606l0.803-0.725c3.271,2.037,3.953,2.391,8.975,7.287
		c1.145,3.263,3.932,7.186,5.238,8.482c3.453,3.47,6.924,6.964,10.381,10.443L38.414,86.531z M94.789,8.426
		c0.1,0.641,0.188,1.287,0.291,1.93c-1.906-1.941-3.816-3.884-5.736-5.831C91.479,5.701,92.164,6.313,94.789,8.426z M91.594,11.307
		c1.176,1.128,2.365,2.261,3.555,3.398l-0.273,0.239c-0.449-0.324-0.912-0.653-1.359-0.975
		C92.881,13.092,92.238,12.191,91.594,11.307z"/>
	<polygon fill="#EABF0C" points="186.779,168.196 183.867,168.196 183.867,189.848 195.607,189.848 195.607,187.12 186.779,187.12 	
		"/>
	<path fill="#EABF0C" d="M257.734,169.432c-1.684-0.987-3.531-1.479-5.559-1.479c-2.012,0-3.855,0.492-5.531,1.479
		c-1.672,1.001-2.992,2.349-3.953,4.048c-0.965,1.703-1.447,3.572-1.447,5.602c0,1.502,0.283,2.932,0.855,4.294
		c0.563,1.367,1.33,2.544,2.299,3.541c0.959,0.996,2.129,1.783,3.479,2.366c1.355,0.584,2.783,0.875,4.299,0.875
		s2.959-0.291,4.324-0.875c1.359-0.583,2.51-1.37,3.488-2.366c0.961-0.997,1.73-2.174,2.305-3.541
		c0.57-1.362,0.859-2.792,0.859-4.294c0-2.029-0.496-3.898-1.457-5.602C260.744,171.78,259.414,170.433,257.734,169.432z
		 M259.178,183.261c-0.697,1.267-1.664,2.269-2.898,3.002c-1.238,0.733-2.607,1.099-4.104,1.099c-1.48,0-2.834-0.365-4.064-1.099
		c-1.232-0.733-2.193-1.735-2.895-3.002c-0.699-1.272-1.053-2.666-1.053-4.18c0-1.527,0.354-2.922,1.053-4.193
		c0.701-1.274,1.662-2.283,2.895-3.034c1.23-0.74,2.584-1.111,4.064-1.111c1.496,0,2.865,0.371,4.104,1.111
		c1.234,0.751,2.201,1.76,2.898,3.034c0.709,1.271,1.053,2.666,1.053,4.193C260.23,180.595,259.887,181.988,259.178,183.261z"/>
	<polygon fill="#EABF0C" points="324.428,184.392 314.652,168.196 311.766,168.196 311.766,189.848 314.682,189.848 314.682,173.54 
		324.551,189.848 327.342,189.848 327.342,168.196 324.428,168.196 	"/>
	<path fill="#EABF0C" d="M392.898,171.335c-0.816-0.979-1.844-1.75-3.08-2.306c-1.248-0.556-2.613-0.833-4.113-0.833h-8.379v21.651
		h8.379c1.5,0,2.865-0.278,4.107-0.816c1.238-0.549,2.262-1.309,3.076-2.274c0.813-0.97,1.451-2.104,1.895-3.411
		c0.449-1.315,0.658-2.739,0.658-4.265c0-1.54-0.209-2.968-0.658-4.296C394.34,173.46,393.707,172.307,392.898,171.335z
		 M392.088,182.252c-0.301,0.975-0.721,1.825-1.281,2.549c-0.551,0.721-1.271,1.299-2.148,1.706
		c-0.875,0.409-1.861,0.613-2.953,0.613h-5.465v-16.192h5.465c1.451,0,2.709,0.368,3.756,1.097c1.043,0.727,1.818,1.703,2.32,2.912
		c0.508,1.219,0.762,2.6,0.762,4.145C392.543,180.22,392.387,181.284,392.088,182.252z"/>
	<path fill="#EABF0C" d="M462.82,169.432c-1.682-0.987-3.539-1.479-5.557-1.479c-2.006,0-3.859,0.492-5.535,1.479
		c-1.672,1.001-2.996,2.349-3.963,4.048c-0.961,1.703-1.434,3.572-1.434,5.602c0,1.502,0.277,2.932,0.854,4.294
		c0.564,1.367,1.328,2.544,2.295,3.541c0.973,0.996,2.125,1.783,3.484,2.366c1.352,0.584,2.793,0.875,4.299,0.875
		c1.516,0,2.953-0.291,4.311-0.875c1.363-0.583,2.533-1.37,3.492-2.366c0.965-0.997,1.74-2.174,2.311-3.541
		c0.57-1.362,0.854-2.792,0.854-4.294c0-2.029-0.482-3.898-1.439-5.602C465.826,171.78,464.496,170.433,462.82,169.432z
		 M464.26,183.261c-0.697,1.267-1.664,2.269-2.902,3.002c-1.23,0.733-2.592,1.099-4.094,1.099c-1.486,0-2.846-0.365-4.074-1.099
		s-2.193-1.735-2.891-3.002c-0.695-1.272-1.047-2.666-1.047-4.18c0-1.527,0.352-2.922,1.047-4.193
		c0.697-1.274,1.662-2.283,2.891-3.034c1.229-0.74,2.588-1.111,4.074-1.111c1.502,0,2.863,0.371,4.094,1.111
		c1.238,0.751,2.205,1.76,2.902,3.034c0.699,1.271,1.051,2.666,1.051,4.193C465.311,180.595,464.959,181.988,464.26,183.261z"/>
	<polygon fill="#EABF0C" points="529.512,184.392 519.73,168.196 516.84,168.196 516.84,189.848 519.764,189.848 519.764,173.54 
		529.623,189.848 532.424,189.848 532.424,168.196 529.512,168.196 	"/>
</g>
</svg>
