<?xml version="1.0" encoding="utf-8"?>
<!-- Generator: Adobe Illustrator 16.0.0, SVG Export Plug-In . SVG Version: 6.00 Build 0)  -->
<!DOCTYPE svg PUBLIC "-//W3C//DTD SVG 1.1//EN" "http://www.w3.org/Graphics/SVG/1.1/DTD/svg11.dtd">
<svg version="1.1" id="Layer_1" xmlns="http://www.w3.org/2000/svg" xmlns:xlink="http://www.w3.org/1999/xlink" x="0px" y="0px"
	 width="552.445px" height="195.296px" viewBox="0 0 552.445 195.296" enable-background="new 0 0 552.445 195.296"
	 xml:space="preserve">
<g>
	<path fill="#B8B8B8" d="M140.764,129.866c-1.1-1.463-2.547-0.943-4.084-0.402c0.021-1.004,0.037-2.135-0.705-2.938
		c-0.701-0.773-1.855-0.998-2.764-1.498c-1.766-0.986-3.41-2.367-4.283-4.143c-0.043-0.088-0.102-0.164-0.154-0.252
		c-0.092,0.309-0.178,0.59-0.24,0.811c1.938,3.066,3.936,6.025,5.637,9.146c0.016,0.035,0,0.084,0.016,0.121
		c-0.1-0.135-0.201-0.273-0.301-0.408c0.082,0.682-0.547,1.723-0.805,2.57c-0.449-0.123-0.887-0.246-1.34-0.359
		c-0.133-1.074-0.273-2.145-0.434-3.404c-4.012-0.109-5.859-2.461-5.766-5.879c0.01-0.084,0.031-0.164,0.039-0.25
		c-1.088-0.662-2.213-1.301-3.416-1.846c-0.664-0.291-1.361-0.535-2.047-0.793c0.424,1.313,0.438,2.668,0.307,4.027
		c0.068,1.189-0.025,1.701-0.186,1.758c-0.176,0.063-0.414-0.328-0.717-0.934c-2.758-1.822-1.887-3.736-1.725-4.836
		c-3.387,0.814-3.766-0.871-2.725-2.678c0.205-0.359,0.461-0.717,0.771-1.064c0.447-0.504,0.971-0.986,1.572-1.377
		c0.203-0.131,0.424-0.264,0.648-0.373c0.199,0.039,0.363-0.258,0.594,0.084c0.006-0.266,0.195,1.236,0.137,0.316
		c0.02,0.018,0.035,0.029,0.055,0.037c0.408,0.213,2.547,1.916,4.766,3.717c0.598,1.248,1.564,0.734,2.314,1.824
		c0.068-0.516,0.805-1.898,1.146-2.83c-0.953-1.316-1.979-2.59-2.613-4.059c-0.43-0.99-0.541-2.143-1.207-3.025
		c-0.484-0.643-1.414-1.879-2.111-2.287c-0.805-0.467-0.258,0.258-0.941,0.422c-0.551,0.125-0.877-0.723-1.408,0.012
		c-0.496-0.893-1.145,0.027-1.754,0.17c-0.4-0.836-1.014-1.506-1.379-2.371c-0.273-0.635-0.578-1.537-1.389-1.678
		c-0.625-1.604-2.643-2.248-3.939-3.359c-1.688-1.436-3.213-3.006-4.648-4.67c-2.754-3.205,2.551,0.039-0.205-3.176
		c-1.385-1.615-2.955-3.066-4.57-4.479c-0.801-0.717-1.707-1.279-2.588-1.91c-0.762-0.545-1.99-0.869-2.594-1.541
		c-0.209-0.24-0.248-0.684-0.5-0.879c-0.32-0.234-0.625-0.104-0.984-0.176c-0.879-0.186-1.455-0.967-1.824-1.711
		c-0.225-0.453-0.084-1.053-0.332-1.404c-0.137-0.188-0.678-0.387-0.875-0.561c-0.396-0.338-0.693-0.773-1.063-1.145
		c-0.621-0.652-1.221-1.777-2.008-2.221c-0.406-0.221-0.898-0.232-1.313-0.465c-0.498-0.285-3.666-2.646-4.027-3.08
		c-1.67-2.055-0.633-0.502-2.504-2.41c1.627,1.83-2.865-0.143-2.729,1.857c-0.035-0.105-0.113-0.184-0.16-0.275
		c-0.123,0.217-0.26,0.453-0.453,0.617c-0.469-0.283-0.895-0.686-1.273-1.068c-0.639,1.865,2.369,5.588,2.541,7.506
		c0.059,0.645,0.578,3.354-0.875,2.494c-1.199-0.723-0.195-0.498-1.32-1.379c-0.502-0.393-2.09-1.734-2.611-1.203
		c-0.234,0.24-0.313,1.223-0.396,1.564c-0.189,0.906-1.715-0.041-1.607,0.873c-0.584-0.473-0.156,0.531-0.838,0.162
		c-0.104,0.188,15.709,17.904,6.838,8.4c0.049,1.979-6.508-6.48-5.445-4.719c1.082,1.797-0.463,2.439-2.012,1.443
		c-1.152-0.738-1.082-1-1.93-2.018c-0.736,0.525-2.566,0.246-2.861,1.109c-0.332,0.941,0.322,1.342,1.043,1.859
		c0.486,0.352,1.51,1.102,1.105,1.832c-0.375,0.693-1.023,0.063-1.379-0.32c-0.551-0.572,0.107,1.457,1.197,2.656
		c0.834,0.92,1.85,1.652,2.727,2.535c0.873,0.889,1.473,1.893,2.09,2.945c0.709,1.184,1.42,2.279,2.516,3.18
		c0.039-0.029,0.102-0.082,0.146-0.123c0.186,0.793,0.834,1.416,1.418,1.934c0.58,0.52,1.34,1.17,1.994,1.771
		c0.695,0.656,1.324,1.391,2.08,1.988c0.711,0.559,1.809,1.305,1.705,2.299c1.18,1.701,2.988-2.162,3.621-0.189
		c0.48,1.461,0.182,3.092,0.674,4.57c0.424,1.293,1.307,2.309,2.256,3.283c2.369,2.424-2.43-2.785,0.346-0.855
		c2.813,1.951,4.484,4.213,6.395,6.904c1.359,1.926,3.334,3.33,5.279,4.697c0.98,0.689,1.777,1.574,2.787,2.244
		c1.104,0.738,2.217,0.697,3.471,0.363c1.188-0.313,2.605-0.631,3.85-0.623c0.852,0.002,2.115,0.152,2.582,0.926
		c0.619,1.018,0.293,2.725-0.328,3.674c-0.055,0.748-1.645,1.535-2.205,2.063c-0.176-0.371-0.609-0.184-0.684,0.133
		c-0.078,0.316,0.469,0.939,0.629,1.191c0.461,0.725,0.902,1.146,1.584,1.582c0.936,0.605,2.596,1.947,2.578,3.139
		c0.498,0.605,1.283,0.842,1.736,1.531c0.715,1.107,1.193,1.951,2.211,2.879c1.01,0.92,8.252,9.096,9.639,8.752
		c1.918-0.479-3.16-8.25-3.082-8.574c0.408-0.074,6.141,7.703,6.398,7.984c-0.16-0.076-0.313,0.08-0.41,0.328
		c0.918,1.297,2.252,1.914,3.539,2.793c0.648,0.443,1.311,0.885,1.959,1.34c0.492,0.346,1.721,1.633,2.344,1.428
		c-0.74-1.096-1.676-2.107-2.578-3.076c-0.545-0.596-1.334-1.375-1.773-2.188c-1.027-0.861-1.232-1.201-3.721-4.186
		c2.492,2.031,2.727,2.084,4.402,4.16c0.576,0.537,1.137,1.104,1.795,1.467c0.881,0.477,2.25,0.875,3.236,1.055
		c-0.26-1.047-1.072-1.398-1.84-2.094c-1.018-0.914-1.115-1.373-0.666-2.561c0.551-1.439-6.131-8.619-6.574-10.084
		c-0.863-2.91-3.068-5.186-4.748-7.686c-0.861-1.268-1.578-2.578-1.811-4.084c0.963,4.313,6.105,5.09,8.541,8.453
		c0.916,1.268,1.248,2.758,1.551,4.24c2.127-0.469,2.668-1.586,2.229-3.559c-0.283-1.24-1.283-2.895-0.98-4.18
		c0.213-0.881,1.016-0.666,1.861-0.588c-0.928-2.104-2.328-4.014-3.713-5.875c2.451,1.293,5.313,2.75,8.148,3.021
		C142.18,132.298,141.66,131.042,140.764,129.866z M90.816,115.62c2.941,1.625,0.639,0.143,3.82,3.164
		C93.355,117.722,92.096,116.675,90.816,115.62z M102.758,122.435l0.797-0.719l5.477,6.07
		C105.719,126.542,107.361,127.864,102.758,122.435z"/>
	<path d="M136.447,126.7c0.033,0.018,0.066,0.037,0.104,0.053c0.088,0.049,0.186,0.1,0.285,0.154
		c-0.125-0.141-0.232-0.258-0.414-0.445c0.006,0.041,0.012,0.113,0.016,0.211C136.438,126.679,136.443,126.694,136.447,126.7z"/>
	<path d="M120.836,167.579c0.041,0.074,0.113,0.17,0.164,0.242c0.01-0.012,0.02-0.029,0.033-0.049
		C122.504,169.14,119.824,165.614,120.836,167.579z"/>
	<path fill="#B8B8B8" d="M134.457,183.862c0.953-0.484,1.912-0.998,1.91-1.418c2.145-1.82-7.527-5.729-7.084-5.854
		c-0.367-0.801-0.707-0.994-1.082-1.104c-1.023-2.07-5.988-5.775-7.201-7.666c-0.252,0.652-0.906,1.303-2.17,1.984
		c-4.484,0.203-1.963-2.184-0.168-4.609c-1.051-1.371-1.895-2.914-2.396-4.734c-0.244-1.178-6.719-6.744-7.158-7.223
		c-0.111-0.121-0.223-0.24-0.342-0.365c-0.361-0.383-0.77-0.838-1.223-1.65c-0.414-0.424-0.85-0.678-1.309-0.891
		c-0.824-0.389-1.672-0.609-2.535-1.287c-1.979-0.68-2.727-0.766-3.367-3.051c-0.363-0.496-0.66-1.717-1.107-2.605
		c-0.242-0.506-0.537-0.908-0.922-1.004c-0.85-1.113-1.461-1.764-2.063-2.59c-0.463-0.627-0.912-1.344-1.463-2.439
		c-0.289,0.342-0.57,0.678-0.832,0.994c-0.191,0.217-0.373,0.432-0.549,0.607c-0.451,0.438-0.879,0.721-1.332,0.674
		c-0.303,1.668-3.127,1.797-3.127,1.797c-0.09-1.967-0.213-3.926-0.523-5.854c-0.064-0.404-0.162-0.803-0.244-1.201
		c-0.277-1.295-0.625-2.576-1.178-3.824c-0.721-0.096-1.352-0.338-2.68-0.895c0.008-0.986,0.002-1.619-0.012-2.068
		c-1.295-1.15-2.641-2.223-4.021-3.254c0.691,0.502,1.164,0.785,1.174,0.633c-0.111-0.357-0.227-0.625-0.355-0.914
		c-1.232-3.006-10.211-9.422-11.973-8.184c-2,1.408-4.074,3.631-5.576,2.32c0.744-0.59,1.379-1.15,1.92-1.684
		c0.082-0.084,0.15-0.162,0.229-0.244c0.439-0.451,0.818-0.887,1.125-1.307c1.082-1.455,1.387-2.711,1.145-3.869
		c-0.406-1.951-2.318-3.641-4.652-5.551c-1.492-1.227-3.131-2.555-4.633-4.102c-0.594-0.609-1.168-1.238-1.693-1.92
		c-0.199,0.219-0.369,0.438-0.541,0.652c-0.225,0.273-0.404,0.541-0.568,0.813c-1.422,2.299-0.828,2.139,1.605,4.273
		c1.826,3.502-5.748-1.891-8.168,0.381c-1.752,2.746,5.998,11.414,5.107,12.039c-1.193,0.828-5.121-5.834-6.193-6.611
		c-1.369-0.998-2.854-0.148-4.285-1.078c-0.125-0.076-3.244,3.822-1.266,2.889c0.426,0.703,0.865,1.381,1.332,2.037
		c0.422,0.604-0.246,1.57-0.531,2.398c-0.145,0.412-0.197,0.795,0.041,1.072l0.518-0.027c0.283,0.104,0.57,0.205,0.852,0.309
		c1.195,0.43,2.389,0.859,3.584,1.285c-0.377,0.807-0.746,1.621-1.117,2.428c1.17,1.135,2.393,2.26,3.65,3.385
		c0.307,0.277,0.633,0.561,0.947,0.838c0.604,0.531,1.193,1.063,1.816,1.6c0.383,0.506,0.719,1.035,1.045,1.436
		c0.047,0.061,0.105,0.148,0.156,0.201c0.012,0.277,0.027,0.264,0.068,0.156c0-0.025,0.002-0.045,0.029-0.16
		c0.061-0.289,0.125-0.664,0.154-0.01c0.037-0.518,0.115-0.393,0.201-0.059c0.035,0.168,0.08,0.385,0.121,0.592
		c0.047,0.201,0.082,0.396,0.098,0.539c-0.094-0.172-0.143,0.604-0.219,0.848c-0.031,0.1-0.066,0.113-0.111-0.127
		c-0.117,2.051-0.516-2.016-0.699-1.762c-0.516,0.014-1.16-0.693-1.926-1.635c-2.715-1.525-4.863-4.236-7.049-6.879
		c-0.777-0.48-7.27-2.287-8.045-2.762c0.322,0.559,0.85,1.18,1.447,1.822c-0.227-0.094-0.027,0.359,0.635,1.367
		c0.135,0.205,0.256,0.422,0.381,0.629c0.102-0.225,0.205-0.449,0.311-0.67c2.949,2.738,7.207,5.719,9.516,7.291
		c0.309,0.217,0.641,0.77,0.988,1.389l-0.104,0.006c0.771,1.52,0.209,0.945,0.926,1.432c0.328,0.527,0.643,0.938,0.971,0.99
		c1.016,2.463,1.92,1.586,2.982,3.582c0.66,2.553,1.217,2.785,1.768,2.783c-0.068-0.516-0.131-1.127-0.191-1.811
		c0-0.043,0-0.094-0.01-0.137c-0.01-0.066-0.035-0.162-0.064-0.289c-0.061-0.285-0.18-0.793-0.352-1.527
		c-0.025-0.111-0.037-0.18-0.068-0.305c-0.029-0.652,0.02-1.041,0.129-1.264c0.479,0.453,0.984,0.924,1.506,1.418
		c-0.008,0.084,0,0.176-0.008,0.256c0.018,1.555-0.004,2.842-0.049,3.791c0.156,0.098,0.313,0.246,0.475,0.508
		c-0.01-0.225-0.014-0.352-0.014-0.414c-0.02-0.412,0.027,0.238,0.051,0.59c0.01,0.193,0.02,0.252,0.018,0.016
		c0-0.035-0.01-0.072-0.008-0.123c0.186,0.418,0.363,0.711,0.541,0.961c0.016,0.006,0.018,0.014,0.025,0.02
		c0.307,0.438,0.621,0.682,0.926,0.84c-0.092,0.143-0.201,0.348-0.313,0.68c0.414-0.027,0.879,1.145,1.291,1.387
		c0.645,0.734,1.287,1.635,1.9,2.4c0.717,0.271,1.195,0.799,1.57,1.457c0.205,0.365,0.375,0.762,0.541,1.182
		c0.77,1.977,1.291,4.27,3.822,4.314c0.115,0.006,0.262-0.016,0.393-0.021c0.221-0.018,0.43-0.023,0.674-0.068
		c0.443,0.363,0.893,0.779,1.35,1.234c0.457,0.457,3.432,0.07,3.9,0.584c0.033,0.273,0.07,0.662,0.113,0.932
		c0.031,0.199,0.064,0.338,0.08,0.277c0.598,0.473,1.209,1.146,1.813,1.824c0.049,0.641,0.061,0.488,0.061,0.07
		c0.391-0.541,0.725-0.625,0.969-0.578c0.113,0.02,0.227,0.066,0.289,0.121c0.73,1.584,1.789,3.75,3.68,5.076
		c1.572,1.104,3.965,1.348,5.07,2.768c0.752,0.973-1.914,0.605-1.48,1.699c1.016,2.557,4.742,6.615,6.525,7.926
		c0.41,0.707,0.805,0.932,1.211,1.297c1.141,0.756,8.428,6.758,9.572,8.094c0.539,0.375,1.143,0.908,1.732,1.471
		c0.768,0.711,1.541,1.465,2.254,1.996c1.275,1.16,2.357,2.1,2.951,3.9c0.217,0.586,0.229,1.584,0.691,1.453
		c0.58-0.16,2.289,2.352,3.832,2.076c1.313-0.236,2.445-3.191,3.283-4.074c0.48-0.502-2.521-2.363-2.563-3.314
		c-0.055-1.094,2.816-1.287,2.816-1.883c-0.01-2.355-5.824-4.262-4.6-4.791c2.52-1.09,5.615,1.605,8.631,5.229
		c0.607,0.729,1.123,2.848,1.73,3.492c2.719,2.895,5.709,3.746,6.418,3.082c1.17-1.084,0.818-2.59-0.033-4.039
		c0.34-0.6,0.713-1.242,1.059-1.832c0.617-1.068,7.201,7.33,8.615,5.604C140.941,191.812,133.5,184.349,134.457,183.862z
		 M68.512,147.702c-0.242-0.586-0.469-1.174-0.705-1.756l0.627-0.027c0.207,0.184,0.432,0.377,0.648,0.563
		C68.895,146.894,68.697,147.296,68.512,147.702z M79.664,126.485c0.045,0.391,0.104,0.789,0.141,1.141
		c0.025,0.268,0.061,0.49,0.08,0.732c-0.488,0.016-0.936,0.023-1.348,0.025c-0.178-0.621-0.35-1.168-0.479-1.615
		C78.607,126.659,79.125,126.567,79.664,126.485z M74.098,120.308c0.002-0.678,2.67,1.387,4.789,2.99
		c-0.229-0.16-0.453-0.328-0.684-0.486C76.889,121.923,75.545,121.075,74.098,120.308z M79.973,146.595
		c-0.037,0-0.055,0-0.098-0.004c0.008,0.068-0.002,0.143,0.008,0.211c-0.037,0.072-0.076,0.152-0.111,0.225
		c-0.621-0.117-1.246-0.24-1.881-0.359c-0.014-0.697-0.018-1.367-0.023-1.98c0.207-0.129,0.613-0.172,1.762-0.639
		c0.07,0.156,0.133,0.316,0.189,0.473c0.021,0.643,0.039,1.316,0.061,2.051c0.039,0.004,0.068,0.004,0.107,0.004
		C79.982,146.579,79.979,146.587,79.973,146.595z M119.51,178.489c-1.965-1.904-3.896-3.723-6.096-5.256
		c-0.617,0.514-1.191,0.996-1.787,1.498c-0.066-1.014-0.125-1.947-0.186-2.936c-0.75-0.748-1.15-1.684-2.094-2.332
		c-1.318-0.902-2.834-0.141-4.199-0.691c0.865-0.193,1.791-0.111,2.68-0.189c-0.398-2.316-0.488-3.41-3.271-3.576
		c3.416-1.674,3.523,2.793,6.256,4.018c0.148,0.068,0.314,0.113,0.461,0.166c0-0.033,0-0.063,0-0.098
		c1.762,0.404,3.248,0.744,5.578,1.273c-0.279,0.229-0.5,0.418-0.762,0.631c0.859,0.508,1.672,1.055,2.438,1.746
		c3.896,3.514,4.045,7.211,7.268,10.811C123.738,181.53,121.816,180.739,119.51,178.489z M129.271,191.222
		c0.012-0.059,0.086-0.195,0.178-0.373C129.445,191.085,129.406,191.249,129.271,191.222z"/>
	<path d="M181.311,130.196l0.801-0.723c3.283,2.037,3.953,2.391,8.98,7.285c0.564,1.619,1.535,3.395,2.529,4.938h60.689
		c2.756,0,4.99-2.234,4.99-4.99v-18.328c0-2.756-2.234-4.99-4.99-4.99h-69.965V84.862h42.791c-0.273-1.631,0.215-2.354,1.449-3.598
		c0.988,1.197,1.977,2.398,2.967,3.598h6.779c-1.137-0.662-0.006,0.121-2.18-1.633c0.766,0.553,1.521,1.092,2.271,1.633h9.541
		c2.756,0,4.99-2.234,4.99-4.99V61.56c0-2.756-2.234-4.99-4.99-4.99h-57.547c0.791,1.086,1.717,2.303,2.861,3.734
		c-0.629-0.162-1.262-0.324-1.887-0.49c-0.813-0.721-1.643-1.467-2.461-2.188c-0.277-0.354-0.555-0.705-0.832-1.057h-3.754v-4.777
		c-2.852-3.631-5.707-7.262-8.559-10.887c2.695,1.889,0.684,0.203,4.904,4.365c-0.785-2.559-0.971-1.754,0.512-2.65
		c1.299,1.801,2.297,3.273,3.143,4.566v-14.76c-1.916-3.82-3.83-7.658-5.863-11.549l0.803-0.723
		c3.271,2.037,3.955,2.391,8.979,7.285c0.117,0.332,0.26,0.67,0.404,1.012h58.389c-0.576-0.805-1.166-1.621-1.746-2.428
		c0.838,0.807,1.686,1.617,2.529,2.428h6.471c2.756,0,4.99-2.234,4.99-4.99V5.134c0-2.756-2.234-4.99-4.99-4.99h-30.01
		c0.15,0.137,0.291,0.266,0.467,0.42L224.5,0.806c-0.266-0.223-0.531-0.439-0.799-0.662h-15.563l-0.088,0.078l-0.068-0.078h-48.451
		c-2.756,0-4.99,2.234-4.99,4.99v86.385c1.139,1.58,2.273,3.156,3.42,4.748c-2.404-0.576-1.629-0.445-2.129,1.918
		c-0.428-0.381-0.859-0.766-1.291-1.152v0.848c0.568,0.445,1.217,0.975,2.088,1.676c0.102,0.641,0.191,1.287,0.289,1.93
		c-0.791-0.803-1.584-1.613-2.377-2.416v4.428c0.813,0.777,1.625,1.557,2.441,2.338l-0.268,0.24
		c-0.449-0.324-0.908-0.654-1.361-0.975c-0.27-0.373-0.541-0.752-0.813-1.129v32.734c0,2.756,2.234,4.99,4.99,4.99h27.617
		C185.238,137.89,183.332,134.069,181.311,130.196z M227.639,71.116l1.109,1.223c0.092,0.645,0.189,1.287,0.285,1.928l-2.193-2.43
		L227.639,71.116z M230.957,76.94c-2.465-0.434-3.508-1.365-7.332-4.391c-2.521-3.627-1.902-3.115-3.307-5.805
		C223.641,68.608,224.777,70.022,230.957,76.94z M219.217,65.521l-0.268,0.24c-1.629-1.451-3.271-2.918-4.902-4.365
		C216.59,62.927,215.611,62.231,219.217,65.521z M213.158,75.39l-0.271,0.244c-0.541-0.244-1.092-0.492-1.623-0.73
		c-0.639-0.893-1.293-1.781-1.924-2.668C211.838,73.919,209.547,72.079,213.158,75.39z M211.883,80.944l-0.795,0.717
		c-1.193-1.145-2.373-2.27-3.543-3.395c-0.932-1.387-1.842-2.754-2.764-4.127C207.145,76.399,209.518,78.671,211.883,80.944z
		 M252.258,21.95l4.375,4.852c-0.91,0.076-1.799,0.152-2.695,0.227l-1.092-1.205c-0.271-0.482-0.551-0.975-0.83-1.457
		C252.092,23.558,252.182,22.772,252.258,21.95z M248.508,23.146c0.094,0.641,0.186,1.285,0.285,1.93
		c-1.91-1.943-3.818-3.885-5.736-5.832C245.193,20.421,245.875,21.032,248.508,23.146z M179.785,37.306
		c0.545,0.965,1.104,1.938,1.65,2.902c-3.328-2.734-2.188-1.574-5.738-5.83L179.785,37.306z M171.826,26.878
		c1.74,2.668,0.629,0.748,1.656,2.904l-2.188-2.424L171.826,26.878z M158.467,14.731l0.531-0.479c1.73,2.666,0.629,0.746,1.656,2.9
		L158.467,14.731z M164.76,103.214c-0.91,0.076-1.799,0.15-2.695,0.227l-1.092-1.207c-0.271-0.482-0.549-0.975-0.83-1.457
		c0.076-0.809,0.166-1.594,0.242-2.414L164.76,103.214z M161.293,124.048l0.531-0.477c1.74,2.666,0.629,0.746,1.652,2.9
		L161.293,124.048z M161.232,121.788c-0.471-1.768-0.943-3.541-1.416-5.318l1.066-0.959l4.363,4.846
		c1.721,4.285,3.322,4.857,9.59,11.174c-0.805-0.006-1.631-0.023-2.43-0.027C168.678,128.265,164.957,125.028,161.232,121.788z
		 M174.121,136.677l0.531-0.48c1.74,2.668,0.629,0.748,1.656,2.904L174.121,136.677z M179.033,123.337l-2.189-2.432
		c0.99,0.564,1.998,1.145,2.992,1.711L179.033,123.337z"/>
	<path d="M377.873,82.532c2.73-0.977,5.357-2.236,7.85-3.768c12.723-7.807,20.326-21.334,20.326-36.182
		c0-14.844-7.604-28.369-20.326-36.18c-6.67-4.096-14.297-6.26-22.047-6.26h-70.297c-0.633,0-1.238,0.129-1.793,0.346
		c0.756,0.703,1.623,1.531,2.727,2.605c1.139,3.264,3.926,7.186,5.242,8.482c3.439,3.471,6.916,6.965,10.373,10.445l-0.529,0.477
		c-0.434,1.848-0.861,3.695-1.287,5.539c-2.621-2.016-5.256-4.045-7.889-6.08c-1.904-1.93-3.824-3.879-5.732-5.818
		c-2.061-3.932-4.033-7.877-6.02-11.838c-0.043,0.271-0.082,0.547-0.082,0.832v14.744c4.91,7.02,5.104,8.791,10.939,16.08
		c-0.629-0.164-1.264-0.324-1.889-0.49c-0.811-0.721-1.643-1.467-2.457-2.188c-2.203-2.799-4.396-5.59-6.594-8.389v111.961
		c0,2.756,2.234,4.99,4.99,4.99c0,0,19.49,0.039,19.754-0.002c0.02,0,0.035,0,0.053,0c1.311,0,2.49-0.516,3.383-1.342l-1.563-1.732
		l0.529-0.477c1.359,2.088,0.988,1.383,1.248,2.004c0.861-0.896,1.393-2.104,1.393-3.445V85.032h28.531l30.932,54.291
		c0.889,1.557,2.543,2.52,4.334,2.52h21.098c1.779,0,3.422-0.945,4.316-2.484c0.891-1.537,0.898-3.434,0.021-4.979L377.873,82.532z
		 M309.545,112.903c-0.816-0.725-1.641-1.467-2.459-2.191c-0.914-1.367-1.832-2.742-2.746-4.119c1.08-1.674,2.965,1.707-0.857-3.621
		c1.457,0.893,2.896,1.781,4.348,2.676c1.281,1.779,2.555,3.549,3.84,5.338C309.268,110.409,310.047,110.538,309.545,112.903z
		 M317.135,57.313c-1.193-1.143-2.369-2.268-3.547-3.395c-0.926-1.387-1.84-2.754-2.758-4.125c2.365,2.26,4.738,4.529,7.102,6.805
		L317.135,57.313z M321.506,62.161l0.797-0.719c0.549,0.963,1.104,1.938,1.656,2.912C323.133,63.622,322.314,62.888,321.506,62.161z
		 M340.191,69.505c-2.01-1.863-4-3.719-6.006-5.584c-1.605-4.479-1.422-5.125,0.449-7.002c0.092,0.113,0.18,0.223,0.277,0.334
		c0.576,0.699,1.15,1.402,1.725,2.102c1.068,1.289,2.131,2.578,3.201,3.877c-1.229,0.463-1.732-1.127,0.025,2.166
		c4.246,5.23,4.631,4.461,9.564,9.002c-1.918-1.234-3.82-2.449-5.719-3.67C342.885,71.601,344.463,73.024,340.191,69.505z
		 M342.201,58.884c0.918,0.66,1.818,1.307,2.717,1.951C342.885,59.604,344.652,60.86,342.201,58.884z M350.648,86.46
		c-1.727-2.092-3.469-4.199-5.195-6.301c0.998,0.57,1.986,1.139,2.98,1.705l2.484,4.355L350.648,86.46z M360.709,72.997
		l-3.281-3.639c1.002,0.57,1.996,1.137,2.986,1.705l1.096,1.213L360.709,72.997z M363.676,56.722h-45.5v-5.775
		c-0.287-0.131-0.58-0.264-0.861-0.389c-0.643-0.893-1.293-1.781-1.926-2.67c2.211,1.486,0.691,0.24,2.787,2.207V28.452h45.5
		c7.76,0,14.07,6.338,14.07,14.131C377.746,50.378,371.436,56.722,363.676,56.722z"/>
	<path d="M517.971,110.103c0.283,0.285,0.59,0.59,0.971,0.961c-0.211-0.674-0.371-1.105-0.479-1.404
		C518.303,109.808,518.143,109.962,517.971,110.103z"/>
	<path d="M552.445,42.583c0-14.844-7.592-28.369-20.301-36.18c-6.691-4.096-14.316-6.26-22.068-6.26h-67.621
		c0.281,0.268,0.584,0.559,0.945,0.9c0.271,0.482,0.545,0.975,0.813,1.439l-3.27-2.34h-1.162c-2.754,0-4.99,2.234-4.99,4.99v10.201
		c0.508,0.287,1.02,0.58,1.521,0.865c0.564,0.982,1.111,1.947,1.658,2.914c-0.902-0.65-1.809-1.291-2.725-1.955
		c-0.148-0.209-0.303-0.424-0.455-0.635v2.449c0.402,0.406,0.904,0.91,1.58,1.578l-0.262,0.238
		c-0.439-0.311-0.881-0.631-1.318-0.941v116.758c0,2.756,2.236,4.99,4.99,4.99h70.295c7.758,0,15.387-2.162,22.063-6.25
		c12.719-7.82,20.307-21.348,20.307-36.184c0-10.48-3.932-20.531-10.932-28.289C548.514,63.106,552.445,53.054,552.445,42.583z
		 M464.602,30.692v-2.24h44.48c7.752,0,14.055,6.338,14.055,14.131c0,7.795-6.303,14.139-14.055,14.139h-11.578l2.674,2.967
		c-0.908,0.074-1.799,0.15-2.695,0.227l-1.092-1.207c-0.27-0.482-0.551-0.975-0.828-1.457c0.02-0.178,0.033-0.354,0.053-0.529
		h-3.465c0.064,0.412,0.127,0.826,0.188,1.238c-0.406-0.412-0.811-0.826-1.219-1.238h-26.518V30.841
		c-0.123-0.104-0.246-0.205-0.371-0.307C464.371,30.597,464.488,30.646,464.602,30.692z M515.252,79.089l-0.799,0.723l-2.191-2.434
		C513.254,77.944,514.26,78.524,515.252,79.089z M492.402,62.31l-0.271,0.238c-0.445-0.324-0.906-0.652-1.359-0.975
		c-0.629-0.877-1.281-1.779-1.92-2.662C490.035,60.038,491.217,61.171,492.402,62.31z M446.846,119.146
		c-1.277-1.066-2.547-2.113-3.807-3.16c2.895,1.299-0.268-0.926,4.072,2.92L446.846,119.146z M452.398,32.388l-0.801,0.719
		l-0.658-0.732c0.506,0.758,1.014,1.518,1.52,2.275l-3.283-3.646l0.291-0.262l-2.234-2.479
		C450.146,29.88,447.879,28.114,452.398,32.388z M448.857,108.521c3.037,2.479,2.682,1.959,5.732,5.832
		C451.266,111.626,452.41,112.786,448.857,108.521z M462.184,138.296l0.795-0.719c1.018,1.303,2.012,2.592,3.035,3.893
		C464.727,140.405,463.463,139.358,462.184,138.296z M463.994,132.272c2.938,1.215,1.074-0.357,6.541,5.115
		c0.535,0.951,1.092,1.926,1.643,2.898C468.496,137.606,467.992,137.081,463.994,132.272z M542.125,112.159l-0.527,0.479
		c-0.434,1.846-0.861,3.693-1.289,5.539c-2.623-2.016-5.256-4.047-7.887-6.08c-1.906-1.93-3.824-3.881-5.732-5.82
		c-1.223-2.326-2.387-4.66-3.557-6.996c-0.029,3.563-1.383,6.807-3.578,9.279c4.758,6.623,5.596,8.916,8.943,13.564l0.512-0.469
		c0.922,1.373,1.84,2.75,2.756,4.123l-3.189-3.541c0.805,1.119,1.754,2.371,2.949,3.857c-0.629-0.162-1.258-0.324-1.883-0.488
		c-0.822-0.723-1.65-1.467-2.465-2.189c-3.332-4.242-6.668-8.48-9.996-12.717c-0.49,0.348-1,0.67-1.531,0.955
		c0.01,0.01,0.018,0.018,0.027,0.027l-0.264,0.238c-0.041-0.029-0.084-0.061-0.125-0.09c-1.875,0.934-3.98,1.471-6.207,1.471h-44.48
		v-28.27h39.836c-2.596-2.256-5.191-4.512-7.785-6.771c-0.471-1.766-0.943-3.541-1.416-5.316l1.064-0.961l4.363,4.848
		c1.402,3.477,2.76,4.557,6.561,8.201h1.857c3.045,0,5.857,0.99,8.162,2.65c-0.174-0.34-0.336-0.674-0.516-1.012l0.805-0.725
		c3.273,2.037,3.951,2.391,8.975,7.287c1.143,3.262,3.928,7.186,5.236,8.482C535.197,105.185,538.67,108.679,542.125,112.159z
		 M496.713,80.522l0.531-0.479c1.734,2.666,0.629,0.746,1.652,2.9L496.713,80.522z"/>
	<path d="M93.738,33.44l0.797-0.719c0.613,0.785,1.223,1.564,1.83,2.346l2.809-3.451c-0.926-0.979-1.973-2.219-3.623-4.199
		c2.164,0.895,1.732,0.285,3.535,2.084c-0.375-1.385-0.74-2.771-1.115-4.16l1.072-0.961l3.162,3.512l18.701-22.965
		c1.707-2.354-0.678-4.914-2.979-4.914H93.43c-2.77,0-5.973,1.121-7.598,3.365l-2.395,2.848c0.623,0.645,1.301,1.484,2.709,3.271
		c-2-1.646-2.387-1.887-3.152-2.746l-5.357,6.367c0.289,0.266,0.619,0.563,1.033,0.93l-0.266,0.242
		c-0.348-0.291-0.689-0.57-1.029-0.857L29.822,69.935V4.991c0-2.756-2.232-4.99-4.99-4.99H4.99C2.232,0.001,0,2.235,0,4.991v79.717
		v31.98v9.205c1.623,1.553,3.246,3.102,4.867,4.658l-0.797,0.717c-1.195-1.143-2.371-2.268-3.551-3.395
		c-0.174-0.26-0.344-0.514-0.52-0.771v9.426c0,2.756,2.238,4.99,4.99,4.99c0,0,19.49,0.039,19.754-0.002c0,0,0.039,0,0.059,0
		c0.072,0,0.139-0.018,0.209-0.023c-1.297-1.203-2.592-2.41-3.889-3.617c-1.613-4.48-1.426-5.125,0.443-7.002
		c1.732,2.102,3.465,4.199,5.199,6.311c-1.227,0.465-1.727-1.125,0.029,2.168c0.363,0.445,0.664,0.797,0.975,1.162
		c1.223-0.91,2.023-2.35,2.023-3.99v-3.148c-0.18-0.148-0.385-0.316-0.662-0.537c0.223,0.16,0.443,0.314,0.662,0.473v-16.492
		L96.1,35.396C95.309,34.745,94.529,34.097,93.738,33.44z M98.545,7.233l4.373,4.852c-0.902,0.074-1.799,0.15-2.695,0.227
		l-1.092-1.207c-0.27-0.482-0.547-0.975-0.822-1.457C98.379,8.839,98.477,8.054,98.545,7.233z M10.764,74.065l4.086,2.926
		c0.549,0.965,1.105,1.938,1.648,2.902C13.174,77.159,14.314,78.319,10.764,74.065z M17.332,83.8
		c-0.662-0.037-1.326-0.07-1.996-0.102c-0.359-1.004-0.213-0.697,0.934-1.393C16.646,82.829,17,83.327,17.332,83.8z M5.869,125.243
		c-0.541-0.244-1.098-0.492-1.621-0.732c-0.646-0.891-1.295-1.781-1.928-2.668c2.502,1.684,0.207-0.156,3.811,3.156L5.869,125.243z
		 M6.893,66.563c1.738,2.67,0.627,0.748,1.656,2.906l-2.188-2.426L6.893,66.563z M8.441,136.116l0.789-0.719
		c0.555,0.963,1.107,1.938,1.658,2.912C10.066,137.577,9.248,136.843,8.441,136.116z M11.926,115.368
		c-1.625-1.449-3.27-2.916-4.902-4.363c2.547,1.529,1.566,0.836,5.17,4.125L11.926,115.368z M10.854,80.591
		c2.365,1.652,1.111,0.57,3.598,3.064c-0.41-0.016-0.818-0.035-1.227-0.051C12.434,82.601,11.646,81.595,10.854,80.591z
		 M25.293,129.604c-0.816-0.725-1.641-1.467-2.459-2.191c-0.334-0.504-0.674-1.014-1.014-1.52c-1.336-0.627-2.645-1.703-5.215-3.736
		c-2.525-3.625-1.906-3.113-3.311-5.805c2.607,1.465,3.906,2.693,7.32,6.488c0.143-0.055,0.279-0.072,0.408-0.063l-1.205-1.332
		l0.422-0.383c-0.279-0.383-0.609-0.828-1.008-1.389c1.455,0.893,2.895,1.781,4.342,2.676c1.291,1.779,2.559,3.547,3.846,5.336
		C25.018,127.112,25.795,127.241,25.293,129.604z M38.414,86.532c-0.428,1.846-0.857,3.693-1.281,5.537
		c-2.441-1.873-4.893-3.762-7.34-5.654v-1.707c0,0-0.74-0.068-1.984-0.172c-1.432-1.453-2.865-2.91-4.293-4.365
		c-3.416-6.486-6.504-12.98-9.967-19.605l0.805-0.725c3.27,2.037,3.953,2.391,8.975,7.287c1.143,3.262,3.93,7.186,5.236,8.482
		c3.453,3.469,6.926,6.963,10.381,10.443L38.414,86.532z M94.791,8.427c0.1,0.641,0.188,1.287,0.289,1.93
		c-1.906-1.941-3.816-3.885-5.736-5.832C91.479,5.702,92.166,6.313,94.791,8.427z M91.596,11.308
		c1.174,1.127,2.363,2.26,3.553,3.398l-0.273,0.238c-0.447-0.324-0.91-0.652-1.359-0.975C92.883,13.093,92.238,12.192,91.596,11.308
		z"/>
</g>
</svg>
