<?xml version="1.0" encoding="utf-8"?>
<!-- Generator: Adobe Illustrator 16.0.0, SVG Export Plug-In . SVG Version: 6.00 Build 0)  -->
<!DOCTYPE svg PUBLIC "-//W3C//DTD SVG 1.1//EN" "http://www.w3.org/Graphics/SVG/1.1/DTD/svg11.dtd">
<svg version="1.1" id="Layer_1" xmlns="http://www.w3.org/2000/svg" xmlns:xlink="http://www.w3.org/1999/xlink" x="0px" y="0px"
	 width="142.336px" height="195.296px" viewBox="0 0 142.336 195.296" enable-background="new 0 0 142.336 195.296"
	 xml:space="preserve">
<g>
	<path fill="#FFFFFF" d="M140.764,129.865c-1.1-1.461-2.547-0.943-4.084-0.402c0.021-1.004,0.037-2.135-0.705-2.936
		c-0.701-0.775-1.855-1-2.764-1.498c-1.766-0.988-3.41-2.367-4.283-4.143c-0.043-0.088-0.102-0.164-0.154-0.252
		c-0.092,0.307-0.178,0.59-0.24,0.809c1.938,3.068,3.936,6.027,5.637,9.148c0.016,0.033,0,0.084,0.016,0.119
		c-0.1-0.135-0.201-0.271-0.301-0.406c0.082,0.682-0.547,1.723-0.805,2.57c-0.449-0.125-0.887-0.246-1.34-0.361
		c-0.133-1.074-0.273-2.145-0.434-3.404c-4.012-0.109-5.859-2.461-5.766-5.877c0.01-0.086,0.031-0.166,0.039-0.252
		c-1.088-0.662-2.213-1.301-3.416-1.844c-0.664-0.293-1.361-0.535-2.047-0.795c0.424,1.314,0.438,2.668,0.307,4.029
		c0.068,1.189-0.025,1.701-0.186,1.756c-0.176,0.064-0.414-0.326-0.717-0.934c-2.758-1.822-1.887-3.734-1.725-4.834
		c-3.387,0.814-3.766-0.873-2.725-2.678c0.205-0.361,0.461-0.717,0.771-1.064c0.447-0.506,0.971-0.988,1.572-1.377
		c0.203-0.133,0.424-0.264,0.648-0.373c0.199,0.039,0.363-0.258,0.594,0.082c0.006-0.266,0.195,1.238,0.137,0.316
		c0.02,0.018,0.035,0.029,0.055,0.037c0.408,0.215,2.547,1.918,4.766,3.719c0.598,1.248,1.564,0.734,2.314,1.822
		c0.068-0.514,0.805-1.898,1.146-2.828c-0.953-1.316-1.979-2.59-2.613-4.061c-0.43-0.988-0.541-2.143-1.207-3.023
		c-0.484-0.645-1.414-1.879-2.111-2.289c-0.805-0.465-0.258,0.26-0.941,0.422c-0.551,0.127-0.877-0.721-1.408,0.012
		c-0.496-0.891-1.145,0.027-1.754,0.172c-0.4-0.836-1.014-1.506-1.379-2.371c-0.273-0.637-0.578-1.539-1.389-1.68
		c-0.625-1.604-2.643-2.246-3.939-3.357c-1.688-1.436-3.213-3.008-4.648-4.672c-2.754-3.205,2.551,0.039-0.205-3.176
		c-1.385-1.615-2.955-3.064-4.57-4.479c-0.801-0.717-1.707-1.279-2.588-1.91c-0.762-0.543-1.99-0.867-2.594-1.541
		c-0.209-0.24-0.248-0.684-0.5-0.879c-0.32-0.234-0.625-0.102-0.984-0.176c-0.879-0.186-1.455-0.967-1.824-1.711
		c-0.225-0.453-0.084-1.053-0.332-1.402c-0.137-0.188-0.678-0.389-0.875-0.561c-0.396-0.34-0.693-0.775-1.063-1.146
		c-0.621-0.652-1.221-1.774-2.008-2.218c-0.406-0.223-0.898-0.234-1.313-0.467c-0.498-0.285-3.666-2.646-4.027-3.08
		c-1.67-2.053-0.633-0.502-2.504-2.41c1.627,1.83-2.865-0.143-2.729,1.857c-0.035-0.104-0.113-0.182-0.16-0.275
		c-0.123,0.217-0.26,0.453-0.453,0.617c-0.469-0.283-0.895-0.686-1.273-1.068c-0.639,1.865,2.369,5.588,2.541,7.505
		c0.059,0.646,0.578,3.354-0.875,2.496c-1.199-0.725-0.195-0.5-1.32-1.379c-0.502-0.393-2.09-1.736-2.611-1.205
		c-0.234,0.242-0.313,1.225-0.396,1.564c-0.189,0.906-1.715-0.041-1.607,0.873c-0.584-0.473-0.156,0.531-0.838,0.162
		c-0.104,0.189,15.709,17.904,6.838,8.4c0.049,1.979-6.508-6.479-5.445-4.717c1.082,1.795-0.463,2.439-2.012,1.441
		c-1.152-0.738-1.082-0.998-1.93-2.018c-0.736,0.527-2.566,0.246-2.861,1.109c-0.332,0.943,0.322,1.342,1.043,1.859
		c0.486,0.354,1.51,1.102,1.105,1.832c-0.375,0.695-1.023,0.064-1.379-0.318c-0.551-0.574,0.107,1.457,1.197,2.656
		c0.834,0.918,1.85,1.652,2.727,2.533c0.873,0.891,1.473,1.895,2.09,2.947c0.709,1.184,1.42,2.277,2.516,3.18
		c0.039-0.029,0.102-0.084,0.146-0.125c0.186,0.795,0.834,1.416,1.418,1.936c0.58,0.52,1.34,1.17,1.994,1.771
		c0.695,0.656,1.324,1.389,2.08,1.988c0.711,0.559,1.809,1.305,1.705,2.299c1.18,1.699,2.988-2.162,3.621-0.191
		c0.48,1.463,0.182,3.094,0.674,4.572c0.424,1.291,1.307,2.307,2.256,3.281c2.369,2.426-2.43-2.785,0.346-0.854
		c2.813,1.951,4.484,4.213,6.395,6.902c1.359,1.928,3.334,3.332,5.279,4.699c0.98,0.689,1.777,1.574,2.787,2.244
		c1.104,0.738,2.217,0.695,3.471,0.363c1.188-0.313,2.605-0.633,3.85-0.625c0.852,0.002,2.115,0.154,2.582,0.926
		c0.619,1.02,0.293,2.725-0.328,3.676c-0.055,0.748-1.645,1.535-2.205,2.061c-0.176-0.369-0.609-0.182-0.684,0.135
		c-0.078,0.316,0.469,0.938,0.629,1.191c0.461,0.725,0.902,1.145,1.584,1.582c0.936,0.604,2.596,1.947,2.578,3.139
		c0.498,0.604,1.283,0.84,1.736,1.529c0.715,1.109,1.193,1.953,2.211,2.881c1.01,0.918,8.252,9.094,9.639,8.75
		c1.918-0.477-3.16-8.248-3.082-8.572c0.408-0.076,6.141,7.703,6.398,7.982c-0.16-0.074-0.313,0.08-0.41,0.33
		c0.918,1.295,2.252,1.912,3.539,2.793c0.648,0.443,1.311,0.883,1.959,1.34c0.492,0.346,1.721,1.633,2.344,1.428
		c-0.74-1.098-1.676-2.107-2.578-3.078c-0.545-0.594-1.334-1.375-1.773-2.186c-1.027-0.863-1.232-1.201-3.721-4.188
		c2.492,2.033,2.727,2.084,4.402,4.16c0.576,0.539,1.137,1.104,1.795,1.467c0.881,0.479,2.25,0.875,3.236,1.057
		c-0.26-1.049-1.072-1.4-1.84-2.094c-1.018-0.914-1.115-1.375-0.666-2.561c0.551-1.441-6.131-8.619-6.574-10.084
		c-0.863-2.91-3.068-5.186-4.748-7.686c-0.861-1.268-1.578-2.578-1.811-4.084c0.963,4.313,6.105,5.09,8.541,8.453
		c0.916,1.266,1.248,2.758,1.551,4.24c2.127-0.469,2.668-1.588,2.229-3.559c-0.283-1.24-1.283-2.895-0.98-4.182
		c0.213-0.879,1.016-0.666,1.861-0.588c-0.928-2.104-2.328-4.012-3.713-5.873c2.451,1.291,5.313,2.75,8.148,3.02
		C142.18,132.296,141.66,131.042,140.764,129.865z M90.816,115.619c2.941,1.627,0.639,0.145,3.82,3.166
		C93.355,117.722,92.096,116.675,90.816,115.619z M102.758,122.435l0.797-0.719l5.477,6.07
		C105.719,126.541,107.361,127.865,102.758,122.435z"/>
	<path fill="#FFFFFF" d="M134.457,183.863c0.953-0.484,1.912-1,1.91-1.418c2.145-1.82-7.527-5.73-7.084-5.854
		c-0.367-0.803-0.707-0.994-1.082-1.104c-1.023-2.072-5.988-5.775-7.201-7.666c-0.252,0.652-0.906,1.303-2.17,1.982
		c-4.484,0.205-1.963-2.184-0.168-4.607c-1.051-1.373-1.895-2.914-2.396-4.734c-0.244-1.178-6.719-6.746-7.158-7.223
		c-0.111-0.123-0.223-0.242-0.342-0.367c-0.361-0.381-0.77-0.838-1.223-1.648c-0.414-0.424-0.85-0.678-1.309-0.893
		c-0.824-0.387-1.672-0.609-2.535-1.287c-1.979-0.68-2.727-0.764-3.367-3.051c-0.363-0.494-0.66-1.715-1.107-2.604
		c-0.242-0.508-0.537-0.91-0.922-1.004c-0.85-1.115-1.461-1.766-2.063-2.592c-0.463-0.625-0.912-1.342-1.463-2.439
		c-0.289,0.342-0.57,0.678-0.832,0.994c-0.191,0.217-0.373,0.432-0.549,0.607c-0.451,0.439-0.879,0.721-1.332,0.676
		c-0.303,1.666-3.127,1.795-3.127,1.795c-0.09-1.967-0.213-3.926-0.523-5.854c-0.064-0.404-0.162-0.801-0.244-1.201
		c-0.277-1.293-0.625-2.576-1.178-3.822c-0.721-0.096-1.352-0.34-2.68-0.895c0.008-0.986,0.002-1.621-0.012-2.068
		c-1.295-1.15-2.641-2.223-4.021-3.254c0.691,0.502,1.164,0.785,1.174,0.631c-0.111-0.355-0.227-0.623-0.355-0.914
		c-1.232-3.004-10.211-9.42-11.973-8.182c-2,1.408-4.074,3.631-5.576,2.318c0.744-0.59,1.379-1.15,1.92-1.684
		c0.082-0.082,0.15-0.16,0.229-0.244c0.439-0.449,0.818-0.887,1.125-1.305c1.082-1.455,1.387-2.713,1.145-3.871
		c-0.406-1.951-2.318-3.641-4.652-5.551c-1.492-1.225-3.131-2.553-4.633-4.102c-0.594-0.607-1.168-1.236-1.693-1.92
		c-0.199,0.221-0.369,0.439-0.541,0.654c-0.225,0.271-0.404,0.541-0.568,0.811c-1.422,2.301-0.828,2.141,1.605,4.275
		c1.826,3.5-5.748-1.893-8.168,0.379c-1.752,2.746,5.998,11.414,5.107,12.041c-1.193,0.828-5.121-5.834-6.193-6.611
		c-1.369-1-2.854-0.148-4.285-1.08c-0.125-0.074-3.244,3.824-1.266,2.891c0.426,0.701,0.865,1.379,1.332,2.037
		c0.422,0.602-0.246,1.57-0.531,2.398c-0.145,0.412-0.197,0.793,0.041,1.072l0.518-0.027c0.283,0.102,0.57,0.205,0.852,0.307
		c1.195,0.432,2.389,0.861,3.584,1.287c-0.377,0.807-0.746,1.621-1.117,2.428c1.17,1.135,2.393,2.258,3.65,3.385
		c0.307,0.277,0.633,0.561,0.947,0.838c0.604,0.531,1.193,1.063,1.816,1.598c0.383,0.508,0.719,1.035,1.045,1.436
		c0.047,0.061,0.105,0.148,0.156,0.203c0.012,0.277,0.027,0.262,0.068,0.154c0-0.023,0.002-0.043,0.029-0.16
		c0.061-0.287,0.125-0.662,0.154-0.01c0.037-0.516,0.115-0.393,0.201-0.059c0.035,0.168,0.08,0.385,0.121,0.592
		c0.047,0.203,0.082,0.398,0.098,0.539c-0.094-0.17-0.143,0.605-0.219,0.848c-0.031,0.1-0.066,0.115-0.111-0.127
		c-0.117,2.053-0.516-2.014-0.699-1.762c-0.516,0.016-1.16-0.691-1.926-1.635c-2.715-1.525-4.863-4.234-7.049-6.879
		c-0.777-0.48-7.27-2.285-8.045-2.762c0.322,0.559,0.85,1.18,1.447,1.824c-0.227-0.096-0.027,0.357,0.635,1.367
		c0.135,0.203,0.256,0.422,0.381,0.629c0.102-0.225,0.205-0.449,0.311-0.672c2.949,2.74,7.207,5.721,9.516,7.291
		c0.309,0.217,0.641,0.771,0.988,1.391l-0.104,0.004c0.771,1.521,0.209,0.945,0.926,1.434c0.328,0.525,0.643,0.938,0.971,0.988
		c1.016,2.465,1.92,1.586,2.982,3.582c0.66,2.555,1.217,2.785,1.768,2.783c-0.068-0.514-0.131-1.125-0.191-1.811
		c0-0.041,0-0.092-0.01-0.137c-0.01-0.064-0.035-0.16-0.064-0.287c-0.061-0.285-0.18-0.795-0.352-1.527
		c-0.025-0.113-0.037-0.182-0.068-0.305c-0.029-0.654,0.02-1.041,0.129-1.266c0.479,0.453,0.984,0.924,1.506,1.418
		c-0.008,0.086,0,0.176-0.008,0.256c0.018,1.555-0.004,2.842-0.049,3.793c0.156,0.098,0.313,0.246,0.475,0.506
		c-0.01-0.225-0.014-0.35-0.014-0.414c-0.02-0.412,0.027,0.238,0.051,0.59c0.01,0.195,0.02,0.254,0.018,0.018
		c0-0.037-0.01-0.074-0.008-0.125c0.186,0.42,0.363,0.713,0.541,0.963c0.016,0.006,0.018,0.012,0.025,0.02
		c0.307,0.436,0.621,0.68,0.926,0.838c-0.092,0.145-0.201,0.35-0.313,0.68c0.414-0.025,0.879,1.146,1.291,1.387
		c0.645,0.736,1.287,1.635,1.9,2.4c0.717,0.273,1.195,0.799,1.57,1.457c0.205,0.365,0.375,0.764,0.541,1.182
		c0.77,1.977,1.291,4.27,3.822,4.316c0.115,0.004,0.262-0.018,0.393-0.021c0.221-0.018,0.43-0.025,0.674-0.068
		c0.443,0.363,0.893,0.779,1.35,1.232c0.457,0.459,3.432,0.07,3.9,0.586c0.033,0.271,0.07,0.662,0.113,0.93
		c0.031,0.199,0.064,0.34,0.08,0.277c0.598,0.473,1.209,1.148,1.813,1.826c0.049,0.641,0.061,0.486,0.061,0.07
		c0.391-0.541,0.725-0.627,0.969-0.58c0.113,0.02,0.227,0.068,0.289,0.121c0.73,1.584,1.789,3.752,3.68,5.076
		c1.572,1.105,3.965,1.348,5.07,2.77c0.752,0.971-1.914,0.604-1.48,1.697c1.016,2.557,4.742,6.617,6.525,7.928
		c0.41,0.707,0.805,0.93,1.211,1.297c1.141,0.754,8.428,6.756,9.572,8.092c0.539,0.375,1.143,0.908,1.732,1.473
		c0.768,0.711,1.541,1.465,2.254,1.996c1.275,1.158,2.357,2.1,2.951,3.9c0.217,0.584,0.229,1.584,0.691,1.453
		c0.58-0.162,2.289,2.352,3.832,2.076c1.313-0.236,2.445-3.193,3.283-4.074c0.48-0.502-2.521-2.365-2.563-3.314
		c-0.055-1.094,2.816-1.287,2.816-1.885c-0.01-2.354-5.824-4.262-4.6-4.791c2.52-1.088,5.615,1.607,8.631,5.23
		c0.607,0.729,1.123,2.846,1.73,3.492c2.719,2.895,5.709,3.744,6.418,3.082c1.17-1.084,0.818-2.59-0.033-4.041
		c0.34-0.6,0.713-1.242,1.059-1.832c0.617-1.066,7.201,7.33,8.615,5.605C140.941,191.812,133.5,184.347,134.457,183.863z
		 M68.512,147.703c-0.242-0.588-0.469-1.174-0.705-1.758l0.627-0.025c0.207,0.182,0.432,0.377,0.648,0.563
		C68.895,146.894,68.697,147.296,68.512,147.703z M79.664,126.486c0.045,0.389,0.104,0.789,0.141,1.141
		c0.025,0.268,0.061,0.488,0.08,0.732c-0.488,0.016-0.936,0.021-1.348,0.025c-0.178-0.623-0.35-1.168-0.479-1.617
		C78.607,126.658,79.125,126.568,79.664,126.486z M74.098,120.308c0.002-0.678,2.67,1.387,4.789,2.99
		c-0.229-0.162-0.453-0.33-0.684-0.488C76.889,121.923,75.545,121.076,74.098,120.308z M79.973,146.593
		c-0.037,0-0.055,0-0.098-0.002c0.008,0.068-0.002,0.141,0.008,0.209c-0.037,0.074-0.076,0.154-0.111,0.225
		c-0.621-0.117-1.246-0.238-1.881-0.357c-0.014-0.697-0.018-1.367-0.023-1.982c0.207-0.129,0.613-0.17,1.762-0.639
		c0.07,0.156,0.133,0.318,0.189,0.473c0.021,0.645,0.039,1.316,0.061,2.053c0.039,0.002,0.068,0.002,0.107,0.002
		C79.982,146.58,79.979,146.587,79.973,146.593z M119.51,178.49c-1.965-1.906-3.896-3.725-6.096-5.256
		c-0.617,0.514-1.191,0.996-1.787,1.498c-0.066-1.014-0.125-1.947-0.186-2.938c-0.75-0.748-1.15-1.684-2.094-2.332
		c-1.318-0.9-2.834-0.141-4.199-0.691c0.865-0.191,1.791-0.109,2.68-0.188c-0.398-2.316-0.488-3.412-3.271-3.576
		c3.416-1.676,3.523,2.791,6.256,4.018c0.148,0.068,0.314,0.111,0.461,0.166c0-0.035,0-0.064,0-0.098
		c1.762,0.404,3.248,0.742,5.578,1.271c-0.279,0.229-0.5,0.42-0.762,0.631c0.859,0.51,1.672,1.055,2.438,1.748
		c3.896,3.514,4.045,7.211,7.268,10.809C123.738,181.531,121.816,180.738,119.51,178.49z M129.271,191.222
		c0.012-0.059,0.086-0.195,0.178-0.373C129.445,191.085,129.406,191.248,129.271,191.222z"/>
	<path fill="#FFFFFF" d="M93.738,33.439l0.797-0.719c0.613,0.785,1.223,1.564,1.83,2.348l2.809-3.453
		c-0.926-0.977-1.973-2.217-3.623-4.199c2.164,0.895,1.732,0.285,3.535,2.084c-0.375-1.385-0.74-2.771-1.115-4.16l1.072-0.959
		l3.162,3.51l18.701-22.963c1.707-2.355-0.678-4.916-2.979-4.916H93.43c-2.77,0-5.973,1.121-7.598,3.365l-2.395,2.85
		c0.623,0.643,1.301,1.482,2.709,3.27c-2-1.645-2.387-1.887-3.152-2.746l-5.357,6.367c0.289,0.266,0.619,0.563,1.033,0.932
		l-0.266,0.24c-0.348-0.289-0.689-0.57-1.029-0.857L29.822,69.934V4.99c0-2.756-2.232-4.99-4.99-4.99H4.99C2.232,0,0,2.234,0,4.99
		v79.718v31.98v9.203c1.623,1.553,3.246,3.104,4.867,4.66l-0.797,0.717c-1.195-1.143-2.371-2.27-3.551-3.395
		c-0.174-0.262-0.344-0.514-0.52-0.773v9.426c0,2.756,2.238,4.99,4.99,4.99c0,0,19.49,0.039,19.754-0.002c0,0,0.039,0,0.059,0
		c0.072,0,0.139-0.018,0.209-0.021c-1.297-1.203-2.592-2.41-3.889-3.619c-1.613-4.479-1.426-5.125,0.443-7
		c1.732,2.1,3.465,4.197,5.199,6.311c-1.227,0.463-1.727-1.125,0.029,2.166c0.363,0.447,0.664,0.797,0.975,1.162
		c1.223-0.908,2.023-2.348,2.023-3.988v-3.148c-0.18-0.148-0.385-0.316-0.662-0.539c0.223,0.162,0.443,0.314,0.662,0.473v-16.492
		L96.1,35.395C95.309,34.744,94.529,34.096,93.738,33.439z M98.545,7.232l4.373,4.852c-0.902,0.076-1.799,0.15-2.695,0.227
		l-1.092-1.207c-0.27-0.482-0.547-0.975-0.822-1.457C98.379,8.838,98.477,8.053,98.545,7.232z M10.764,74.065l4.086,2.926
		c0.549,0.965,1.105,1.938,1.648,2.901C13.174,77.161,14.314,78.319,10.764,74.065z M17.332,83.798
		c-0.662-0.035-1.326-0.07-1.996-0.102c-0.359-1.004-0.213-0.697,0.934-1.391C16.646,82.83,17,83.326,17.332,83.798z M5.869,125.242
		c-0.541-0.242-1.098-0.492-1.621-0.73c-0.646-0.893-1.295-1.781-1.928-2.668c2.502,1.684,0.207-0.156,3.811,3.156L5.869,125.242z
		 M6.893,66.565c1.738,2.668,0.627,0.748,1.656,2.904l-2.188-2.424L6.893,66.565z M8.441,136.115l0.789-0.719
		c0.555,0.963,1.107,1.938,1.658,2.912C10.066,137.578,9.248,136.841,8.441,136.115z M11.926,115.369
		c-1.625-1.451-3.27-2.918-4.902-4.365c2.547,1.531,1.566,0.836,5.17,4.127L11.926,115.369z M10.854,80.589
		c2.365,1.652,1.111,0.57,3.598,3.066c-0.41-0.018-0.818-0.037-1.227-0.051C12.434,82.601,11.646,81.593,10.854,80.589z
		 M25.293,129.605c-0.816-0.725-1.641-1.467-2.459-2.191c-0.334-0.504-0.674-1.014-1.014-1.521
		c-1.336-0.625-2.645-1.703-5.215-3.734c-2.525-3.627-1.906-3.115-3.311-5.805c2.607,1.465,3.906,2.693,7.32,6.486
		c0.143-0.053,0.279-0.07,0.408-0.061l-1.205-1.334l0.422-0.381c-0.279-0.383-0.609-0.83-1.008-1.391
		c1.455,0.893,2.895,1.781,4.342,2.676c1.291,1.779,2.559,3.549,3.846,5.338C25.018,127.111,25.795,127.24,25.293,129.605z
		 M38.414,86.531c-0.428,1.848-0.857,3.693-1.281,5.539c-2.441-1.875-4.893-3.762-7.34-5.656v-1.705c0,0-0.74-0.068-1.984-0.174
		c-1.432-1.451-2.865-2.91-4.293-4.363c-3.416-6.487-6.504-12.981-9.967-19.606l0.805-0.725c3.27,2.037,3.953,2.391,8.975,7.287
		c1.143,3.264,3.93,7.186,5.236,8.482c3.453,3.47,6.926,6.964,10.381,10.442L38.414,86.531z M94.791,8.426
		c0.1,0.641,0.188,1.287,0.289,1.93c-1.906-1.941-3.816-3.883-5.736-5.83C91.479,5.701,92.166,6.314,94.791,8.426z M91.596,11.307
		c1.174,1.129,2.363,2.262,3.553,3.398l-0.273,0.24c-0.447-0.324-0.91-0.654-1.359-0.975C92.883,13.092,92.238,12.191,91.596,11.307
		z"/>
</g>
</svg>
