<?xml version="1.0" encoding="utf-8"?>
<!-- Generator: Adobe Illustrator 16.0.0, SVG Export Plug-In . SVG Version: 6.00 Build 0)  -->
<!DOCTYPE svg PUBLIC "-//W3C//DTD SVG 1.1//EN" "http://www.w3.org/Graphics/SVG/1.1/DTD/svg11.dtd">
<svg version="1.1" id="Layer_1" xmlns="http://www.w3.org/2000/svg" xmlns:xlink="http://www.w3.org/1999/xlink" x="0px" y="0px"
	 width="552.441px" height="195.296px" viewBox="0 0 552.441 195.296" enable-background="new 0 0 552.441 195.296"
	 xml:space="preserve">
<g>
	<path fill="#B8B8B8" d="M140.762,129.865c-1.1-1.462-2.547-0.943-4.084-0.402c0.021-1.004,0.037-2.135-0.705-2.937
		c-0.701-0.774-1.855-0.999-2.764-1.498c-1.766-0.987-3.41-2.367-4.283-4.143c-0.043-0.088-0.102-0.164-0.154-0.252
		c-0.092,0.308-0.178,0.59-0.24,0.81c1.938,3.067,3.936,6.026,5.637,9.147c0.016,0.034,0,0.084,0.016,0.12
		c-0.1-0.135-0.201-0.272-0.301-0.407c0.082,0.682-0.547,1.723-0.805,2.57c-0.449-0.124-0.887-0.246-1.34-0.36
		c-0.133-1.074-0.273-2.145-0.434-3.404c-4.012-0.109-5.859-2.461-5.766-5.878c0.01-0.085,0.031-0.165,0.039-0.251
		c-1.088-0.662-2.213-1.301-3.416-1.845c-0.664-0.292-1.361-0.535-2.047-0.794c0.424,1.313,0.438,2.668,0.307,4.028
		c0.068,1.189-0.025,1.701-0.186,1.757c-0.176,0.063-0.414-0.327-0.717-0.934c-2.758-1.822-1.887-3.735-1.725-4.835
		c-3.387,0.814-3.766-0.872-2.725-2.678c0.205-0.36,0.461-0.717,0.771-1.064c0.447-0.505,0.971-0.987,1.572-1.377
		c0.203-0.132,0.424-0.264,0.648-0.373c0.199,0.039,0.363-0.258,0.594,0.083c0.006-0.266,0.195,1.237,0.137,0.316
		c0.02,0.018,0.035,0.029,0.055,0.037c0.408,0.214,2.547,1.917,4.766,3.718c0.598,1.248,1.564,0.734,2.314,1.823
		c0.068-0.515,0.805-1.898,1.146-2.829c-0.953-1.316-1.979-2.59-2.613-4.06c-0.43-0.989-0.541-2.143-1.207-3.024
		c-0.484-0.644-1.414-1.879-2.111-2.288c-0.805-0.466-0.258,0.259-0.941,0.422c-0.551,0.126-0.877-0.722-1.408,0.012
		c-0.496-0.892-1.145,0.027-1.754,0.171c-0.4-0.836-1.014-1.506-1.379-2.371c-0.273-0.636-0.578-1.538-1.389-1.679
		c-0.625-1.604-2.643-2.247-3.939-3.358c-1.688-1.436-3.213-3.007-4.648-4.671c-2.754-3.205,2.551,0.039-0.205-3.176
		c-1.385-1.615-2.955-3.065-4.57-4.479c-0.801-0.717-1.707-1.279-2.588-1.91c-0.762-0.544-1.99-0.868-2.594-1.541
		c-0.209-0.24-0.248-0.684-0.5-0.879c-0.32-0.234-0.625-0.103-0.984-0.176c-0.879-0.186-1.455-0.967-1.824-1.711
		c-0.225-0.453-0.084-1.053-0.332-1.403c-0.137-0.188-0.678-0.388-0.875-0.561c-0.396-0.339-0.693-0.774-1.063-1.146
		c-0.621-0.652-1.221-1.776-2.008-2.22c-0.406-0.222-0.898-0.233-1.313-0.466c-0.498-0.285-3.666-2.646-4.027-3.08
		c-1.67-2.054-0.633-0.502-2.504-2.41c1.627,1.83-2.865-0.143-2.729,1.857c-0.035-0.104-0.113-0.183-0.16-0.275
		c-0.123,0.217-0.26,0.453-0.453,0.617c-0.469-0.283-0.895-0.686-1.273-1.068c-0.639,1.865,2.369,5.588,2.541,7.506
		c0.059,0.646,0.578,3.354-0.875,2.495c-1.199-0.724-0.195-0.499-1.32-1.379c-0.502-0.393-2.09-1.735-2.611-1.204
		c-0.234,0.241-0.313,1.224-0.396,1.564c-0.189,0.906-1.715-0.041-1.607,0.873c-0.584-0.473-0.156,0.531-0.838,0.162
		c-0.104,0.188,15.709,17.904,6.838,8.4c0.049,1.979-6.508-6.479-5.445-4.718c1.082,1.796-0.463,2.439-2.012,1.442
		c-1.152-0.738-1.082-0.999-1.93-2.018c-0.736,0.526-2.566,0.246-2.861,1.109c-0.332,0.942,0.322,1.342,1.043,1.859
		c0.486,0.353,1.51,1.102,1.105,1.832c-0.375,0.694-1.023,0.063-1.379-0.319c-0.551-0.573,0.107,1.457,1.197,2.656
		c0.834,0.919,1.85,1.652,2.727,2.534c0.873,0.89,1.473,1.894,2.09,2.946c0.709,1.184,1.42,2.278,2.516,3.18
		c0.039-0.029,0.102-0.083,0.146-0.124c0.186,0.794,0.834,1.416,1.418,1.935c0.58,0.52,1.34,1.17,1.994,1.771
		c0.695,0.656,1.324,1.39,2.08,1.988c0.711,0.559,1.809,1.305,1.705,2.299c1.18,1.7,2.988-2.162,3.621-0.19
		c0.48,1.462,0.182,3.093,0.674,4.571c0.424,1.292,1.307,2.308,2.256,3.282c2.369,2.425-2.43-2.785,0.346-0.854
		c2.813,1.951,4.484,4.213,6.395,6.903c1.359,1.927,3.334,3.331,5.279,4.698c0.98,0.689,1.777,1.574,2.787,2.244
		c1.104,0.738,2.217,0.696,3.471,0.363c1.188-0.313,2.605-0.632,3.85-0.624c0.852,0.002,2.115,0.153,2.582,0.926
		c0.619,1.019,0.293,2.725-0.328,3.675c-0.055,0.748-1.645,1.535-2.205,2.062c-0.176-0.37-0.609-0.183-0.684,0.134
		c-0.078,0.316,0.469,0.938,0.629,1.191c0.461,0.725,0.902,1.146,1.584,1.582c0.936,0.604,2.596,1.947,2.578,3.139
		c0.498,0.604,1.283,0.841,1.736,1.53c0.715,1.108,1.193,1.952,2.211,2.88c1.01,0.919,8.252,9.095,9.639,8.751
		c1.918-0.478-3.16-8.249-3.082-8.573c0.408-0.075,6.141,7.703,6.398,7.983c-0.16-0.075-0.313,0.08-0.41,0.329
		c0.918,1.296,2.252,1.913,3.539,2.793c0.648,0.443,1.311,0.884,1.959,1.34c0.492,0.346,1.721,1.633,2.344,1.428
		c-0.74-1.097-1.676-2.107-2.578-3.077c-0.545-0.595-1.334-1.375-1.773-2.187c-1.027-0.862-1.232-1.201-3.721-4.187
		c2.492,2.032,2.727,2.084,4.402,4.16c0.576,0.538,1.137,1.104,1.795,1.467c0.881,0.478,2.25,0.875,3.236,1.056
		c-0.26-1.048-1.072-1.399-1.84-2.094c-1.018-0.914-1.115-1.374-0.666-2.561c0.551-1.44-6.131-8.619-6.574-10.084
		c-0.863-2.91-3.068-5.186-4.748-7.686c-0.861-1.268-1.578-2.578-1.811-4.084c0.963,4.313,6.105,5.09,8.541,8.453
		c0.916,1.267,1.248,2.758,1.551,4.24c2.127-0.469,2.668-1.587,2.229-3.559c-0.283-1.24-1.283-2.895-0.98-4.181
		c0.213-0.88,1.016-0.666,1.861-0.588c-0.928-2.104-2.328-4.013-3.713-5.874c2.451,1.292,5.313,2.75,8.148,3.021
		C142.178,132.297,141.658,131.042,140.762,129.865z M90.814,115.619c2.941,1.626,0.639,0.144,3.82,3.165
		C93.354,117.722,92.094,116.675,90.814,115.619z M102.756,122.435l0.797-0.719l5.477,6.07
		C105.717,126.541,107.359,127.864,102.756,122.435z"/>
	<path fill="#FFFFFF" d="M136.445,126.699c0.033,0.018,0.066,0.037,0.104,0.054c0.088,0.049,0.186,0.1,0.285,0.153
		c-0.125-0.141-0.232-0.258-0.414-0.445c0.006,0.041,0.012,0.114,0.016,0.212C136.436,126.678,136.441,126.694,136.445,126.699z"/>
	<path fill="#FFFFFF" d="M120.834,167.579c0.041,0.073,0.113,0.169,0.164,0.242c0.01-0.013,0.02-0.029,0.033-0.049
		C122.502,169.14,119.822,165.613,120.834,167.579z"/>
	<path fill="#B8B8B8" d="M134.455,183.862c0.953-0.484,1.912-0.999,1.91-1.418c2.145-1.82-7.527-5.729-7.084-5.854
		c-0.367-0.802-0.707-0.994-1.082-1.104c-1.023-2.071-5.988-5.775-7.201-7.666c-0.252,0.652-0.906,1.303-2.17,1.983
		c-4.484,0.204-1.963-2.184-0.168-4.608c-1.051-1.372-1.895-2.914-2.396-4.734c-0.244-1.178-6.719-6.745-7.158-7.223
		c-0.111-0.122-0.223-0.241-0.342-0.366c-0.361-0.382-0.77-0.838-1.223-1.649c-0.414-0.424-0.85-0.678-1.309-0.892
		c-0.824-0.388-1.672-0.609-2.535-1.287c-1.979-0.68-2.727-0.765-3.367-3.051c-0.363-0.495-0.66-1.716-1.107-2.604
		c-0.242-0.507-0.537-0.909-0.922-1.004c-0.85-1.114-1.461-1.765-2.063-2.591c-0.463-0.626-0.912-1.343-1.463-2.439
		c-0.289,0.342-0.57,0.678-0.832,0.994c-0.191,0.217-0.373,0.432-0.549,0.607c-0.451,0.438-0.879,0.721-1.332,0.675
		c-0.303,1.667-3.127,1.796-3.127,1.796c-0.09-1.967-0.213-3.926-0.523-5.854c-0.064-0.404-0.162-0.802-0.244-1.201
		c-0.277-1.294-0.625-2.576-1.178-3.823c-0.721-0.096-1.352-0.339-2.68-0.895c0.008-0.986,0.002-1.62-0.012-2.068
		c-1.295-1.15-2.641-2.223-4.021-3.254c0.691,0.502,1.164,0.785,1.174,0.632c-0.111-0.356-0.227-0.624-0.355-0.914
		c-1.232-3.005-10.211-9.421-11.973-8.183c-2,1.408-4.074,3.631-5.576,2.319c0.744-0.59,1.379-1.15,1.92-1.684
		c0.082-0.083,0.15-0.161,0.229-0.244c0.439-0.45,0.818-0.887,1.125-1.306c1.082-1.455,1.387-2.712,1.145-3.87
		c-0.406-1.951-2.318-3.641-4.652-5.551c-1.492-1.226-3.131-2.554-4.633-4.102c-0.594-0.608-1.168-1.237-1.693-1.92
		c-0.199,0.22-0.369,0.438-0.541,0.653c-0.225,0.272-0.404,0.541-0.568,0.812c-1.422,2.3-0.828,2.14,1.605,4.274
		c1.826,3.501-5.748-1.892-8.168,0.38c-1.752,2.746,5.998,11.414,5.107,12.04c-1.193,0.828-5.121-5.834-6.193-6.611
		c-1.369-0.999-2.854-0.148-4.285-1.079c-0.125-0.075-3.244,3.823-1.266,2.89c0.426,0.702,0.865,1.38,1.332,2.037
		c0.422,0.603-0.246,1.57-0.531,2.398c-0.145,0.412-0.197,0.794,0.041,1.072l0.518-0.027c0.283,0.103,0.57,0.205,0.852,0.308
		c1.195,0.431,2.389,0.86,3.584,1.286c-0.377,0.807-0.746,1.621-1.117,2.428c1.17,1.135,2.393,2.259,3.65,3.385
		c0.307,0.277,0.633,0.561,0.947,0.838c0.604,0.531,1.193,1.063,1.816,1.599c0.383,0.507,0.719,1.035,1.045,1.436
		c0.047,0.061,0.105,0.148,0.156,0.202c0.012,0.277,0.027,0.263,0.068,0.155c0-0.024,0.002-0.044,0.029-0.16
		c0.061-0.288,0.125-0.663,0.154-0.01c0.037-0.517,0.115-0.393,0.201-0.059c0.035,0.168,0.08,0.385,0.121,0.592
		c0.047,0.202,0.082,0.397,0.098,0.539c-0.094-0.171-0.143,0.604-0.219,0.848c-0.031,0.1-0.066,0.114-0.111-0.127
		c-0.117,2.052-0.516-2.015-0.699-1.762c-0.516,0.015-1.16-0.692-1.926-1.635c-2.715-1.525-4.863-4.235-7.049-6.879
		c-0.777-0.48-7.27-2.286-8.045-2.762c0.322,0.559,0.85,1.18,1.447,1.823c-0.227-0.095-0.027,0.358,0.635,1.367
		c0.135,0.204,0.256,0.422,0.381,0.629c0.102-0.225,0.205-0.449,0.311-0.671c2.949,2.739,7.207,5.72,9.516,7.291
		c0.309,0.217,0.641,0.771,0.988,1.39l-0.104,0.005c0.771,1.521,0.209,0.945,0.926,1.433c0.328,0.526,0.643,0.938,0.971,0.989
		c1.016,2.464,1.92,1.586,2.982,3.582c0.66,2.554,1.217,2.785,1.768,2.783c-0.068-0.515-0.131-1.126-0.191-1.811
		c0-0.042,0-0.093-0.01-0.137c-0.01-0.065-0.035-0.161-0.064-0.288c-0.061-0.285-0.18-0.794-0.352-1.527
		c-0.025-0.112-0.037-0.181-0.068-0.305c-0.029-0.653,0.02-1.041,0.129-1.265c0.479,0.453,0.984,0.924,1.506,1.418
		c-0.008,0.085,0,0.176-0.008,0.256c0.018,1.555-0.004,2.842-0.049,3.792c0.156,0.098,0.313,0.246,0.475,0.507
		c-0.01-0.225-0.014-0.351-0.014-0.414c-0.02-0.412,0.027,0.238,0.051,0.59c0.01,0.194,0.02,0.253,0.018,0.017
		c0-0.036-0.01-0.073-0.008-0.124c0.186,0.419,0.363,0.712,0.541,0.962c0.016,0.006,0.018,0.013,0.025,0.02
		c0.307,0.437,0.621,0.681,0.926,0.839c-0.092,0.144-0.201,0.349-0.313,0.68c0.414-0.026,0.879,1.146,1.291,1.387
		c0.645,0.735,1.287,1.635,1.9,2.4c0.717,0.272,1.195,0.799,1.57,1.457c0.205,0.365,0.375,0.763,0.541,1.182
		c0.77,1.977,1.291,4.27,3.822,4.315c0.115,0.005,0.262-0.017,0.393-0.021c0.221-0.018,0.43-0.024,0.674-0.068
		c0.443,0.363,0.893,0.779,1.35,1.233c0.457,0.458,3.432,0.07,3.9,0.585c0.033,0.272,0.07,0.662,0.113,0.931
		c0.031,0.199,0.064,0.339,0.08,0.277c0.598,0.473,1.209,1.147,1.813,1.825c0.049,0.641,0.061,0.487,0.061,0.07
		c0.391-0.541,0.725-0.626,0.969-0.579c0.113,0.02,0.227,0.067,0.289,0.121c0.73,1.584,1.789,3.751,3.68,5.076
		c1.572,1.104,3.965,1.348,5.07,2.769c0.752,0.972-1.914,0.604-1.48,1.698c1.016,2.557,4.742,6.616,6.525,7.927
		c0.41,0.707,0.805,0.931,1.211,1.297c1.141,0.755,8.428,6.757,9.572,8.093c0.539,0.375,1.143,0.908,1.732,1.472
		c0.768,0.711,1.541,1.465,2.254,1.996c1.275,1.159,2.357,2.1,2.951,3.9c0.217,0.585,0.229,1.584,0.691,1.453
		c0.58-0.161,2.289,2.352,3.832,2.076c1.313-0.236,2.445-3.192,3.283-4.074c0.48-0.502-2.521-2.364-2.563-3.314
		c-0.055-1.094,2.816-1.287,2.816-1.884c-0.01-2.354-5.824-4.262-4.6-4.791c2.52-1.089,5.615,1.606,8.631,5.229
		c0.607,0.729,1.123,2.847,1.73,3.492c2.719,2.895,5.709,3.745,6.418,3.082c1.17-1.084,0.818-2.59-0.033-4.04
		c0.34-0.6,0.713-1.242,1.059-1.832c0.617-1.067,7.201,7.33,8.615,5.604C140.939,191.812,133.498,184.348,134.455,183.862z
		 M68.51,147.702c-0.242-0.587-0.469-1.174-0.705-1.757l0.627-0.026c0.207,0.183,0.432,0.377,0.648,0.563
		C68.893,146.894,68.695,147.296,68.51,147.702z M79.662,126.485c0.045,0.39,0.104,0.789,0.141,1.141
		c0.025,0.268,0.061,0.489,0.08,0.732c-0.488,0.016-0.936,0.022-1.348,0.025c-0.178-0.622-0.35-1.168-0.479-1.616
		C78.605,126.658,79.123,126.567,79.662,126.485z M74.096,120.308c0.002-0.678,2.67,1.387,4.789,2.99
		c-0.229-0.161-0.453-0.329-0.684-0.487C76.887,121.923,75.543,121.075,74.096,120.308z M79.971,146.594
		c-0.037,0-0.055,0-0.098-0.003c0.008,0.068-0.002,0.142,0.008,0.21c-0.037,0.073-0.076,0.153-0.111,0.225
		c-0.621-0.117-1.246-0.239-1.881-0.358c-0.014-0.697-0.018-1.367-0.023-1.981c0.207-0.129,0.613-0.171,1.762-0.639
		c0.07,0.156,0.133,0.317,0.189,0.473c0.021,0.644,0.039,1.316,0.061,2.052c0.039,0.003,0.068,0.003,0.107,0.003
		C79.98,146.579,79.977,146.587,79.971,146.594z M119.508,178.489c-1.965-1.905-3.896-3.724-6.096-5.256
		c-0.617,0.514-1.191,0.996-1.787,1.498c-0.066-1.014-0.125-1.947-0.186-2.937c-0.75-0.748-1.15-1.684-2.094-2.332
		c-1.318-0.901-2.834-0.141-4.199-0.691c0.865-0.192,1.791-0.11,2.68-0.188c-0.398-2.316-0.488-3.411-3.271-3.576
		c3.416-1.675,3.523,2.792,6.256,4.018c0.148,0.068,0.314,0.112,0.461,0.166c0-0.034,0-0.063,0-0.098
		c1.762,0.404,3.248,0.743,5.578,1.272c-0.279,0.229-0.5,0.419-0.762,0.631c0.859,0.509,1.672,1.055,2.438,1.747
		c3.896,3.514,4.045,7.211,7.268,10.81C123.736,181.53,121.814,180.738,119.508,178.489z M129.27,191.222
		c0.012-0.059,0.086-0.195,0.178-0.373C129.443,191.085,129.404,191.248,129.27,191.222z"/>
	<path fill="#FFFFFF" d="M181.309,130.196l0.801-0.724c3.283,2.037,3.953,2.391,8.98,7.286c0.564,1.618,1.535,3.395,2.529,4.937
		h60.689c2.756,0,4.99-2.234,4.99-4.99v-18.327c0-2.756-2.234-4.991-4.99-4.991h-69.965V84.861h42.791
		c-0.273-1.63,0.215-2.354,1.449-3.597c0.988,1.196,1.977,2.397,2.967,3.597h6.779c-1.137-0.662-0.006,0.122-2.18-1.633
		c0.766,0.554,1.521,1.092,2.271,1.633h9.541c2.756,0,4.99-2.234,4.99-4.99V61.559c0-2.756-2.234-4.99-4.99-4.99h-57.547
		c0.791,1.086,1.717,2.303,2.861,3.734c-0.629-0.162-1.262-0.323-1.887-0.489c-0.813-0.722-1.643-1.467-2.461-2.188
		c-0.277-0.354-0.555-0.704-0.832-1.057h-3.754v-4.777c-2.852-3.631-5.707-7.262-8.559-10.887c2.695,1.889,0.684,0.204,4.904,4.366
		c-0.785-2.559-0.971-1.755,0.512-2.651c1.299,1.801,2.297,3.273,3.143,4.566v-14.76c-1.916-3.82-3.83-7.658-5.863-11.548
		l0.803-0.724c3.271,2.037,3.955,2.391,8.979,7.286c0.117,0.331,0.26,0.67,0.404,1.011h58.389c-0.576-0.804-1.166-1.62-1.746-2.427
		c0.838,0.807,1.686,1.616,2.529,2.427h6.471c2.756,0,4.99-2.234,4.99-4.99V5.134c0-2.756-2.234-4.991-4.99-4.991h-30.01
		c0.15,0.137,0.291,0.266,0.467,0.42l-0.268,0.243c-0.266-0.224-0.531-0.44-0.799-0.663h-15.563l-0.088,0.078l-0.068-0.078h-48.451
		c-2.756,0-4.99,2.235-4.99,4.991v86.385c1.139,1.58,2.273,3.156,3.42,4.747c-2.404-0.575-1.629-0.445-2.129,1.918
		c-0.428-0.38-0.859-0.765-1.291-1.152v0.848c0.568,0.446,1.217,0.975,2.088,1.677c0.102,0.641,0.191,1.287,0.289,1.93
		c-0.791-0.804-1.584-1.613-2.377-2.417v4.428c0.813,0.777,1.625,1.558,2.441,2.339l-0.268,0.239
		c-0.449-0.324-0.908-0.653-1.361-0.975c-0.27-0.373-0.541-0.751-0.813-1.128v32.733c0,2.756,2.234,4.99,4.99,4.99h27.617
		C185.236,137.89,183.33,134.068,181.309,130.196z M227.637,71.115l1.109,1.224c0.092,0.644,0.189,1.286,0.285,1.928l-2.193-2.43
		L227.637,71.115z M230.955,76.939c-2.465-0.434-3.508-1.364-7.332-4.391c-2.521-3.627-1.902-3.115-3.307-5.805
		C223.639,68.607,224.775,70.021,230.955,76.939z M219.215,65.521l-0.268,0.239c-1.629-1.45-3.271-2.917-4.902-4.365
		C216.588,62.926,215.609,62.23,219.215,65.521z M213.156,75.39l-0.271,0.243c-0.541-0.243-1.092-0.492-1.623-0.73
		c-0.639-0.892-1.293-1.781-1.924-2.668C211.836,73.918,209.545,72.078,213.156,75.39z M211.881,80.943l-0.795,0.717
		c-1.193-1.144-2.373-2.27-3.543-3.395c-0.932-1.387-1.842-2.754-2.764-4.126C207.143,76.398,209.516,78.67,211.881,80.943z
		 M252.256,21.95l4.375,4.852c-0.91,0.075-1.799,0.151-2.695,0.227l-1.092-1.206c-0.271-0.482-0.551-0.975-0.83-1.457
		C252.09,23.557,252.18,22.771,252.256,21.95z M248.506,23.145c0.094,0.641,0.186,1.286,0.285,1.93
		c-1.91-1.942-3.818-3.885-5.736-5.831C245.191,20.42,245.873,21.031,248.506,23.145z M179.783,37.305
		c0.545,0.965,1.104,1.938,1.65,2.902c-3.328-2.734-2.188-1.574-5.738-5.829L179.783,37.305z M171.824,26.877
		c1.74,2.669,0.629,0.748,1.656,2.905l-2.188-2.425L171.824,26.877z M158.465,14.73l0.531-0.479c1.73,2.666,0.629,0.746,1.656,2.9
		L158.465,14.73z M164.758,103.214c-0.91,0.075-1.799,0.15-2.695,0.227l-1.092-1.207c-0.271-0.482-0.549-0.975-0.83-1.457
		c0.076-0.809,0.166-1.594,0.242-2.415L164.758,103.214z M161.291,124.048l0.531-0.478c1.74,2.666,0.629,0.746,1.652,2.9
		L161.291,124.048z M161.23,121.787c-0.471-1.767-0.943-3.541-1.416-5.317l1.066-0.96l4.363,4.847
		c1.721,4.284,3.322,4.856,9.59,11.173c-0.805-0.005-1.631-0.022-2.43-0.026C168.676,128.264,164.955,125.028,161.23,121.787z
		 M174.119,136.676l0.531-0.479c1.74,2.668,0.629,0.748,1.656,2.904L174.119,136.676z M179.031,123.337l-2.189-2.433
		c0.99,0.565,1.998,1.146,2.992,1.711L179.031,123.337z"/>
	<path fill="#FFFFFF" d="M377.871,82.532c2.73-0.978,5.357-2.237,7.85-3.768c12.723-7.808,20.326-21.334,20.326-36.182
		c0-14.845-7.604-28.37-20.326-36.18c-6.67-4.097-14.297-6.261-22.047-6.261h-70.297c-0.633,0-1.238,0.13-1.793,0.347
		c0.756,0.702,1.623,1.53,2.727,2.604c1.139,3.264,3.926,7.187,5.242,8.482c3.439,3.471,6.916,6.965,10.373,10.445l-0.529,0.477
		c-0.434,1.848-0.861,3.695-1.287,5.539c-2.621-2.015-5.256-4.045-7.889-6.08c-1.904-1.93-3.824-3.879-5.732-5.818
		c-2.061-3.931-4.033-7.876-6.02-11.838c-0.043,0.272-0.082,0.548-0.082,0.833v14.743c4.91,7.02,5.104,8.791,10.939,16.08
		c-0.629-0.163-1.264-0.324-1.889-0.49c-0.811-0.721-1.643-1.467-2.457-2.188c-2.203-2.798-4.396-5.59-6.594-8.388v111.96
		c0,2.756,2.234,4.99,4.99,4.99c0,0,19.49,0.039,19.754-0.002c0.02,0,0.035,0,0.053,0c1.311,0,2.49-0.515,3.383-1.341l-1.563-1.732
		l0.529-0.478c1.359,2.088,0.988,1.384,1.248,2.005c0.861-0.896,1.393-2.104,1.393-3.445V85.032h28.531l30.932,54.29
		c0.889,1.557,2.543,2.52,4.334,2.52h21.098c1.779,0,3.422-0.945,4.316-2.483c0.891-1.537,0.898-3.434,0.021-4.979L377.871,82.532z
		 M309.543,112.902c-0.816-0.724-1.641-1.467-2.459-2.19c-0.914-1.367-1.832-2.742-2.746-4.119c1.08-1.674,2.965,1.706-0.857-3.621
		c1.457,0.893,2.896,1.781,4.348,2.676c1.281,1.779,2.555,3.549,3.84,5.337C309.266,110.409,310.045,110.538,309.543,112.902z
		 M317.133,57.313c-1.193-1.144-2.369-2.269-3.547-3.395c-0.926-1.387-1.84-2.754-2.758-4.126c2.365,2.26,4.738,4.53,7.102,6.805
		L317.133,57.313z M321.504,62.16l0.797-0.719c0.549,0.963,1.104,1.938,1.656,2.912C323.131,63.622,322.313,62.887,321.504,62.16z
		 M340.189,69.505c-2.01-1.864-4-3.719-6.006-5.585c-1.605-4.479-1.422-5.125,0.449-7.001c0.092,0.112,0.18,0.222,0.277,0.333
		c0.576,0.7,1.15,1.402,1.725,2.102c1.068,1.289,2.131,2.578,3.201,3.877c-1.229,0.463-1.732-1.126,0.025,2.166
		c4.246,5.231,4.631,4.462,9.564,9.002c-1.918-1.233-3.82-2.449-5.719-3.67C342.883,71.601,344.461,73.023,340.189,69.505z
		 M342.199,58.883c0.918,0.66,1.818,1.307,2.717,1.951C342.883,59.604,344.65,60.859,342.199,58.883z M350.646,86.46
		c-1.727-2.093-3.469-4.2-5.195-6.302c0.998,0.57,1.986,1.139,2.98,1.706l2.484,4.354L350.646,86.46z M360.707,72.997l-3.281-3.639
		c1.002,0.57,1.996,1.136,2.986,1.704l1.096,1.213L360.707,72.997z M363.674,56.721h-45.5v-5.774
		c-0.287-0.132-0.58-0.264-0.861-0.39c-0.643-0.893-1.293-1.781-1.926-2.669c2.211,1.486,0.691,0.239,2.787,2.206V28.451h45.5
		c7.76,0,14.07,6.339,14.07,14.132C377.744,50.378,371.434,56.721,363.674,56.721z"/>
	<path fill="#FFFFFF" d="M517.969,110.103c0.283,0.285,0.59,0.59,0.971,0.96c-0.211-0.673-0.371-1.104-0.479-1.403
		C518.301,109.808,518.141,109.961,517.969,110.103z"/>
	<path fill="#FFFFFF" d="M552.443,42.583c0-14.845-7.592-28.37-20.301-36.18c-6.691-4.097-14.316-6.261-22.068-6.261h-67.621
		c0.281,0.269,0.584,0.559,0.945,0.9c0.271,0.482,0.545,0.975,0.813,1.439l-3.27-2.34h-1.162c-2.754,0-4.99,2.235-4.99,4.991v10.2
		c0.508,0.288,1.02,0.58,1.521,0.865c0.564,0.982,1.111,1.947,1.658,2.914c-0.902-0.65-1.809-1.291-2.725-1.954
		c-0.148-0.209-0.303-0.424-0.455-0.636v2.449c0.402,0.406,0.904,0.911,1.58,1.579l-0.262,0.238
		c-0.439-0.312-0.881-0.631-1.318-0.942v116.758c0,2.756,2.236,4.99,4.99,4.99h70.295c7.758,0,15.387-2.161,22.063-6.25
		c12.719-7.82,20.307-21.347,20.307-36.183c0-10.48-3.932-20.532-10.932-28.289C548.512,63.105,552.443,53.054,552.443,42.583z
		 M464.6,30.691v-2.24h44.48c7.752,0,14.055,6.339,14.055,14.132c0,7.795-6.303,14.138-14.055,14.138h-11.578l2.674,2.967
		c-0.908,0.075-1.799,0.15-2.695,0.227l-1.092-1.207c-0.27-0.482-0.551-0.975-0.828-1.457c0.02-0.178,0.033-0.354,0.053-0.529
		h-3.465c0.064,0.412,0.127,0.826,0.188,1.238c-0.406-0.412-0.811-0.826-1.219-1.238H464.6V30.84
		c-0.123-0.103-0.246-0.205-0.371-0.307C464.369,30.596,464.486,30.645,464.6,30.691z M515.25,79.089l-0.799,0.722l-2.191-2.433
		C513.252,77.943,514.258,78.523,515.25,79.089z M492.4,62.309l-0.271,0.239c-0.445-0.324-0.906-0.653-1.359-0.975
		c-0.629-0.878-1.281-1.779-1.92-2.663C490.033,60.038,491.215,61.171,492.4,62.309z M446.844,119.146
		c-1.277-1.067-2.547-2.113-3.807-3.161c2.895,1.299-0.268-0.926,4.072,2.92L446.844,119.146z M452.396,32.387l-0.801,0.719
		l-0.658-0.732c0.506,0.758,1.014,1.518,1.52,2.275l-3.283-3.646l0.291-0.263l-2.234-2.479
		C450.145,29.88,447.877,28.113,452.396,32.387z M448.855,108.521c3.037,2.479,2.682,1.959,5.732,5.832
		C451.264,111.625,452.408,112.785,448.855,108.521z M462.182,138.296l0.795-0.719c1.018,1.302,2.012,2.591,3.035,3.892
		C464.725,140.404,463.461,139.358,462.182,138.296z M463.992,132.272c2.938,1.214,1.074-0.358,6.541,5.115
		c0.535,0.95,1.092,1.925,1.643,2.897C468.494,137.606,467.99,137.08,463.992,132.272z M542.123,112.159l-0.527,0.478
		c-0.434,1.847-0.861,3.694-1.289,5.539c-2.623-2.016-5.256-4.046-7.887-6.08c-1.906-1.93-3.824-3.88-5.732-5.819
		c-1.223-2.327-2.387-4.661-3.557-6.996c-0.029,3.563-1.383,6.807-3.578,9.279c4.758,6.623,5.596,8.916,8.943,13.563l0.512-0.468
		c0.922,1.372,1.84,2.749,2.756,4.123l-3.189-3.541c0.805,1.119,1.754,2.371,2.949,3.857c-0.629-0.163-1.258-0.324-1.883-0.489
		c-0.822-0.722-1.65-1.467-2.465-2.188c-3.332-4.242-6.668-8.48-9.996-12.718c-0.49,0.349-1,0.67-1.531,0.955
		c0.01,0.01,0.018,0.018,0.027,0.027l-0.264,0.238c-0.041-0.029-0.084-0.061-0.125-0.09c-1.875,0.934-3.98,1.472-6.207,1.472H464.6
		v-28.27h39.836c-2.596-2.257-5.191-4.513-7.785-6.772c-0.471-1.766-0.943-3.54-1.416-5.316l1.064-0.961l4.363,4.848
		c1.402,3.477,2.76,4.557,6.561,8.202h1.857c3.045,0,5.857,0.989,8.162,2.649c-0.174-0.34-0.336-0.673-0.516-1.012l0.805-0.724
		c3.273,2.037,3.951,2.39,8.975,7.286c1.143,3.263,3.928,7.186,5.236,8.482C535.195,105.185,538.668,108.679,542.123,112.159z
		 M496.711,80.521l0.531-0.478c1.734,2.666,0.629,0.746,1.652,2.899L496.711,80.521z"/>
	<path fill="#FFFFFF" d="M93.736,33.439l0.797-0.719c0.613,0.785,1.223,1.564,1.83,2.347l2.809-3.452
		c-0.926-0.978-1.973-2.218-3.623-4.199c2.164,0.895,1.732,0.285,3.535,2.084c-0.375-1.385-0.74-2.771-1.115-4.16l1.072-0.96
		l3.162,3.511l18.701-22.964c1.707-2.354-0.678-4.915-2.979-4.915H93.428c-2.77,0-5.973,1.121-7.598,3.365l-2.395,2.849
		c0.623,0.644,1.301,1.483,2.709,3.271c-2-1.646-2.387-1.887-3.152-2.746l-5.357,6.367c0.289,0.266,0.619,0.563,1.033,0.931
		l-0.266,0.241c-0.348-0.29-0.689-0.57-1.029-0.857L29.82,69.934V4.99c0-2.756-2.232-4.99-4.99-4.99H4.988
		c-2.758,0-4.99,2.234-4.99,4.99v79.718v31.98v9.204c1.623,1.553,3.246,3.103,4.867,4.659l-0.797,0.717
		c-1.195-1.143-2.371-2.269-3.551-3.395c-0.174-0.261-0.344-0.514-0.52-0.772v9.426c0,2.756,2.238,4.99,4.99,4.99
		c0,0,19.49,0.039,19.754-0.002c0,0,0.039,0,0.059,0c0.072,0,0.139-0.018,0.209-0.022c-1.297-1.203-2.592-2.41-3.889-3.618
		c-1.613-4.479-1.426-5.125,0.443-7.001c1.732,2.101,3.465,4.198,5.199,6.311c-1.227,0.464-1.727-1.125,0.029,2.167
		c0.363,0.446,0.664,0.797,0.975,1.162c1.223-0.909,2.023-2.349,2.023-3.989v-3.148c-0.18-0.148-0.385-0.316-0.662-0.538
		c0.223,0.161,0.443,0.314,0.662,0.473v-16.492l66.307-81.424C95.307,34.744,94.527,34.096,93.736,33.439z M98.543,7.232
		l4.373,4.852c-0.902,0.075-1.799,0.15-2.695,0.227l-1.092-1.207c-0.27-0.482-0.547-0.975-0.822-1.457
		C98.377,8.838,98.475,8.053,98.543,7.232z M10.762,74.064l4.086,2.926c0.549,0.965,1.105,1.938,1.648,2.902
		C13.172,77.159,14.313,78.318,10.762,74.064z M17.33,83.799c-0.662-0.036-1.326-0.07-1.996-0.102
		c-0.359-1.004-0.213-0.697,0.934-1.392C16.645,82.829,16.998,83.326,17.33,83.799z M5.867,125.242
		c-0.541-0.243-1.098-0.492-1.621-0.731c-0.646-0.892-1.295-1.781-1.928-2.668c2.502,1.684,0.207-0.156,3.811,3.156L5.867,125.242z
		 M6.891,66.563c1.738,2.669,0.627,0.748,1.656,2.905l-2.188-2.425L6.891,66.563z M8.439,136.115l0.789-0.719
		c0.555,0.963,1.107,1.938,1.658,2.912C10.064,137.577,9.246,136.842,8.439,136.115z M11.924,115.368
		c-1.625-1.45-3.27-2.917-4.902-4.364c2.547,1.53,1.566,0.836,5.17,4.126L11.924,115.368z M10.852,80.59
		c2.365,1.652,1.111,0.57,3.598,3.065c-0.41-0.017-0.818-0.036-1.227-0.051C12.432,82.601,11.645,81.594,10.852,80.59z
		 M25.291,129.604c-0.816-0.725-1.641-1.467-2.459-2.191c-0.334-0.504-0.674-1.014-1.014-1.521
		c-1.336-0.626-2.645-1.703-5.215-3.735c-2.525-3.626-1.906-3.114-3.311-5.805c2.607,1.465,3.906,2.693,7.32,6.487
		c0.143-0.054,0.279-0.071,0.408-0.062l-1.205-1.333l0.422-0.382c-0.279-0.383-0.609-0.829-1.008-1.39
		c1.455,0.893,2.895,1.781,4.342,2.676c1.291,1.779,2.559,3.548,3.846,5.337C25.016,127.111,25.793,127.24,25.291,129.604z
		 M38.412,86.531c-0.428,1.847-0.857,3.693-1.281,5.538c-2.441-1.874-4.893-3.762-7.34-5.655v-1.706c0,0-0.74-0.068-1.984-0.173
		c-1.432-1.452-2.865-2.91-4.293-4.364c-3.416-6.487-6.504-12.981-9.967-19.606l0.805-0.725c3.27,2.037,3.953,2.391,8.975,7.287
		c1.143,3.263,3.93,7.186,5.236,8.482c3.453,3.47,6.926,6.964,10.381,10.443L38.412,86.531z M94.789,8.426
		c0.1,0.641,0.188,1.287,0.289,1.93c-1.906-1.941-3.816-3.884-5.736-5.831C91.477,5.701,92.164,6.313,94.789,8.426z M91.594,11.307
		c1.174,1.128,2.363,2.261,3.553,3.398l-0.273,0.239c-0.447-0.324-0.91-0.653-1.359-0.975
		C92.881,13.092,92.236,12.191,91.594,11.307z"/>
	<polygon fill="#B8B8B8" points="186.779,168.196 183.867,168.196 183.867,189.848 195.607,189.848 195.607,187.12 186.779,187.12 	
		"/>
	<path fill="#B8B8B8" d="M257.734,169.432c-1.684-0.987-3.531-1.479-5.559-1.479c-2.014,0-3.855,0.492-5.531,1.479
		c-1.672,1.001-2.992,2.349-3.953,4.048c-0.965,1.703-1.447,3.572-1.447,5.602c0,1.502,0.283,2.932,0.855,4.294
		c0.563,1.367,1.33,2.544,2.297,3.541c0.961,0.996,2.131,1.783,3.48,2.366c1.355,0.584,2.783,0.875,4.299,0.875
		s2.957-0.291,4.322-0.875c1.359-0.583,2.51-1.37,3.49-2.366c0.959-0.997,1.73-2.174,2.305-3.541
		c0.57-1.362,0.857-2.792,0.857-4.294c0-2.029-0.494-3.898-1.457-5.602C260.744,171.78,259.412,170.433,257.734,169.432z
		 M259.176,183.261c-0.697,1.267-1.664,2.269-2.896,3.002c-1.238,0.733-2.607,1.099-4.104,1.099c-1.482,0-2.834-0.365-4.064-1.099
		c-1.234-0.733-2.193-1.735-2.895-3.002c-0.701-1.272-1.053-2.666-1.053-4.18c0-1.527,0.352-2.922,1.053-4.193
		c0.701-1.274,1.66-2.283,2.895-3.034c1.23-0.74,2.582-1.111,4.064-1.111c1.496,0,2.865,0.371,4.104,1.111
		c1.232,0.751,2.199,1.76,2.896,3.034c0.709,1.271,1.053,2.666,1.053,4.193C260.229,180.595,259.885,181.988,259.176,183.261z"/>
	<polygon fill="#B8B8B8" points="324.428,184.392 314.65,168.196 311.766,168.196 311.766,189.848 314.68,189.848 314.68,173.54 
		324.549,189.848 327.342,189.848 327.342,168.196 324.428,168.196 	"/>
	<path fill="#B8B8B8" d="M392.896,171.335c-0.816-0.979-1.842-1.75-3.08-2.306c-1.248-0.556-2.611-0.833-4.113-0.833h-8.377v21.651
		h8.377c1.502,0,2.865-0.278,4.109-0.816c1.238-0.549,2.262-1.309,3.074-2.274c0.814-0.97,1.453-2.104,1.896-3.411
		c0.447-1.315,0.658-2.739,0.658-4.265c0-1.54-0.211-2.968-0.658-4.296C394.34,173.46,393.705,172.307,392.896,171.335z
		 M392.088,182.252c-0.303,0.975-0.721,1.825-1.281,2.549c-0.551,0.721-1.273,1.299-2.15,1.706
		c-0.875,0.409-1.861,0.613-2.953,0.613h-5.463v-16.192h5.463c1.453,0,2.711,0.368,3.758,1.097c1.043,0.727,1.818,1.703,2.32,2.912
		c0.506,1.219,0.76,2.6,0.76,4.145C392.541,180.22,392.385,181.284,392.088,182.252z"/>
	<path fill="#B8B8B8" d="M462.818,169.432c-1.68-0.987-3.537-1.479-5.555-1.479c-2.006,0-3.861,0.492-5.537,1.479
		c-1.672,1.001-2.994,2.349-3.963,4.048c-0.959,1.703-1.432,3.572-1.432,5.602c0,1.502,0.277,2.932,0.852,4.294
		c0.566,1.367,1.328,2.544,2.297,3.541c0.973,0.996,2.125,1.783,3.484,2.366c1.35,0.584,2.793,0.875,4.299,0.875
		c1.516,0,2.953-0.291,4.311-0.875c1.361-0.583,2.531-1.37,3.492-2.366c0.965-0.997,1.74-2.174,2.309-3.541
		c0.57-1.362,0.854-2.792,0.854-4.294c0-2.029-0.482-3.898-1.438-5.602C465.826,171.78,464.496,170.433,462.818,169.432z
		 M464.26,183.261c-0.697,1.267-1.664,2.269-2.902,3.002c-1.23,0.733-2.594,1.099-4.094,1.099c-1.486,0-2.848-0.365-4.074-1.099
		c-1.229-0.733-2.193-1.735-2.891-3.002c-0.697-1.272-1.049-2.666-1.049-4.18c0-1.527,0.352-2.922,1.049-4.193
		c0.697-1.274,1.662-2.283,2.891-3.034c1.227-0.74,2.588-1.111,4.074-1.111c1.5,0,2.863,0.371,4.094,1.111
		c1.238,0.751,2.205,1.76,2.902,3.034c0.699,1.271,1.049,2.666,1.049,4.193C465.309,180.595,464.959,181.988,464.26,183.261z"/>
	<polygon fill="#B8B8B8" points="529.51,184.392 519.729,168.196 516.838,168.196 516.838,189.848 519.762,189.848 519.762,173.54 
		529.623,189.848 532.422,189.848 532.422,168.196 529.51,168.196 	"/>
</g>
</svg>
