<?xml version="1.0" encoding="utf-8"?>
<!-- Generator: Adobe Illustrator 16.0.0, SVG Export Plug-In . SVG Version: 6.00 Build 0)  -->
<!DOCTYPE svg PUBLIC "-//W3C//DTD SVG 1.1//EN" "http://www.w3.org/Graphics/SVG/1.1/DTD/svg11.dtd">
<svg version="1.1" id="Layer_1" xmlns="http://www.w3.org/2000/svg" xmlns:xlink="http://www.w3.org/1999/xlink" x="0px" y="0px"
	 width="552.444px" height="195.296px" viewBox="0 0 552.444 195.296" enable-background="new 0 0 552.444 195.296"
	 xml:space="preserve">
<g>
	<path fill="#B8B8B8" d="M140.763,129.865c-1.099-1.462-2.546-0.943-4.084-0.402c0.021-1.004,0.037-2.135-0.704-2.937
		c-0.702-0.774-1.856-0.999-2.764-1.498c-1.767-0.987-3.411-2.367-4.284-4.143c-0.043-0.088-0.102-0.164-0.153-0.252
		c-0.093,0.308-0.178,0.59-0.241,0.81c1.938,3.067,3.936,6.026,5.637,9.147c0.017,0.034,0.001,0.084,0.017,0.12
		c-0.101-0.135-0.201-0.272-0.302-0.407c0.083,0.682-0.546,1.723-0.805,2.57c-0.448-0.124-0.887-0.246-1.34-0.36
		c-0.132-1.074-0.272-2.145-0.434-3.404c-4.011-0.109-5.858-2.461-5.766-5.878c0.01-0.085,0.031-0.165,0.039-0.251
		c-1.087-0.662-2.213-1.301-3.416-1.845c-0.663-0.292-1.36-0.535-2.047-0.794c0.424,1.313,0.438,2.668,0.307,4.028
		c0.068,1.189-0.024,1.701-0.186,1.757c-0.175,0.063-0.414-0.327-0.716-0.934c-2.759-1.822-1.887-3.735-1.726-4.835
		c-3.387,0.814-3.765-0.872-2.725-2.678c0.205-0.36,0.461-0.717,0.772-1.064c0.446-0.505,0.97-0.987,1.572-1.377
		c0.202-0.132,0.424-0.264,0.647-0.373c0.2,0.039,0.363-0.258,0.595,0.083c0.005-0.266,0.195,1.237,0.137,0.316
		c0.02,0.018,0.034,0.029,0.054,0.037c0.409,0.214,2.547,1.917,4.767,3.718c0.597,1.248,1.564,0.734,2.314,1.823
		c0.068-0.515,0.805-1.898,1.146-2.829c-0.953-1.316-1.979-2.59-2.612-4.06c-0.431-0.989-0.541-2.143-1.208-3.024
		c-0.483-0.644-1.414-1.879-2.111-2.288c-0.804-0.466-0.258,0.259-0.94,0.422c-0.551,0.126-0.877-0.722-1.408,0.012
		c-0.497-0.892-1.146,0.027-1.755,0.171c-0.399-0.836-1.014-1.506-1.379-2.371c-0.272-0.636-0.577-1.538-1.389-1.679
		c-0.624-1.604-2.642-2.247-3.938-3.358c-1.688-1.436-3.214-3.007-4.649-4.671c-2.753-3.205,2.552,0.039-0.204-3.176
		c-1.385-1.615-2.956-3.065-4.571-4.479c-0.8-0.717-1.706-1.279-2.588-1.91c-0.761-0.544-1.989-0.868-2.594-1.541
		c-0.209-0.24-0.248-0.684-0.499-0.879c-0.321-0.234-0.626-0.103-0.984-0.176c-0.88-0.186-1.455-0.967-1.825-1.711
		c-0.225-0.453-0.083-1.053-0.332-1.403c-0.136-0.188-0.677-0.388-0.874-0.561c-0.397-0.339-0.694-0.774-1.063-1.146
		c-0.622-0.652-1.221-1.776-2.008-2.22c-0.407-0.222-0.899-0.233-1.313-0.466c-0.497-0.285-3.665-2.646-4.026-3.08
		c-1.671-2.054-0.633-0.502-2.505-2.41c1.628,1.83-2.865-0.143-2.729,1.857c-0.035-0.104-0.112-0.183-0.159-0.275
		c-0.124,0.217-0.261,0.453-0.453,0.617c-0.47-0.283-0.895-0.686-1.274-1.068c-0.639,1.865,2.369,5.588,2.542,7.506
		c0.059,0.646,0.577,3.354-0.875,2.495c-1.199-0.724-0.195-0.499-1.321-1.379c-0.502-0.393-2.09-1.735-2.611-1.204
		c-0.234,0.241-0.313,1.224-0.396,1.564c-0.189,0.906-1.716-0.041-1.608,0.873c-0.584-0.473-0.155,0.531-0.838,0.162
		c-0.103,0.188,15.71,17.904,6.838,8.4c0.049,1.979-6.507-6.479-5.444-4.718c1.082,1.796-0.463,2.439-2.013,1.442
		c-1.152-0.738-1.082-0.999-1.93-2.018c-0.736,0.526-2.566,0.246-2.861,1.109c-0.331,0.942,0.322,1.342,1.043,1.859
		c0.487,0.353,1.511,1.102,1.106,1.832c-0.375,0.694-1.023,0.063-1.379-0.319c-0.551-0.573,0.107,1.457,1.196,2.656
		c0.834,0.919,1.85,1.652,2.727,2.534c0.873,0.89,1.473,1.894,2.091,2.946c0.709,1.184,1.419,2.278,2.515,3.18
		c0.039-0.029,0.103-0.083,0.146-0.124c0.186,0.794,0.834,1.416,1.418,1.935c0.58,0.52,1.341,1.17,1.994,1.771
		c0.696,0.656,1.325,1.39,2.081,1.988c0.711,0.559,1.808,1.305,1.705,2.299c1.18,1.7,2.987-2.162,3.621-0.19
		c0.48,1.462,0.181,3.093,0.673,4.571c0.424,1.292,1.307,2.308,2.257,3.282c2.368,2.425-2.43-2.785,0.346-0.854
		c2.813,1.951,4.483,4.213,6.395,6.903c1.359,1.927,3.333,3.331,5.278,4.698c0.981,0.689,1.778,1.574,2.787,2.244
		c1.104,0.738,2.218,0.696,3.471,0.363c1.188-0.313,2.606-0.632,3.85-0.624c0.853,0.002,2.115,0.153,2.583,0.926
		c0.619,1.019,0.292,2.725-0.329,3.675c-0.054,0.748-1.645,1.535-2.205,2.062c-0.176-0.37-0.609-0.183-0.683,0.134
		c-0.078,0.316,0.468,0.938,0.629,1.191c0.461,0.725,0.901,1.146,1.584,1.582c0.936,0.604,2.595,1.947,2.578,3.139
		c0.497,0.604,1.282,0.841,1.735,1.53c0.716,1.108,1.193,1.952,2.212,2.88c1.009,0.919,8.251,9.095,9.638,8.751
		c1.918-0.478-3.16-8.249-3.082-8.573c0.409-0.075,6.141,7.703,6.398,7.983c-0.16-0.075-0.312,0.08-0.409,0.329
		c0.917,1.296,2.252,1.913,3.538,2.793c0.648,0.443,1.312,0.884,1.96,1.34c0.492,0.346,1.72,1.633,2.344,1.428
		c-0.74-1.097-1.677-2.107-2.578-3.077c-0.546-0.595-1.335-1.375-1.774-2.187c-1.027-0.862-1.232-1.201-3.721-4.187
		c2.493,2.032,2.727,2.084,4.403,4.16c0.575,0.538,1.136,1.104,1.794,1.467c0.882,0.478,2.251,0.875,3.236,1.056
		c-0.259-1.048-1.072-1.399-1.84-2.094c-1.017-0.914-1.114-1.374-0.666-2.561c0.551-1.44-6.131-8.619-6.574-10.084
		c-0.862-2.91-3.068-5.186-4.747-7.686c-0.862-1.268-1.579-2.578-1.811-4.084c0.963,4.313,6.104,5.09,8.541,8.453
		c0.916,1.267,1.248,2.758,1.55,4.24c2.128-0.469,2.669-1.587,2.229-3.559c-0.284-1.24-1.284-2.895-0.981-4.181
		c0.214-0.88,1.016-0.666,1.861-0.588c-0.927-2.104-2.327-4.013-3.713-5.874c2.452,1.292,5.313,2.75,8.148,3.021
		C142.179,132.297,141.659,131.042,140.763,129.865z M90.815,115.619c2.941,1.626,0.639,0.144,3.821,3.165
		C93.354,117.722,92.095,116.675,90.815,115.619z M102.758,122.435l0.797-0.719l5.476,6.07
		C105.719,126.541,107.361,127.864,102.758,122.435z"/>
	<path d="M136.447,126.699c0.032,0.018,0.065,0.037,0.103,0.054c0.088,0.049,0.186,0.1,0.285,0.153
		c-0.125-0.141-0.231-0.258-0.414-0.445c0.007,0.041,0.012,0.114,0.017,0.212C136.438,126.678,136.442,126.694,136.447,126.699z"/>
	<path d="M120.835,167.579c0.041,0.073,0.114,0.169,0.165,0.242c0.01-0.013,0.02-0.029,0.032-0.049
		C122.504,169.14,119.823,165.613,120.835,167.579z"/>
	<path fill="#B8B8B8" d="M134.456,183.862c0.953-0.484,1.913-0.999,1.911-1.418c2.144-1.82-7.527-5.729-7.084-5.854
		c-0.368-0.802-0.707-0.994-1.082-1.104c-1.023-2.071-5.989-5.775-7.201-7.666c-0.253,0.652-0.906,1.303-2.171,1.983
		c-4.483,0.204-1.962-2.184-0.168-4.608c-1.051-1.372-1.894-2.914-2.396-4.734c-0.244-1.178-6.719-6.745-7.159-7.223
		c-0.11-0.122-0.222-0.241-0.342-0.366c-0.36-0.382-0.77-0.838-1.223-1.649c-0.414-0.424-0.849-0.678-1.309-0.892
		c-0.824-0.388-1.672-0.609-2.534-1.287c-1.979-0.68-2.728-0.765-3.368-3.051c-0.363-0.495-0.66-1.716-1.106-2.604
		c-0.243-0.507-0.538-0.909-0.923-1.004c-0.849-1.114-1.46-1.765-2.063-2.591c-0.463-0.626-0.911-1.343-1.462-2.439
		c-0.29,0.342-0.57,0.678-0.833,0.994c-0.19,0.217-0.373,0.432-0.549,0.607c-0.45,0.438-0.879,0.721-1.332,0.675
		c-0.303,1.667-3.127,1.796-3.127,1.796c-0.09-1.967-0.212-3.926-0.523-5.854c-0.063-0.404-0.161-0.802-0.244-1.201
		c-0.277-1.294-0.624-2.576-1.177-3.823c-0.722-0.096-1.353-0.339-2.681-0.895c0.008-0.986,0.002-1.62-0.012-2.068
		c-1.295-1.15-2.64-2.223-4.021-3.254c0.692,0.502,1.165,0.785,1.175,0.632c-0.112-0.356-0.227-0.624-0.355-0.914
		c-1.233-3.005-10.211-9.421-11.973-8.183c-2,1.408-4.074,3.631-5.577,2.319c0.745-0.59,1.379-1.15,1.92-1.684
		c0.083-0.083,0.15-0.161,0.229-0.244c0.439-0.45,0.819-0.887,1.126-1.306c1.082-1.455,1.387-2.712,1.144-3.87
		c-0.405-1.951-2.318-3.641-4.652-5.551c-1.491-1.226-3.131-2.554-4.633-4.102c-0.594-0.608-1.167-1.237-1.693-1.92
		c-0.199,0.22-0.368,0.438-0.541,0.653c-0.224,0.272-0.404,0.541-0.567,0.812c-1.423,2.3-0.829,2.14,1.605,4.274
		c1.825,3.501-5.748-1.892-8.168,0.38c-1.752,2.746,5.997,11.414,5.107,12.04c-1.194,0.828-5.122-5.834-6.194-6.611
		c-1.369-0.999-2.854-0.148-4.284-1.079c-0.126-0.075-3.245,3.823-1.267,2.89c0.426,0.702,0.865,1.38,1.333,2.037
		c0.421,0.603-0.246,1.57-0.531,2.398c-0.145,0.412-0.198,0.794,0.041,1.072l0.517-0.027c0.283,0.103,0.57,0.205,0.853,0.308
		c1.194,0.431,2.389,0.86,3.583,1.286c-0.376,0.807-0.746,1.621-1.116,2.428c1.169,1.135,2.393,2.259,3.65,3.385
		c0.307,0.277,0.633,0.561,0.947,0.838c0.603,0.531,1.192,1.063,1.815,1.599c0.383,0.507,0.719,1.035,1.046,1.436
		c0.046,0.061,0.104,0.148,0.155,0.202c0.013,0.277,0.027,0.263,0.068,0.155c0-0.024,0.003-0.044,0.029-0.16
		c0.062-0.288,0.125-0.663,0.154-0.01c0.038-0.517,0.116-0.393,0.202-0.059c0.034,0.168,0.08,0.385,0.121,0.592
		c0.047,0.202,0.081,0.397,0.098,0.539c-0.095-0.171-0.144,0.604-0.219,0.848c-0.032,0.1-0.066,0.114-0.112-0.127
		c-0.117,2.052-0.515-2.015-0.699-1.762c-0.515,0.015-1.16-0.692-1.926-1.635c-2.714-1.525-4.863-4.235-7.049-6.879
		c-0.777-0.48-7.27-2.286-8.045-2.762c0.322,0.559,0.851,1.18,1.448,1.823c-0.227-0.095-0.027,0.358,0.634,1.367
		c0.136,0.204,0.256,0.422,0.382,0.629c0.101-0.225,0.205-0.449,0.31-0.671c2.949,2.739,7.208,5.72,9.516,7.291
		c0.31,0.217,0.642,0.771,0.989,1.39l-0.104,0.005c0.772,1.521,0.21,0.945,0.926,1.433c0.329,0.526,0.644,0.938,0.971,0.989
		c1.016,2.464,1.92,1.586,2.982,3.582c0.66,2.554,1.218,2.785,1.769,2.783c-0.068-0.515-0.132-1.126-0.192-1.811
		c0-0.042,0-0.093-0.01-0.137c-0.01-0.065-0.034-0.161-0.063-0.288c-0.061-0.285-0.18-0.794-0.353-1.527
		c-0.025-0.112-0.037-0.181-0.068-0.305c-0.029-0.653,0.02-1.041,0.129-1.265c0.479,0.453,0.984,0.924,1.506,1.418
		c-0.008,0.085,0,0.176-0.008,0.256c0.018,1.555-0.004,2.842-0.048,3.792c0.155,0.098,0.312,0.246,0.475,0.507
		c-0.01-0.225-0.015-0.351-0.015-0.414c-0.02-0.412,0.027,0.238,0.052,0.59c0.01,0.194,0.019,0.253,0.017,0.017
		c0-0.036-0.01-0.073-0.007-0.124c0.185,0.419,0.362,0.712,0.54,0.962c0.016,0.006,0.018,0.013,0.025,0.02
		c0.307,0.437,0.621,0.681,0.926,0.839c-0.091,0.144-0.2,0.349-0.313,0.68c0.414-0.026,0.88,1.146,1.292,1.387
		c0.644,0.735,1.286,1.635,1.9,2.4c0.717,0.272,1.194,0.799,1.569,1.457c0.205,0.365,0.375,0.763,0.541,1.182
		c0.771,1.977,1.292,4.27,3.823,4.315c0.114,0.005,0.261-0.017,0.393-0.021c0.22-0.018,0.429-0.024,0.673-0.068
		c0.443,0.363,0.894,0.779,1.35,1.233c0.458,0.458,3.432,0.07,3.901,0.585c0.032,0.272,0.07,0.662,0.112,0.931
		c0.031,0.199,0.065,0.339,0.08,0.277c0.598,0.473,1.209,1.147,1.813,1.825c0.049,0.641,0.061,0.487,0.061,0.07
		c0.39-0.541,0.724-0.626,0.968-0.579c0.114,0.02,0.227,0.067,0.29,0.121c0.73,1.584,1.788,3.751,3.679,5.076
		c1.572,1.104,3.965,1.348,5.071,2.769c0.751,0.972-1.915,0.604-1.481,1.698c1.017,2.557,4.742,6.616,6.525,7.927
		c0.41,0.707,0.805,0.931,1.212,1.297c1.14,0.755,8.427,6.757,9.571,8.093c0.539,0.375,1.144,0.908,1.732,1.472
		c0.768,0.711,1.541,1.465,2.255,1.996c1.274,1.159,2.356,2.1,2.95,3.9c0.217,0.585,0.229,1.584,0.692,1.453
		c0.58-0.161,2.288,2.352,3.831,2.076c1.313-0.236,2.446-3.192,3.284-4.074c0.48-0.502-2.521-2.364-2.563-3.314
		c-0.054-1.094,2.817-1.287,2.817-1.884c-0.01-2.354-5.824-4.262-4.601-4.791c2.52-1.089,5.616,1.606,8.631,5.229
		c0.607,0.729,1.123,2.847,1.73,3.492c2.719,2.895,5.709,3.745,6.418,3.082c1.17-1.084,0.819-2.59-0.033-4.04
		c0.341-0.6,0.714-1.242,1.06-1.832c0.616-1.067,7.201,7.33,8.614,5.604C140.94,191.812,133.499,184.348,134.456,183.862z
		 M68.511,147.702c-0.241-0.587-0.468-1.174-0.704-1.757l0.626-0.026c0.208,0.183,0.432,0.377,0.648,0.563
		C68.894,146.894,68.696,147.296,68.511,147.702z M79.664,126.485c0.044,0.39,0.103,0.789,0.14,1.141
		c0.026,0.268,0.061,0.489,0.08,0.732c-0.487,0.016-0.936,0.022-1.348,0.025c-0.178-0.622-0.349-1.168-0.478-1.616
		C78.606,126.658,79.124,126.567,79.664,126.485z M74.097,120.308c0.002-0.678,2.67,1.387,4.79,2.99
		c-0.229-0.161-0.453-0.329-0.685-0.487C76.889,121.923,75.544,121.075,74.097,120.308z M79.972,146.594
		c-0.037,0-0.054,0-0.098-0.003c0.008,0.068-0.002,0.142,0.008,0.21c-0.037,0.073-0.076,0.153-0.11,0.225
		c-0.621-0.117-1.247-0.239-1.881-0.358c-0.015-0.697-0.018-1.367-0.024-1.981c0.207-0.129,0.614-0.171,1.762-0.639
		c0.07,0.156,0.134,0.317,0.19,0.473c0.021,0.644,0.038,1.316,0.061,2.052c0.039,0.003,0.068,0.003,0.107,0.003
		C79.981,146.579,79.979,146.587,79.972,146.594z M119.509,178.489c-1.964-1.905-3.896-3.724-6.095-5.256
		c-0.618,0.514-1.191,0.996-1.788,1.498c-0.066-1.014-0.124-1.947-0.186-2.937c-0.75-0.748-1.15-1.684-2.093-2.332
		c-1.318-0.901-2.834-0.141-4.199-0.691c0.865-0.192,1.791-0.11,2.679-0.188c-0.397-2.316-0.487-3.411-3.271-3.576
		c3.416-1.675,3.523,2.792,6.255,4.018c0.149,0.068,0.314,0.112,0.461,0.166c0-0.034,0-0.063,0-0.098
		c1.762,0.404,3.248,0.743,5.578,1.272c-0.278,0.229-0.5,0.419-0.761,0.631c0.858,0.509,1.672,1.055,2.437,1.747
		c3.896,3.514,4.046,7.211,7.268,10.81C123.737,181.53,121.816,180.738,119.509,178.489z M129.271,191.222
		c0.013-0.059,0.086-0.195,0.178-0.373C129.444,191.085,129.405,191.248,129.271,191.222z"/>
	<path d="M181.31,130.196l0.801-0.724c3.283,2.037,3.953,2.391,8.98,7.286c0.565,1.618,1.535,3.395,2.529,4.937h60.689
		c2.756,0,4.99-2.234,4.99-4.99v-18.327c0-2.756-2.234-4.991-4.99-4.991h-69.964V84.861h42.79c-0.272-1.63,0.215-2.354,1.45-3.597
		c0.987,1.196,1.977,2.397,2.966,3.597h6.779c-1.136-0.662-0.005,0.122-2.179-1.633c0.765,0.554,1.521,1.092,2.271,1.633h9.541
		c2.756,0,4.99-2.234,4.99-4.99V61.559c0-2.756-2.234-4.99-4.99-4.99h-57.546c0.79,1.086,1.716,2.303,2.86,3.734
		c-0.628-0.162-1.262-0.323-1.886-0.489c-0.813-0.722-1.643-1.467-2.461-2.188c-0.278-0.354-0.556-0.704-0.833-1.057h-3.753v-4.777
		c-2.852-3.631-5.707-7.262-8.559-10.887c2.695,1.889,0.683,0.204,4.903,4.366c-0.785-2.559-0.97-1.755,0.512-2.651
		c1.299,1.801,2.298,3.273,3.144,4.566v-14.76c-1.916-3.82-3.831-7.658-5.863-11.548l0.802-0.724
		c3.272,2.037,3.955,2.391,8.979,7.286c0.117,0.331,0.259,0.67,0.404,1.011h58.389c-0.577-0.804-1.167-1.62-1.747-2.427
		c0.839,0.807,1.687,1.616,2.529,2.427h6.471c2.756,0,4.99-2.234,4.99-4.99V5.134c0-2.756-2.234-4.991-4.99-4.991H224.3
		c0.15,0.137,0.292,0.266,0.468,0.42l-0.269,0.243c-0.266-0.224-0.531-0.44-0.799-0.663h-15.562l-0.088,0.078l-0.068-0.078h-48.451
		c-2.756,0-4.99,2.235-4.99,4.991v86.385c1.138,1.58,2.273,3.156,3.419,4.747c-2.403-0.575-1.628-0.445-2.128,1.918
		c-0.429-0.38-0.86-0.765-1.291-1.152v0.848c0.567,0.446,1.216,0.975,2.088,1.677c0.101,0.641,0.19,1.287,0.288,1.93
		c-0.79-0.804-1.584-1.613-2.376-2.417v4.428c0.812,0.777,1.625,1.558,2.441,2.339l-0.269,0.239
		c-0.448-0.324-0.908-0.653-1.361-0.975c-0.269-0.373-0.541-0.751-0.812-1.128v32.733c0,2.756,2.234,4.99,4.99,4.99h27.616
		C185.237,137.89,183.332,134.068,181.31,130.196z M227.638,71.115l1.109,1.224c0.092,0.644,0.189,1.286,0.285,1.928l-2.193-2.43
		L227.638,71.115z M230.957,76.939c-2.466-0.434-3.509-1.364-7.333-4.391c-2.521-3.627-1.902-3.115-3.307-5.805
		C223.64,68.607,224.777,70.021,230.957,76.939z M219.216,65.521l-0.268,0.239c-1.628-1.45-3.271-2.917-4.902-4.365
		C216.59,62.926,215.61,62.23,219.216,65.521z M213.158,75.39l-0.272,0.243c-0.541-0.243-1.092-0.492-1.623-0.73
		c-0.639-0.892-1.292-1.781-1.923-2.668C211.838,73.918,209.547,72.078,213.158,75.39z M211.882,80.943l-0.795,0.717
		c-1.193-1.144-2.373-2.27-3.543-3.395c-0.931-1.387-1.842-2.754-2.764-4.126C207.145,76.398,209.518,78.67,211.882,80.943z
		 M252.257,21.95l4.375,4.852c-0.909,0.075-1.799,0.151-2.695,0.227l-1.092-1.206c-0.271-0.482-0.551-0.975-0.829-1.457
		C252.092,23.557,252.182,22.771,252.257,21.95z M248.507,23.145c0.095,0.641,0.186,1.286,0.285,1.93
		c-1.91-1.942-3.818-3.885-5.736-5.831C245.192,20.42,245.875,21.031,248.507,23.145z M179.784,37.305
		c0.545,0.965,1.104,1.938,1.651,2.902c-3.328-2.734-2.188-1.574-5.738-5.829L179.784,37.305z M171.825,26.877
		c1.74,2.669,0.629,0.748,1.657,2.905l-2.188-2.425L171.825,26.877z M158.467,14.73l0.531-0.479c1.729,2.666,0.628,0.746,1.656,2.9
		L158.467,14.73z M164.759,103.214c-0.909,0.075-1.799,0.15-2.695,0.227l-1.092-1.207c-0.271-0.482-0.549-0.975-0.829-1.457
		c0.076-0.809,0.166-1.594,0.241-2.415L164.759,103.214z M161.293,124.048l0.531-0.478c1.74,2.666,0.629,0.746,1.652,2.9
		L161.293,124.048z M161.232,121.787c-0.471-1.767-0.943-3.541-1.416-5.317l1.065-0.96l4.363,4.847
		c1.721,4.284,3.322,4.856,9.59,11.173c-0.805-0.005-1.631-0.022-2.43-0.026C168.677,128.264,164.956,125.028,161.232,121.787z
		 M174.12,136.676l0.531-0.479c1.74,2.668,0.629,0.748,1.657,2.904L174.12,136.676z M179.033,123.337l-2.19-2.433
		c0.991,0.565,1.998,1.146,2.992,1.711L179.033,123.337z"/>
	<path d="M377.873,82.532c2.729-0.978,5.356-2.237,7.849-3.768c12.723-7.808,20.326-21.334,20.326-36.182
		c0-14.845-7.604-28.37-20.326-36.18c-6.669-4.097-14.297-6.261-22.046-6.261h-70.297c-0.634,0-1.238,0.13-1.794,0.347
		c0.756,0.702,1.623,1.53,2.727,2.604c1.139,3.264,3.926,7.187,5.242,8.482c3.44,3.471,6.916,6.965,10.373,10.445l-0.528,0.477
		c-0.434,1.848-0.862,3.695-1.287,5.539c-2.622-2.015-5.256-4.045-7.89-6.08c-1.903-1.93-3.824-3.879-5.732-5.818
		c-2.061-3.931-4.032-7.876-6.019-11.838c-0.044,0.272-0.083,0.548-0.083,0.833v14.743c4.91,7.02,5.104,8.791,10.939,16.08
		c-0.629-0.163-1.263-0.324-1.889-0.49c-0.81-0.721-1.643-1.467-2.456-2.188c-2.203-2.798-4.396-5.59-6.595-8.388v111.96
		c0,2.756,2.234,4.99,4.991,4.99c0,0,19.489,0.039,19.753-0.002c0.02,0,0.036,0,0.053,0c1.312,0,2.491-0.515,3.383-1.341
		l-1.563-1.732l0.529-0.478c1.359,2.088,0.989,1.384,1.248,2.005c0.862-0.896,1.394-2.104,1.394-3.445V85.032h28.53l30.933,54.29
		c0.888,1.557,2.542,2.52,4.333,2.52h21.098c1.779,0,3.422-0.945,4.316-2.483c0.892-1.537,0.898-3.434,0.021-4.979L377.873,82.532z
		 M309.544,112.902c-0.815-0.724-1.64-1.467-2.458-2.19c-0.914-1.367-1.833-2.742-2.747-4.119c1.08-1.674,2.966,1.706-0.857-3.621
		c1.457,0.893,2.897,1.781,4.348,2.676c1.281,1.779,2.556,3.549,3.84,5.337C309.267,110.409,310.046,110.538,309.544,112.902z
		 M317.135,57.313c-1.193-1.144-2.37-2.269-3.548-3.395c-0.926-1.387-1.84-2.754-2.758-4.126c2.365,2.26,4.739,4.53,7.103,6.805
		L317.135,57.313z M321.505,62.16l0.797-0.719c0.55,0.963,1.104,1.938,1.656,2.912C323.132,63.622,322.313,62.887,321.505,62.16z
		 M340.19,69.505c-2.009-1.864-3.999-3.719-6.005-5.585c-1.605-4.479-1.423-5.125,0.448-7.001c0.093,0.112,0.181,0.222,0.278,0.333
		c0.575,0.7,1.149,1.402,1.725,2.102c1.067,1.289,2.13,2.578,3.2,3.877c-1.229,0.463-1.732-1.126,0.026,2.166
		c4.245,5.231,4.63,4.462,9.564,9.002c-1.918-1.233-3.821-2.449-5.719-3.67C342.885,71.601,344.462,73.023,340.19,69.505z
		 M342.2,58.883c0.919,0.66,1.818,1.307,2.717,1.951C342.885,59.604,344.651,60.859,342.2,58.883z M350.648,86.46
		c-1.728-2.093-3.47-4.2-5.195-6.302c0.997,0.57,1.986,1.139,2.98,1.706l2.483,4.354L350.648,86.46z M360.708,72.997l-3.28-3.639
		c1.002,0.57,1.996,1.136,2.985,1.704l1.097,1.213L360.708,72.997z M363.676,56.721h-45.5v-5.774
		c-0.288-0.132-0.58-0.264-0.862-0.39c-0.642-0.893-1.292-1.781-1.926-2.669c2.211,1.486,0.692,0.239,2.788,2.206V28.451h45.5
		c7.759,0,14.07,6.339,14.07,14.132C377.746,50.378,371.435,56.721,363.676,56.721z"/>
	<path d="M517.971,110.103c0.282,0.285,0.59,0.59,0.97,0.96c-0.21-0.673-0.37-1.104-0.478-1.403
		C518.302,109.808,518.142,109.961,517.971,110.103z"/>
	<path d="M552.444,42.583c0-14.845-7.591-28.37-20.301-36.18c-6.691-4.097-14.316-6.261-22.068-6.261h-67.621
		c0.282,0.269,0.584,0.559,0.945,0.9c0.272,0.482,0.546,0.975,0.813,1.439l-3.271-2.34h-1.162c-2.754,0-4.99,2.235-4.99,4.991v10.2
		c0.509,0.288,1.021,0.58,1.522,0.865c0.563,0.982,1.111,1.947,1.657,2.914c-0.901-0.65-1.808-1.291-2.725-1.954
		c-0.148-0.209-0.302-0.424-0.455-0.636v2.449c0.402,0.406,0.904,0.911,1.581,1.579l-0.263,0.238
		c-0.439-0.312-0.88-0.631-1.318-0.942v116.758c0,2.756,2.236,4.99,4.99,4.99h70.295c7.759,0,15.387-2.161,22.063-6.25
		c12.718-7.82,20.306-21.347,20.306-36.183c0-10.48-3.931-20.532-10.932-28.289C548.514,63.105,552.444,53.054,552.444,42.583z
		 M464.602,30.691v-2.24h44.479c7.752,0,14.056,6.339,14.056,14.132c0,7.795-6.304,14.138-14.056,14.138h-11.577l2.673,2.967
		c-0.908,0.075-1.798,0.15-2.695,0.227l-1.092-1.207c-0.27-0.482-0.55-0.975-0.828-1.457c0.02-0.178,0.034-0.354,0.054-0.529h-3.465
		c0.063,0.412,0.126,0.826,0.188,1.238c-0.407-0.412-0.812-0.826-1.219-1.238h-26.518V30.84c-0.124-0.103-0.246-0.205-0.372-0.307
		C464.37,30.596,464.487,30.645,464.602,30.691z M515.251,79.089l-0.799,0.722l-2.191-2.433
		C513.253,77.943,514.26,78.523,515.251,79.089z M492.401,62.309l-0.271,0.239c-0.446-0.324-0.907-0.653-1.36-0.975
		c-0.628-0.878-1.281-1.779-1.92-2.663C490.035,60.038,491.217,61.171,492.401,62.309z M446.845,119.146
		c-1.277-1.067-2.547-2.113-3.807-3.161c2.896,1.299-0.268-0.926,4.072,2.92L446.845,119.146z M452.398,32.387l-0.802,0.719
		l-0.658-0.732c0.507,0.758,1.014,1.518,1.521,2.275l-3.284-3.646l0.292-0.263l-2.234-2.479
		C450.146,29.88,447.878,28.113,452.398,32.387z M448.857,108.521c3.036,2.479,2.681,1.959,5.731,5.832
		C451.265,111.625,452.41,112.785,448.857,108.521z M462.183,138.296l0.796-0.719c1.017,1.302,2.011,2.591,3.034,3.892
		C464.726,140.404,463.462,139.358,462.183,138.296z M463.993,132.272c2.938,1.214,1.074-0.358,6.542,5.115
		c0.534,0.95,1.092,1.925,1.643,2.897C468.496,137.606,467.991,137.08,463.993,132.272z M542.124,112.159l-0.526,0.478
		c-0.434,1.847-0.862,3.694-1.289,5.539c-2.624-2.016-5.256-4.046-7.888-6.08c-1.905-1.93-3.823-3.88-5.731-5.819
		c-1.223-2.327-2.388-4.661-3.558-6.996c-0.029,3.563-1.382,6.807-3.577,9.279c4.757,6.623,5.595,8.916,8.943,13.563l0.512-0.468
		c0.921,1.372,1.84,2.749,2.756,4.123l-3.189-3.541c0.804,1.119,1.754,2.371,2.948,3.857c-0.629-0.163-1.258-0.324-1.882-0.489
		c-0.823-0.722-1.651-1.467-2.466-2.188c-3.331-4.242-6.667-8.48-9.996-12.718c-0.489,0.349-0.999,0.67-1.53,0.955
		c0.01,0.01,0.018,0.018,0.027,0.027l-0.264,0.238c-0.041-0.029-0.085-0.061-0.126-0.09c-1.874,0.934-3.979,1.472-6.207,1.472
		h-44.479v-28.27h39.835c-2.596-2.257-5.19-4.513-7.785-6.772c-0.471-1.766-0.943-3.54-1.416-5.316l1.064-0.961l4.364,4.848
		c1.401,3.477,2.759,4.557,6.561,8.202h1.856c3.046,0,5.858,0.989,8.163,2.649c-0.175-0.34-0.336-0.673-0.517-1.012l0.805-0.724
		c3.274,2.037,3.952,2.39,8.975,7.286c1.143,3.263,3.928,7.186,5.236,8.482C535.196,105.185,538.669,108.679,542.124,112.159z
		 M496.712,80.521l0.531-0.478c1.734,2.666,0.629,0.746,1.652,2.899L496.712,80.521z"/>
	<path d="M93.737,33.439l0.797-0.719c0.614,0.785,1.223,1.564,1.83,2.347l2.81-3.452c-0.926-0.978-1.974-2.218-3.624-4.199
		c2.164,0.895,1.732,0.285,3.536,2.084c-0.375-1.385-0.741-2.771-1.116-4.16l1.072-0.96l3.163,3.511l18.7-22.964
		c1.708-2.354-0.678-4.915-2.978-4.915H93.43c-2.771,0-5.973,1.121-7.598,3.365l-2.396,2.849c0.624,0.644,1.302,1.483,2.71,3.271
		c-2.001-1.646-2.388-1.887-3.153-2.746l-5.356,6.367c0.288,0.266,0.619,0.563,1.033,0.931l-0.266,0.241
		c-0.349-0.29-0.689-0.57-1.03-0.857L29.821,69.934V4.99c0-2.756-2.231-4.99-4.99-4.99H4.99C2.232,0,0,2.234,0,4.99v79.718v31.98
		v9.204c1.623,1.553,3.246,3.103,4.866,4.659l-0.797,0.717c-1.194-1.143-2.371-2.269-3.551-3.395
		c-0.173-0.261-0.343-0.514-0.519-0.772v9.426c0,2.756,2.237,4.99,4.99,4.99c0,0,19.49,0.039,19.753-0.002c0,0,0.039,0,0.059,0
		c0.073,0,0.139-0.018,0.21-0.022c-1.297-1.203-2.593-2.41-3.89-3.618c-1.613-4.479-1.426-5.125,0.443-7.001
		c1.732,2.101,3.466,4.198,5.2,6.311c-1.228,0.464-1.728-1.125,0.029,2.167c0.363,0.446,0.663,0.797,0.975,1.162
		c1.222-0.909,2.022-2.349,2.022-3.989v-3.148c-0.18-0.148-0.385-0.316-0.662-0.538c0.224,0.161,0.443,0.314,0.662,0.473v-16.492
		l66.307-81.424C95.309,34.744,94.529,34.096,93.737,33.439z M98.545,7.232l4.372,4.852c-0.902,0.075-1.799,0.15-2.695,0.227
		l-1.092-1.207c-0.269-0.482-0.546-0.975-0.821-1.457C98.379,8.838,98.477,8.053,98.545,7.232z M10.764,74.064l4.086,2.926
		c0.549,0.965,1.104,1.938,1.647,2.902C13.173,77.159,14.313,78.318,10.764,74.064z M17.331,83.799
		c-0.661-0.036-1.326-0.07-1.996-0.102c-0.358-1.004-0.212-0.697,0.934-1.392C16.646,82.829,16.999,83.326,17.331,83.799z
		 M5.868,125.242c-0.541-0.243-1.097-0.492-1.621-0.731c-0.646-0.892-1.294-1.781-1.928-2.668c2.503,1.684,0.207-0.156,3.812,3.156
		L5.868,125.242z M6.892,66.563c1.739,2.669,0.628,0.748,1.656,2.905L6.36,67.044L6.892,66.563z M8.441,136.115l0.789-0.719
		c0.554,0.963,1.106,1.938,1.657,2.912C10.066,137.577,9.248,136.842,8.441,136.115z M11.926,115.368
		c-1.625-1.45-3.271-2.917-4.903-4.364c2.547,1.53,1.567,0.836,5.171,4.126L11.926,115.368z M10.854,80.59
		c2.364,1.652,1.111,0.57,3.597,3.065c-0.409-0.017-0.818-0.036-1.226-0.051C12.433,82.601,11.646,81.594,10.854,80.59z
		 M25.292,129.604c-0.816-0.725-1.641-1.467-2.459-2.191c-0.334-0.504-0.673-1.014-1.014-1.521
		c-1.336-0.626-2.645-1.703-5.215-3.735c-2.524-3.626-1.905-3.114-3.31-5.805c2.607,1.465,3.906,2.693,7.32,6.487
		c0.142-0.054,0.278-0.071,0.407-0.062l-1.204-1.333l0.422-0.382c-0.28-0.383-0.609-0.829-1.009-1.39
		c1.455,0.893,2.895,1.781,4.342,2.676c1.292,1.779,2.559,3.548,3.846,5.337C25.017,127.111,25.794,127.24,25.292,129.604z
		 M38.414,86.531c-0.429,1.847-0.858,3.693-1.282,5.538c-2.441-1.874-4.893-3.762-7.34-5.655v-1.706c0,0-0.74-0.068-1.983-0.173
		c-1.433-1.452-2.865-2.91-4.293-4.364c-3.417-6.487-6.504-12.981-9.967-19.606l0.804-0.725c3.271,2.037,3.953,2.391,8.975,7.287
		c1.144,3.263,3.931,7.186,5.237,8.482c3.453,3.47,6.925,6.964,10.381,10.443L38.414,86.531z M94.79,8.426
		c0.1,0.641,0.188,1.287,0.29,1.93c-1.906-1.941-3.816-3.884-5.736-5.831C91.479,5.701,92.165,6.313,94.79,8.426z M91.595,11.307
		c1.175,1.128,2.364,2.261,3.554,3.398l-0.273,0.239c-0.448-0.324-0.911-0.653-1.359-0.975
		C92.882,13.092,92.238,12.191,91.595,11.307z"/>
	<polygon fill="#B8B8B8" points="186.78,168.196 183.868,168.196 183.868,189.848 195.608,189.848 195.608,187.12 186.78,187.12 	
		"/>
	<path fill="#B8B8B8" d="M257.735,169.432c-1.684-0.987-3.531-1.479-5.559-1.479c-2.013,0-3.855,0.492-5.531,1.479
		c-1.672,1.001-2.992,2.349-3.953,4.048c-0.965,1.703-1.447,3.572-1.447,5.602c0,1.502,0.283,2.932,0.855,4.294
		c0.563,1.367,1.33,2.544,2.298,3.541c0.96,0.996,2.13,1.783,3.479,2.366c1.355,0.584,2.783,0.875,4.299,0.875
		s2.958-0.291,4.323-0.875c1.359-0.583,2.51-1.37,3.489-2.366c0.96-0.997,1.73-2.174,2.305-3.541
		c0.57-1.362,0.858-2.792,0.858-4.294c0-2.029-0.495-3.898-1.457-5.602C260.745,171.78,259.414,170.433,257.735,169.432z
		 M259.178,183.261c-0.697,1.267-1.664,2.269-2.897,3.002c-1.238,0.733-2.607,1.099-4.104,1.099c-1.481,0-2.834-0.365-4.064-1.099
		c-1.233-0.733-2.193-1.735-2.895-3.002c-0.7-1.272-1.053-2.666-1.053-4.18c0-1.527,0.353-2.922,1.053-4.193
		c0.701-1.274,1.661-2.283,2.895-3.034c1.23-0.74,2.583-1.111,4.064-1.111c1.496,0,2.865,0.371,4.104,1.111
		c1.233,0.751,2.2,1.76,2.897,3.034c0.709,1.271,1.053,2.666,1.053,4.193C260.23,180.595,259.887,181.988,259.178,183.261z"/>
	<polygon fill="#B8B8B8" points="324.429,184.392 314.652,168.196 311.767,168.196 311.767,189.848 314.682,189.848 314.682,173.54 
		324.551,189.848 327.343,189.848 327.343,168.196 324.429,168.196 	"/>
	<path fill="#B8B8B8" d="M392.898,171.335c-0.816-0.979-1.843-1.75-3.08-2.306c-1.248-0.556-2.612-0.833-4.113-0.833h-8.378v21.651
		h8.378c1.501,0,2.865-0.278,4.108-0.816c1.238-0.549,2.262-1.309,3.075-2.274c0.813-0.97,1.452-2.104,1.896-3.411
		c0.448-1.315,0.658-2.739,0.658-4.265c0-1.54-0.21-2.968-0.658-4.296C394.341,173.46,393.707,172.307,392.898,171.335z
		 M392.089,182.252c-0.302,0.975-0.721,1.825-1.281,2.549c-0.551,0.721-1.272,1.299-2.149,1.706
		c-0.875,0.409-1.861,0.613-2.953,0.613h-5.464v-16.192h5.464c1.452,0,2.71,0.368,3.757,1.097c1.043,0.727,1.818,1.703,2.32,2.912
		c0.507,1.219,0.761,2.6,0.761,4.145C392.543,180.22,392.387,181.284,392.089,182.252z"/>
	<path fill="#B8B8B8" d="M462.82,169.432c-1.681-0.987-3.538-1.479-5.556-1.479c-2.006,0-3.86,0.492-5.536,1.479
		c-1.672,1.001-2.995,2.349-3.963,4.048c-0.96,1.703-1.433,3.572-1.433,5.602c0,1.502,0.277,2.932,0.853,4.294
		c0.565,1.367,1.328,2.544,2.296,3.541c0.973,0.996,2.125,1.783,3.484,2.366c1.351,0.584,2.793,0.875,4.299,0.875
		c1.516,0,2.953-0.291,4.311-0.875c1.362-0.583,2.532-1.37,3.492-2.366c0.965-0.997,1.74-2.174,2.31-3.541
		c0.57-1.362,0.854-2.792,0.854-4.294c0-2.029-0.482-3.898-1.438-5.602C465.827,171.78,464.497,170.433,462.82,169.432z
		 M464.261,183.261c-0.697,1.267-1.664,2.269-2.902,3.002c-1.23,0.733-2.593,1.099-4.094,1.099c-1.486,0-2.847-0.365-4.074-1.099
		c-1.229-0.733-2.193-1.735-2.891-3.002c-0.696-1.272-1.048-2.666-1.048-4.18c0-1.527,0.352-2.922,1.048-4.193
		c0.697-1.274,1.662-2.283,2.891-3.034c1.228-0.74,2.588-1.111,4.074-1.111c1.501,0,2.863,0.371,4.094,1.111
		c1.238,0.751,2.205,1.76,2.902,3.034c0.699,1.271,1.05,2.666,1.05,4.193C465.311,180.595,464.96,181.988,464.261,183.261z"/>
	<polygon fill="#B8B8B8" points="529.512,184.392 519.73,168.196 516.84,168.196 516.84,189.848 519.764,189.848 519.764,173.54 
		529.624,189.848 532.424,189.848 532.424,168.196 529.512,168.196 	"/>
</g>
</svg>
