<?xml version="1.0" encoding="utf-8"?>
<!-- Generator: Adobe Illustrator 16.0.0, SVG Export Plug-In . SVG Version: 6.00 Build 0)  -->
<!DOCTYPE svg PUBLIC "-//W3C//DTD SVG 1.1//EN" "http://www.w3.org/Graphics/SVG/1.1/DTD/svg11.dtd">
<svg version="1.1" id="Layer_1" xmlns="http://www.w3.org/2000/svg" xmlns:xlink="http://www.w3.org/1999/xlink" x="0px" y="0px"
	 width="142.336px" height="195.294px" viewBox="0 0 142.336 195.294" enable-background="new 0 0 142.336 195.294"
	 xml:space="preserve">
<g>
	<path fill="#FFFFFF" d="M140.764,129.865c-1.1-1.462-2.547-0.943-4.084-0.402c0.021-1.004,0.037-2.135-0.705-2.937
		c-0.701-0.774-1.855-0.999-2.764-1.498c-1.766-0.987-3.41-2.367-4.283-4.143c-0.043-0.088-0.102-0.164-0.154-0.252
		c-0.092,0.308-0.178,0.59-0.24,0.81c1.938,3.067,3.936,6.026,5.637,9.147c0.016,0.034,0,0.084,0.016,0.12
		c-0.1-0.135-0.201-0.272-0.301-0.407c0.082,0.682-0.547,1.723-0.805,2.57c-0.449-0.124-0.887-0.246-1.34-0.36
		c-0.133-1.074-0.273-2.145-0.434-3.404c-4.012-0.109-5.859-2.461-5.766-5.878c0.01-0.085,0.031-0.165,0.039-0.251
		c-1.088-0.662-2.213-1.301-3.416-1.845c-0.664-0.292-1.361-0.535-2.047-0.794c0.424,1.313,0.438,2.668,0.307,4.028
		c0.068,1.189-0.025,1.701-0.186,1.757c-0.176,0.063-0.414-0.327-0.717-0.934c-2.758-1.822-1.887-3.735-1.725-4.835
		c-3.387,0.814-3.766-0.872-2.725-2.678c0.205-0.36,0.461-0.717,0.771-1.064c0.447-0.505,0.971-0.987,1.572-1.377
		c0.203-0.132,0.424-0.264,0.648-0.373c0.199,0.039,0.363-0.258,0.594,0.083c0.006-0.266,0.195,1.237,0.137,0.316
		c0.02,0.018,0.035,0.029,0.055,0.037c0.408,0.214,2.547,1.917,4.766,3.718c0.598,1.248,1.564,0.734,2.314,1.823
		c0.068-0.515,0.805-1.898,1.146-2.829c-0.953-1.316-1.979-2.59-2.613-4.06c-0.43-0.989-0.541-2.143-1.207-3.024
		c-0.484-0.644-1.414-1.879-2.111-2.288c-0.805-0.466-0.258,0.259-0.941,0.422c-0.551,0.126-0.877-0.722-1.408,0.012
		c-0.496-0.892-1.145,0.027-1.754,0.171c-0.4-0.836-1.014-1.506-1.379-2.371c-0.273-0.636-0.578-1.538-1.389-1.679
		c-0.625-1.604-2.643-2.247-3.939-3.358c-1.688-1.436-3.213-3.007-4.648-4.671c-2.754-3.205,2.551,0.039-0.205-3.176
		c-1.385-1.615-2.955-3.065-4.57-4.479c-0.801-0.717-1.707-1.279-2.588-1.91c-0.762-0.544-1.99-0.868-2.594-1.541
		c-0.209-0.24-0.248-0.684-0.5-0.879c-0.32-0.234-0.625-0.103-0.984-0.176c-0.879-0.186-1.455-0.967-1.824-1.711
		c-0.225-0.453-0.084-1.053-0.332-1.403c-0.137-0.188-0.678-0.388-0.875-0.561c-0.396-0.339-0.693-0.774-1.063-1.146
		c-0.621-0.652-1.221-1.776-2.008-2.22c-0.406-0.222-0.898-0.233-1.313-0.466c-0.498-0.285-3.666-2.646-4.027-3.08
		c-1.67-2.054-0.633-0.502-2.504-2.41c1.627,1.83-2.865-0.143-2.729,1.857c-0.035-0.104-0.113-0.183-0.16-0.275
		c-0.123,0.217-0.26,0.453-0.453,0.617c-0.469-0.283-0.895-0.686-1.273-1.068c-0.639,1.865,2.369,5.588,2.541,7.506
		c0.059,0.646,0.578,3.354-0.875,2.495c-1.199-0.724-0.195-0.499-1.32-1.379c-0.502-0.393-2.09-1.735-2.611-1.204
		c-0.234,0.241-0.313,1.224-0.396,1.564c-0.189,0.906-1.715-0.041-1.607,0.873c-0.584-0.473-0.156,0.531-0.838,0.162
		c-0.104,0.188,15.709,17.904,6.838,8.4c0.049,1.979-6.508-6.479-5.445-4.718c1.082,1.796-0.463,2.439-2.012,1.442
		c-1.152-0.738-1.082-0.999-1.93-2.018c-0.736,0.526-2.566,0.246-2.861,1.109c-0.332,0.942,0.322,1.342,1.043,1.859
		c0.486,0.353,1.51,1.102,1.105,1.832c-0.375,0.694-1.023,0.063-1.379-0.319c-0.551-0.573,0.107,1.457,1.197,2.656
		c0.834,0.919,1.85,1.652,2.727,2.534c0.873,0.89,1.473,1.894,2.09,2.946c0.709,1.184,1.42,2.278,2.516,3.18
		c0.039-0.029,0.102-0.083,0.146-0.124c0.186,0.794,0.834,1.416,1.418,1.935c0.58,0.52,1.34,1.17,1.994,1.771
		c0.695,0.656,1.324,1.39,2.08,1.988c0.711,0.559,1.809,1.305,1.705,2.299c1.18,1.7,2.988-2.162,3.621-0.19
		c0.48,1.462,0.182,3.093,0.674,4.571c0.424,1.292,1.307,2.308,2.256,3.282c2.369,2.425-2.43-2.785,0.346-0.854
		c2.813,1.951,4.484,4.213,6.395,6.903c1.359,1.927,3.334,3.331,5.279,4.698c0.98,0.689,1.777,1.574,2.787,2.244
		c1.104,0.738,2.217,0.696,3.471,0.363c1.188-0.313,2.605-0.632,3.85-0.624c0.852,0.002,2.115,0.153,2.582,0.926
		c0.619,1.019,0.293,2.725-0.328,3.675c-0.055,0.748-1.645,1.535-2.205,2.062c-0.176-0.37-0.609-0.183-0.684,0.134
		c-0.078,0.316,0.469,0.938,0.629,1.191c0.461,0.725,0.902,1.146,1.584,1.582c0.936,0.604,2.596,1.947,2.578,3.139
		c0.498,0.604,1.283,0.841,1.736,1.53c0.715,1.108,1.193,1.952,2.211,2.88c1.01,0.919,8.252,9.095,9.639,8.751
		c1.918-0.478-3.16-8.249-3.082-8.573c0.408-0.075,6.141,7.703,6.398,7.983c-0.16-0.075-0.313,0.08-0.41,0.329
		c0.918,1.296,2.252,1.913,3.539,2.793c0.648,0.443,1.311,0.884,1.959,1.34c0.492,0.346,1.721,1.633,2.344,1.428
		c-0.74-1.097-1.676-2.107-2.578-3.077c-0.545-0.595-1.334-1.375-1.773-2.187c-1.027-0.862-1.232-1.201-3.721-4.187
		c2.492,2.032,2.727,2.084,4.402,4.16c0.576,0.538,1.137,1.104,1.795,1.467c0.881,0.478,2.25,0.875,3.236,1.056
		c-0.26-1.048-1.072-1.399-1.84-2.094c-1.018-0.914-1.115-1.374-0.666-2.561c0.551-1.44-6.131-8.619-6.574-10.084
		c-0.863-2.91-3.068-5.186-4.748-7.686c-0.861-1.268-1.578-2.578-1.811-4.084c0.963,4.313,6.105,5.09,8.541,8.453
		c0.916,1.267,1.248,2.758,1.551,4.24c2.127-0.469,2.668-1.587,2.229-3.559c-0.283-1.24-1.283-2.895-0.98-4.181
		c0.213-0.88,1.016-0.666,1.861-0.588c-0.928-2.104-2.328-4.013-3.713-5.874c2.451,1.292,5.313,2.75,8.148,3.021
		C142.18,132.296,141.66,131.042,140.764,129.865z M90.816,115.619c2.941,1.626,0.639,0.144,3.82,3.165
		C93.355,117.721,92.096,116.674,90.816,115.619z M102.758,122.434l0.797-0.719l5.477,6.07
		C105.719,126.541,107.361,127.864,102.758,122.434z"/>
	<path fill="#FFFFFF" d="M134.457,183.862c0.953-0.484,1.912-0.999,1.91-1.418c2.145-1.82-7.527-5.729-7.084-5.854
		c-0.367-0.802-0.707-0.994-1.082-1.104c-1.023-2.071-5.988-5.775-7.201-7.666c-0.252,0.652-0.906,1.303-2.17,1.983
		c-4.484,0.204-1.963-2.184-0.168-4.608c-1.051-1.372-1.895-2.914-2.396-4.734c-0.244-1.178-6.719-6.745-7.158-7.223
		c-0.111-0.122-0.223-0.241-0.342-0.366c-0.361-0.382-0.77-0.838-1.223-1.649c-0.414-0.424-0.85-0.678-1.309-0.892
		c-0.824-0.388-1.672-0.609-2.535-1.287c-1.979-0.68-2.727-0.765-3.367-3.051c-0.363-0.495-0.66-1.716-1.107-2.604
		c-0.242-0.507-0.537-0.909-0.922-1.004c-0.85-1.114-1.461-1.765-2.063-2.591c-0.463-0.626-0.912-1.343-1.463-2.439
		c-0.289,0.342-0.57,0.678-0.832,0.994c-0.191,0.217-0.373,0.432-0.549,0.607c-0.451,0.438-0.879,0.721-1.332,0.675
		c-0.303,1.667-3.127,1.796-3.127,1.796c-0.09-1.967-0.213-3.926-0.523-5.854c-0.064-0.404-0.162-0.802-0.244-1.201
		c-0.277-1.294-0.625-2.576-1.178-3.823c-0.721-0.096-1.352-0.339-2.68-0.895c0.008-0.986,0.002-1.62-0.012-2.068
		c-1.295-1.15-2.641-2.223-4.021-3.254c0.691,0.502,1.164,0.785,1.174,0.632c-0.111-0.356-0.227-0.624-0.355-0.914
		c-1.232-3.005-10.211-9.421-11.973-8.183c-2,1.408-4.074,3.631-5.576,2.319c0.744-0.59,1.379-1.15,1.92-1.684
		c0.082-0.083,0.15-0.161,0.229-0.244c0.439-0.45,0.818-0.887,1.125-1.306c1.082-1.455,1.387-2.712,1.145-3.87
		c-0.406-1.951-2.318-3.641-4.652-5.551c-1.492-1.226-3.131-2.554-4.633-4.102c-0.594-0.608-1.168-1.237-1.693-1.92
		c-0.199,0.22-0.369,0.438-0.541,0.653c-0.225,0.272-0.404,0.541-0.568,0.812c-1.422,2.3-0.828,2.14,1.605,4.274
		c1.826,3.501-5.748-1.892-8.168,0.38c-1.752,2.746,5.998,11.414,5.107,12.04c-1.193,0.828-5.121-5.834-6.193-6.611
		c-1.369-0.999-2.854-0.148-4.285-1.079c-0.125-0.075-3.244,3.823-1.266,2.89c0.426,0.702,0.865,1.38,1.332,2.037
		c0.422,0.603-0.246,1.57-0.531,2.398c-0.145,0.412-0.197,0.794,0.041,1.072l0.518-0.027c0.283,0.103,0.57,0.205,0.852,0.308
		c1.195,0.431,2.389,0.86,3.584,1.286c-0.377,0.807-0.746,1.621-1.117,2.428c1.17,1.135,2.393,2.259,3.65,3.385
		c0.307,0.277,0.633,0.561,0.947,0.838c0.604,0.531,1.193,1.063,1.816,1.599c0.383,0.507,0.719,1.035,1.045,1.436
		c0.047,0.061,0.105,0.148,0.156,0.202c0.012,0.277,0.027,0.263,0.068,0.155c0-0.024,0.002-0.044,0.029-0.16
		c0.061-0.288,0.125-0.663,0.154-0.01c0.037-0.517,0.115-0.393,0.201-0.059c0.035,0.168,0.08,0.385,0.121,0.592
		c0.047,0.202,0.082,0.397,0.098,0.539c-0.094-0.171-0.143,0.604-0.219,0.848c-0.031,0.1-0.066,0.114-0.111-0.127
		c-0.117,2.052-0.516-2.015-0.699-1.762c-0.516,0.015-1.16-0.692-1.926-1.635c-2.715-1.525-4.863-4.235-7.049-6.879
		c-0.777-0.48-7.27-2.286-8.045-2.762c0.322,0.559,0.85,1.18,1.447,1.823c-0.227-0.095-0.027,0.358,0.635,1.367
		c0.135,0.204,0.256,0.422,0.381,0.629c0.102-0.225,0.205-0.449,0.311-0.671c2.949,2.739,7.207,5.72,9.516,7.291
		c0.309,0.217,0.641,0.771,0.988,1.39l-0.104,0.005c0.771,1.521,0.209,0.945,0.926,1.433c0.328,0.526,0.643,0.938,0.971,0.989
		c1.016,2.464,1.92,1.586,2.982,3.582c0.66,2.554,1.217,2.785,1.768,2.783c-0.068-0.515-0.131-1.126-0.191-1.811
		c0-0.042,0-0.093-0.01-0.137c-0.01-0.065-0.035-0.161-0.064-0.288c-0.061-0.285-0.18-0.794-0.352-1.527
		c-0.025-0.112-0.037-0.181-0.068-0.305c-0.029-0.653,0.02-1.041,0.129-1.265c0.479,0.453,0.984,0.924,1.506,1.418
		c-0.008,0.085,0,0.176-0.008,0.256c0.018,1.555-0.004,2.842-0.049,3.792c0.156,0.098,0.313,0.246,0.475,0.507
		c-0.01-0.225-0.014-0.351-0.014-0.414c-0.02-0.412,0.027,0.238,0.051,0.59c0.01,0.194,0.02,0.253,0.018,0.017
		c0-0.036-0.01-0.073-0.008-0.124c0.186,0.419,0.363,0.712,0.541,0.962c0.016,0.006,0.018,0.013,0.025,0.02
		c0.307,0.437,0.621,0.681,0.926,0.839c-0.092,0.144-0.201,0.349-0.313,0.68c0.414-0.026,0.879,1.146,1.291,1.387
		c0.645,0.735,1.287,1.635,1.9,2.4c0.717,0.272,1.195,0.799,1.57,1.457c0.205,0.365,0.375,0.763,0.541,1.182
		c0.77,1.977,1.291,4.27,3.822,4.315c0.115,0.005,0.262-0.017,0.393-0.021c0.221-0.018,0.43-0.024,0.674-0.068
		c0.443,0.363,0.893,0.779,1.35,1.233c0.457,0.458,3.432,0.07,3.9,0.585c0.033,0.272,0.07,0.662,0.113,0.931
		c0.031,0.199,0.064,0.339,0.08,0.277c0.598,0.473,1.209,1.147,1.813,1.825c0.049,0.641,0.061,0.487,0.061,0.07
		c0.391-0.541,0.725-0.626,0.969-0.579c0.113,0.02,0.227,0.067,0.289,0.121c0.73,1.584,1.789,3.751,3.68,5.076
		c1.572,1.104,3.965,1.348,5.07,2.769c0.752,0.972-1.914,0.604-1.48,1.698c1.016,2.557,4.742,6.616,6.525,7.927
		c0.41,0.707,0.805,0.931,1.211,1.297c1.141,0.755,8.428,6.757,9.572,8.093c0.539,0.375,1.143,0.908,1.732,1.472
		c0.768,0.711,1.541,1.465,2.254,1.996c1.275,1.159,2.357,2.1,2.951,3.9c0.217,0.585,0.229,1.584,0.691,1.453
		c0.58-0.161,2.289,2.352,3.832,2.076c1.313-0.236,2.445-3.192,3.283-4.074c0.48-0.502-2.521-2.364-2.563-3.314
		c-0.055-1.094,2.816-1.287,2.816-1.884c-0.01-2.354-5.824-4.262-4.6-4.791c2.52-1.089,5.615,1.606,8.631,5.229
		c0.607,0.729,1.123,2.847,1.73,3.492c2.719,2.895,5.709,3.745,6.418,3.082c1.17-1.084,0.818-2.59-0.033-4.04
		c0.34-0.6,0.713-1.242,1.059-1.832c0.617-1.067,7.201,7.33,8.615,5.604C140.941,191.811,133.5,184.347,134.457,183.862z
		 M68.512,147.702c-0.242-0.587-0.469-1.174-0.705-1.757l0.627-0.026c0.207,0.183,0.432,0.377,0.648,0.563
		C68.895,146.893,68.697,147.295,68.512,147.702z M79.664,126.485c0.045,0.39,0.104,0.789,0.141,1.141
		c0.025,0.268,0.061,0.489,0.08,0.732c-0.488,0.016-0.936,0.022-1.348,0.025c-0.178-0.622-0.35-1.168-0.479-1.616
		C78.607,126.658,79.125,126.567,79.664,126.485z M74.098,120.307c0.002-0.678,2.67,1.387,4.789,2.99
		c-0.229-0.161-0.453-0.329-0.684-0.487C76.889,121.922,75.545,121.075,74.098,120.307z M79.973,146.593
		c-0.037,0-0.055,0-0.098-0.003c0.008,0.068-0.002,0.142,0.008,0.21c-0.037,0.073-0.076,0.153-0.111,0.225
		c-0.621-0.117-1.246-0.239-1.881-0.358c-0.014-0.697-0.018-1.367-0.023-1.981c0.207-0.129,0.613-0.171,1.762-0.639
		c0.07,0.156,0.133,0.317,0.189,0.473c0.021,0.644,0.039,1.316,0.061,2.052c0.039,0.003,0.068,0.003,0.107,0.003
		C79.982,146.579,79.979,146.586,79.973,146.593z M119.51,178.489c-1.965-1.905-3.896-3.724-6.096-5.256
		c-0.617,0.514-1.191,0.996-1.787,1.498c-0.066-1.014-0.125-1.947-0.186-2.937c-0.75-0.748-1.15-1.684-2.094-2.332
		c-1.318-0.901-2.834-0.141-4.199-0.691c0.865-0.192,1.791-0.11,2.68-0.188c-0.398-2.316-0.488-3.411-3.271-3.576
		c3.416-1.675,3.523,2.792,6.256,4.018c0.148,0.068,0.314,0.112,0.461,0.166c0-0.034,0-0.063,0-0.098
		c1.762,0.404,3.248,0.743,5.578,1.272c-0.279,0.229-0.5,0.419-0.762,0.631c0.859,0.509,1.672,1.055,2.438,1.747
		c3.896,3.514,4.045,7.211,7.268,10.81C123.738,181.53,121.816,180.738,119.51,178.489z M129.271,191.221
		c0.012-0.059,0.086-0.195,0.178-0.373C129.445,191.084,129.406,191.248,129.271,191.221z"/>
	<path fill="#FFFFFF" d="M93.738,33.439l0.797-0.719c0.613,0.785,1.223,1.564,1.83,2.347l2.809-3.452
		c-0.926-0.978-1.973-2.218-3.623-4.199c2.164,0.895,1.732,0.285,3.535,2.084c-0.375-1.385-0.74-2.771-1.115-4.16l1.072-0.96
		l3.162,3.511l18.701-22.964c1.707-2.354-0.678-4.915-2.979-4.915H93.43c-2.77,0-5.973,1.121-7.598,3.365l-2.395,2.849
		c0.623,0.644,1.301,1.483,2.709,3.271c-2-1.646-2.387-1.887-3.152-2.746l-5.357,6.367c0.289,0.266,0.619,0.563,1.033,0.931
		l-0.266,0.241c-0.348-0.29-0.689-0.57-1.029-0.857L29.822,69.933V4.99c0-2.756-2.232-4.99-4.99-4.99H4.99C2.232,0,0,2.234,0,4.99
		v79.718v31.98v9.204c1.623,1.553,3.246,3.103,4.867,4.659l-0.797,0.717c-1.195-1.143-2.371-2.269-3.551-3.395
		c-0.174-0.261-0.344-0.514-0.52-0.772v9.426c0,2.756,2.238,4.99,4.99,4.99c0,0,19.49,0.039,19.754-0.002c0,0,0.039,0,0.059,0
		c0.072,0,0.139-0.018,0.209-0.022c-1.297-1.203-2.592-2.41-3.889-3.618c-1.613-4.479-1.426-5.125,0.443-7.001
		c1.732,2.101,3.465,4.198,5.199,6.311c-1.227,0.464-1.727-1.125,0.029,2.167c0.363,0.446,0.664,0.797,0.975,1.162
		c1.223-0.909,2.023-2.349,2.023-3.989v-3.148c-0.18-0.148-0.385-0.316-0.662-0.538c0.223,0.161,0.443,0.314,0.662,0.473v-16.492
		L96.1,35.394C95.309,34.744,94.529,34.095,93.738,33.439z M98.545,7.232l4.373,4.852c-0.902,0.075-1.799,0.15-2.695,0.227
		l-1.092-1.207c-0.27-0.482-0.547-0.975-0.822-1.457C98.379,8.837,98.477,8.052,98.545,7.232z M10.764,74.064l4.086,2.926
		c0.549,0.965,1.105,1.938,1.648,2.902C13.174,77.159,14.314,78.318,10.764,74.064z M17.332,83.798
		c-0.662-0.036-1.326-0.07-1.996-0.102c-0.359-1.004-0.213-0.697,0.934-1.392C16.646,82.829,17,83.326,17.332,83.798z
		 M5.869,125.242c-0.541-0.243-1.098-0.492-1.621-0.731c-0.646-0.892-1.295-1.781-1.928-2.668c2.502,1.684,0.207-0.156,3.811,3.156
		L5.869,125.242z M6.893,66.563c1.738,2.669,0.627,0.748,1.656,2.905l-2.188-2.425L6.893,66.563z M8.441,136.115l0.789-0.719
		c0.555,0.963,1.107,1.938,1.658,2.912C10.066,137.577,9.248,136.841,8.441,136.115z M11.926,115.368
		c-1.625-1.45-3.27-2.917-4.902-4.364c2.547,1.53,1.566,0.836,5.17,4.126L11.926,115.368z M10.854,80.589
		c2.365,1.652,1.111,0.57,3.598,3.065c-0.41-0.017-0.818-0.036-1.227-0.051C12.434,82.6,11.646,81.593,10.854,80.589z
		 M25.293,129.604c-0.816-0.725-1.641-1.467-2.459-2.191c-0.334-0.504-0.674-1.014-1.014-1.521
		c-1.336-0.626-2.645-1.703-5.215-3.735c-2.525-3.626-1.906-3.114-3.311-5.805c2.607,1.465,3.906,2.693,7.32,6.487
		c0.143-0.054,0.279-0.071,0.408-0.062l-1.205-1.333l0.422-0.382c-0.279-0.383-0.609-0.829-1.008-1.39
		c1.455,0.893,2.895,1.781,4.342,2.676c1.291,1.779,2.559,3.548,3.846,5.337C25.018,127.111,25.795,127.24,25.293,129.604z
		 M38.414,86.531c-0.428,1.847-0.857,3.693-1.281,5.538c-2.441-1.874-4.893-3.762-7.34-5.655v-1.706c0,0-0.74-0.068-1.984-0.173
		c-1.432-1.452-2.865-2.91-4.293-4.364c-3.416-6.487-6.504-12.981-9.967-19.606l0.805-0.725c3.27,2.037,3.953,2.391,8.975,7.287
		c1.143,3.263,3.93,7.186,5.236,8.482c3.453,3.47,6.926,6.964,10.381,10.443L38.414,86.531z M94.791,8.425
		c0.1,0.641,0.188,1.287,0.289,1.93c-1.906-1.941-3.816-3.884-5.736-5.831C91.479,5.701,92.166,6.313,94.791,8.425z M91.596,11.306
		c1.174,1.128,2.363,2.261,3.553,3.398l-0.273,0.239c-0.447-0.324-0.91-0.653-1.359-0.975
		C92.883,13.091,92.238,12.191,91.596,11.306z"/>
</g>
<g>
	<path fill="#EABF0C" d="M140.764,129.866c-1.1-1.462-2.547-0.943-4.084-0.402c0.021-1.004,0.037-2.135-0.705-2.937
		c-0.701-0.774-1.855-0.999-2.764-1.498c-1.766-0.987-3.41-2.367-4.283-4.143c-0.043-0.088-0.102-0.164-0.154-0.252
		c-0.092,0.308-0.178,0.59-0.24,0.81c1.938,3.067,3.936,6.026,5.637,9.147c0.016,0.034,0,0.084,0.016,0.12
		c-0.1-0.135-0.201-0.272-0.301-0.407c0.082,0.682-0.547,1.723-0.805,2.57c-0.449-0.124-0.887-0.246-1.34-0.36
		c-0.133-1.074-0.273-2.145-0.434-3.404c-4.012-0.109-5.859-2.461-5.766-5.878c0.01-0.085,0.031-0.165,0.039-0.251
		c-1.088-0.662-2.213-1.301-3.416-1.845c-0.664-0.292-1.361-0.535-2.047-0.794c0.424,1.313,0.438,2.668,0.307,4.028
		c0.068,1.189-0.025,1.701-0.186,1.757c-0.176,0.063-0.414-0.327-0.717-0.934c-2.758-1.822-1.887-3.735-1.725-4.835
		c-3.387,0.814-3.766-0.872-2.725-2.678c0.205-0.36,0.461-0.717,0.771-1.064c0.447-0.505,0.971-0.987,1.572-1.377
		c0.203-0.132,0.424-0.264,0.648-0.373c0.199,0.039,0.363-0.258,0.594,0.083c0.006-0.266,0.195,1.237,0.137,0.316
		c0.02,0.018,0.035,0.029,0.055,0.037c0.408,0.214,2.547,1.917,4.766,3.718c0.598,1.248,1.564,0.734,2.314,1.823
		c0.068-0.515,0.805-1.898,1.146-2.829c-0.953-1.316-1.979-2.59-2.613-4.06c-0.43-0.989-0.541-2.143-1.207-3.024
		c-0.484-0.644-1.414-1.879-2.111-2.288c-0.805-0.466-0.258,0.259-0.941,0.422c-0.551,0.126-0.877-0.722-1.408,0.012
		c-0.496-0.892-1.145,0.027-1.754,0.171c-0.4-0.836-1.014-1.506-1.379-2.371c-0.273-0.636-0.578-1.538-1.389-1.679
		c-0.625-1.604-2.643-2.247-3.939-3.358c-1.688-1.436-3.213-3.007-4.648-4.671c-2.754-3.205,2.551,0.039-0.205-3.176
		c-1.385-1.615-2.955-3.065-4.57-4.479c-0.801-0.717-1.707-1.279-2.588-1.91c-0.762-0.544-1.99-0.868-2.594-1.541
		c-0.209-0.24-0.248-0.684-0.5-0.879c-0.32-0.234-0.625-0.103-0.984-0.176c-0.879-0.186-1.455-0.967-1.824-1.711
		c-0.225-0.453-0.084-1.053-0.332-1.403c-0.137-0.188-0.678-0.388-0.875-0.561c-0.396-0.339-0.693-0.774-1.063-1.146
		c-0.621-0.652-1.221-1.776-2.008-2.22c-0.406-0.222-0.898-0.233-1.313-0.466c-0.498-0.285-3.666-2.646-4.027-3.08
		c-1.67-2.054-0.633-0.502-2.504-2.41c1.627,1.83-2.865-0.143-2.729,1.857c-0.035-0.104-0.113-0.183-0.16-0.275
		c-0.123,0.217-0.26,0.453-0.453,0.617c-0.469-0.283-0.895-0.686-1.273-1.068c-0.639,1.865,2.369,5.588,2.541,7.506
		c0.059,0.646,0.578,3.354-0.875,2.495c-1.199-0.724-0.195-0.499-1.32-1.379c-0.502-0.393-2.09-1.735-2.611-1.204
		c-0.234,0.241-0.313,1.224-0.396,1.564c-0.189,0.906-1.715-0.041-1.607,0.873c-0.584-0.473-0.156,0.531-0.838,0.162
		c-0.104,0.188,15.709,17.904,6.838,8.4c0.049,1.979-6.508-6.479-5.445-4.718c1.082,1.796-0.463,2.439-2.012,1.442
		c-1.152-0.738-1.082-0.999-1.93-2.018c-0.736,0.526-2.566,0.246-2.861,1.109c-0.332,0.942,0.322,1.342,1.043,1.859
		c0.486,0.353,1.51,1.102,1.105,1.832c-0.375,0.694-1.023,0.063-1.379-0.319c-0.551-0.573,0.107,1.457,1.197,2.656
		c0.834,0.919,1.85,1.652,2.727,2.534c0.873,0.89,1.473,1.894,2.09,2.946c0.709,1.184,1.42,2.278,2.516,3.18
		c0.039-0.029,0.102-0.083,0.146-0.124c0.186,0.794,0.834,1.416,1.418,1.935c0.58,0.52,1.34,1.17,1.994,1.771
		c0.695,0.656,1.324,1.39,2.08,1.988c0.711,0.559,1.809,1.305,1.705,2.299c1.18,1.7,2.988-2.162,3.621-0.19
		c0.48,1.462,0.182,3.093,0.674,4.571c0.424,1.292,1.307,2.308,2.256,3.282c2.369,2.425-2.43-2.785,0.346-0.854
		c2.813,1.951,4.484,4.213,6.395,6.903c1.359,1.927,3.334,3.331,5.279,4.698c0.98,0.689,1.777,1.574,2.787,2.244
		c1.104,0.738,2.217,0.696,3.471,0.363c1.188-0.313,2.605-0.632,3.85-0.624c0.852,0.002,2.115,0.153,2.582,0.926
		c0.619,1.019,0.293,2.725-0.328,3.675c-0.055,0.748-1.645,1.535-2.205,2.062c-0.176-0.37-0.609-0.183-0.684,0.134
		c-0.078,0.316,0.469,0.938,0.629,1.191c0.461,0.725,0.902,1.146,1.584,1.582c0.936,0.604,2.596,1.947,2.578,3.139
		c0.498,0.604,1.283,0.841,1.736,1.53c0.715,1.108,1.193,1.952,2.211,2.88c1.01,0.919,8.252,9.095,9.639,8.751
		c1.918-0.478-3.16-8.249-3.082-8.573c0.408-0.075,6.141,7.703,6.398,7.983c-0.16-0.075-0.313,0.08-0.41,0.329
		c0.918,1.296,2.252,1.913,3.539,2.793c0.648,0.443,1.311,0.884,1.959,1.34c0.492,0.346,1.721,1.633,2.344,1.428
		c-0.74-1.097-1.676-2.107-2.578-3.077c-0.545-0.595-1.334-1.375-1.773-2.187c-1.027-0.862-1.232-1.201-3.721-4.187
		c2.492,2.032,2.727,2.084,4.402,4.16c0.576,0.538,1.137,1.104,1.795,1.467c0.881,0.478,2.25,0.875,3.236,1.056
		c-0.26-1.048-1.072-1.399-1.84-2.094c-1.018-0.914-1.115-1.374-0.666-2.561c0.551-1.44-6.131-8.619-6.574-10.084
		c-0.863-2.91-3.068-5.186-4.748-7.686c-0.861-1.268-1.578-2.578-1.811-4.084c0.963,4.313,6.105,5.09,8.541,8.453
		c0.916,1.267,1.248,2.758,1.551,4.24c2.127-0.469,2.668-1.587,2.229-3.559c-0.283-1.24-1.283-2.895-0.98-4.181
		c0.213-0.88,1.016-0.666,1.861-0.588c-0.928-2.104-2.328-4.013-3.713-5.874c2.451,1.292,5.313,2.75,8.148,3.021
		C142.18,132.297,141.661,131.042,140.764,129.866z M90.817,115.62c2.941,1.626,0.639,0.144,3.82,3.165
		C93.356,117.722,92.096,116.675,90.817,115.62z M102.758,122.435l0.797-0.719l5.477,6.07
		C105.719,126.542,107.362,127.865,102.758,122.435z"/>
	<path fill="#EABF0C" d="M134.458,183.863c0.953-0.484,1.912-0.999,1.91-1.418c2.145-1.82-7.527-5.729-7.084-5.854
		c-0.367-0.802-0.707-0.994-1.082-1.104c-1.023-2.071-5.988-5.775-7.201-7.666c-0.252,0.652-0.906,1.303-2.17,1.983
		c-4.484,0.204-1.963-2.184-0.168-4.608c-1.051-1.372-1.895-2.914-2.396-4.734c-0.244-1.178-6.719-6.745-7.158-7.223
		c-0.111-0.122-0.223-0.241-0.342-0.366c-0.361-0.382-0.77-0.838-1.223-1.649c-0.414-0.424-0.85-0.678-1.309-0.892
		c-0.824-0.388-1.672-0.609-2.535-1.287c-1.979-0.68-2.727-0.765-3.367-3.051c-0.363-0.495-0.66-1.716-1.107-2.604
		c-0.242-0.507-0.537-0.909-0.922-1.004c-0.85-1.114-1.461-1.765-2.063-2.591c-0.463-0.626-0.912-1.343-1.463-2.439
		c-0.289,0.342-0.57,0.678-0.832,0.994c-0.191,0.217-0.373,0.432-0.549,0.607c-0.451,0.438-0.879,0.721-1.332,0.675
		c-0.303,1.667-3.127,1.796-3.127,1.796c-0.09-1.967-0.213-3.926-0.523-5.854c-0.064-0.404-0.162-0.802-0.244-1.201
		c-0.277-1.294-0.625-2.576-1.178-3.823c-0.721-0.096-1.352-0.339-2.68-0.895c0.008-0.986,0.002-1.62-0.012-2.068
		c-1.295-1.15-2.641-2.223-4.021-3.254c0.691,0.502,1.164,0.785,1.174,0.632c-0.111-0.356-0.227-0.624-0.355-0.914
		c-1.232-3.005-10.211-9.421-11.973-8.183c-2,1.408-4.074,3.631-5.576,2.319c0.744-0.59,1.379-1.15,1.92-1.684
		c0.082-0.083,0.15-0.161,0.229-0.244c0.439-0.45,0.818-0.887,1.125-1.306c1.082-1.455,1.387-2.712,1.145-3.87
		c-0.406-1.951-2.318-3.641-4.652-5.551c-1.492-1.226-3.131-2.554-4.633-4.102c-0.594-0.608-1.168-1.237-1.693-1.92
		c-0.199,0.22-0.369,0.438-0.541,0.653c-0.225,0.272-0.404,0.541-0.568,0.812c-1.422,2.3-0.828,2.14,1.605,4.274
		c1.826,3.501-5.748-1.892-8.168,0.38c-1.752,2.746,5.998,11.414,5.107,12.04c-1.193,0.828-5.121-5.834-6.193-6.611
		c-1.369-0.999-2.854-0.148-4.285-1.079c-0.125-0.075-3.244,3.823-1.266,2.89c0.426,0.702,0.865,1.38,1.332,2.037
		c0.422,0.603-0.246,1.57-0.531,2.398c-0.145,0.412-0.197,0.794,0.041,1.072l0.518-0.027c0.283,0.103,0.57,0.205,0.852,0.308
		c1.195,0.431,2.389,0.86,3.584,1.286c-0.377,0.807-0.746,1.621-1.117,2.428c1.17,1.135,2.393,2.259,3.65,3.385
		c0.307,0.277,0.633,0.561,0.947,0.838c0.604,0.531,1.193,1.063,1.816,1.599c0.383,0.507,0.719,1.035,1.045,1.436
		c0.047,0.061,0.105,0.148,0.156,0.202c0.012,0.277,0.027,0.263,0.068,0.155c0-0.024,0.002-0.044,0.029-0.16
		c0.061-0.288,0.125-0.663,0.154-0.01c0.037-0.517,0.115-0.393,0.201-0.059c0.035,0.168,0.08,0.385,0.121,0.592
		c0.047,0.202,0.082,0.397,0.098,0.539c-0.094-0.171-0.143,0.604-0.219,0.848c-0.031,0.1-0.066,0.114-0.111-0.127
		c-0.117,2.052-0.516-2.015-0.699-1.762c-0.516,0.015-1.16-0.692-1.926-1.635c-2.715-1.525-4.863-4.235-7.049-6.879
		c-0.777-0.48-7.27-2.286-8.045-2.762c0.322,0.559,0.85,1.18,1.447,1.823c-0.227-0.095-0.027,0.358,0.635,1.367
		c0.135,0.204,0.256,0.422,0.381,0.629c0.102-0.225,0.205-0.449,0.311-0.671c2.949,2.739,7.207,5.72,9.516,7.291
		c0.309,0.217,0.641,0.771,0.988,1.39l-0.104,0.005c0.771,1.521,0.209,0.945,0.926,1.433c0.328,0.526,0.643,0.938,0.971,0.989
		c1.016,2.464,1.92,1.586,2.982,3.582c0.66,2.554,1.217,2.785,1.768,2.783c-0.068-0.515-0.131-1.126-0.191-1.811
		c0-0.042,0-0.093-0.01-0.137c-0.01-0.065-0.035-0.161-0.064-0.288c-0.061-0.285-0.18-0.794-0.352-1.527
		c-0.025-0.112-0.037-0.181-0.068-0.305c-0.029-0.653,0.02-1.041,0.129-1.265c0.479,0.453,0.984,0.924,1.506,1.418
		c-0.008,0.085,0,0.176-0.008,0.256c0.018,1.555-0.004,2.842-0.049,3.792c0.156,0.098,0.313,0.246,0.475,0.507
		c-0.01-0.225-0.014-0.351-0.014-0.414c-0.02-0.412,0.027,0.238,0.051,0.59c0.01,0.194,0.02,0.253,0.018,0.017
		c0-0.036-0.01-0.073-0.008-0.124c0.186,0.419,0.363,0.712,0.541,0.962c0.016,0.006,0.018,0.013,0.025,0.02
		c0.307,0.437,0.621,0.681,0.926,0.839c-0.092,0.144-0.201,0.349-0.313,0.68c0.414-0.026,0.879,1.146,1.291,1.387
		c0.645,0.735,1.287,1.635,1.9,2.4c0.717,0.272,1.195,0.799,1.57,1.457c0.205,0.365,0.375,0.763,0.541,1.182
		c0.77,1.977,1.291,4.27,3.822,4.315c0.115,0.005,0.262-0.017,0.393-0.021c0.221-0.018,0.43-0.024,0.674-0.068
		c0.443,0.363,0.893,0.779,1.35,1.233c0.457,0.458,3.432,0.07,3.9,0.585c0.033,0.272,0.07,0.662,0.113,0.931
		c0.031,0.199,0.064,0.339,0.08,0.277c0.598,0.473,1.209,1.147,1.813,1.825c0.049,0.641,0.061,0.487,0.061,0.07
		c0.391-0.541,0.725-0.626,0.969-0.579c0.113,0.02,0.227,0.067,0.289,0.121c0.73,1.584,1.789,3.751,3.68,5.076
		c1.572,1.104,3.965,1.348,5.07,2.769c0.752,0.972-1.914,0.604-1.48,1.698c1.016,2.557,4.742,6.616,6.525,7.927
		c0.41,0.707,0.805,0.931,1.211,1.297c1.141,0.755,8.428,6.757,9.572,8.093c0.539,0.375,1.143,0.908,1.732,1.472
		c0.768,0.711,1.541,1.465,2.254,1.996c1.275,1.159,2.357,2.1,2.951,3.9c0.217,0.585,0.229,1.584,0.691,1.453
		c0.58-0.161,2.289,2.352,3.832,2.076c1.313-0.236,2.445-3.192,3.283-4.074c0.48-0.502-2.521-2.364-2.563-3.314
		c-0.055-1.094,2.816-1.287,2.816-1.884c-0.01-2.354-5.824-4.262-4.6-4.791c2.52-1.089,5.615,1.606,8.631,5.229
		c0.607,0.729,1.123,2.847,1.73,3.492c2.719,2.895,5.709,3.745,6.418,3.082c1.17-1.084,0.818-2.59-0.033-4.04
		c0.34-0.6,0.713-1.242,1.059-1.832c0.617-1.067,7.201,7.33,8.615,5.604C140.942,191.812,133.5,184.348,134.458,183.863z
		 M68.512,147.703c-0.242-0.587-0.469-1.174-0.705-1.757l0.627-0.026c0.207,0.183,0.432,0.377,0.648,0.563
		C68.895,146.894,68.698,147.296,68.512,147.703z M79.665,126.486c0.045,0.39,0.104,0.789,0.141,1.141
		c0.025,0.268,0.061,0.489,0.08,0.732c-0.488,0.016-0.936,0.022-1.348,0.025c-0.178-0.622-0.35-1.168-0.479-1.616
		C78.608,126.659,79.125,126.568,79.665,126.486z M74.098,120.308c0.002-0.678,2.67,1.387,4.789,2.99
		c-0.229-0.161-0.453-0.329-0.684-0.487C76.889,121.923,75.545,121.076,74.098,120.308z M79.973,146.594
		c-0.037,0-0.055,0-0.098-0.003c0.008,0.068-0.002,0.142,0.008,0.21c-0.037,0.073-0.076,0.153-0.111,0.225
		c-0.621-0.117-1.246-0.239-1.881-0.358c-0.014-0.697-0.018-1.367-0.023-1.981c0.207-0.129,0.613-0.171,1.762-0.639
		c0.07,0.156,0.133,0.317,0.189,0.473c0.021,0.644,0.039,1.316,0.061,2.052c0.039,0.003,0.068,0.003,0.107,0.003
		C79.983,146.58,79.979,146.587,79.973,146.594z M119.51,178.49c-1.965-1.905-3.896-3.724-6.096-5.256
		c-0.617,0.514-1.191,0.996-1.787,1.498c-0.066-1.014-0.125-1.947-0.186-2.937c-0.75-0.748-1.15-1.684-2.094-2.332
		c-1.318-0.901-2.834-0.141-4.199-0.691c0.865-0.192,1.791-0.11,2.68-0.188c-0.398-2.316-0.488-3.411-3.271-3.576
		c3.416-1.675,3.523,2.792,6.256,4.018c0.148,0.068,0.314,0.112,0.461,0.166c0-0.034,0-0.063,0-0.098
		c1.762,0.404,3.248,0.743,5.578,1.272c-0.279,0.229-0.5,0.419-0.762,0.631c0.859,0.509,1.672,1.055,2.438,1.747
		c3.896,3.514,4.045,7.211,7.268,10.81C123.739,181.531,121.817,180.739,119.51,178.49z M129.272,191.222
		c0.012-0.059,0.086-0.195,0.178-0.373C129.446,191.085,129.407,191.249,129.272,191.222z"/>
	<path fill="#EABF0C" d="M93.739,33.44l0.797-0.719c0.613,0.785,1.223,1.564,1.83,2.347l2.809-3.452
		c-0.926-0.978-1.973-2.218-3.623-4.199c2.164,0.895,1.732,0.285,3.535,2.084c-0.375-1.385-0.74-2.771-1.115-4.16l1.072-0.96
		l3.162,3.511l18.701-22.964c1.707-2.354-0.678-4.915-2.979-4.915H93.43c-2.77,0-5.973,1.121-7.598,3.365l-2.395,2.849
		c0.623,0.644,1.301,1.483,2.709,3.271c-2-1.646-2.387-1.887-3.152-2.746l-5.357,6.367c0.289,0.266,0.619,0.563,1.033,0.931
		l-0.266,0.241c-0.348-0.29-0.689-0.57-1.029-0.857L29.823,69.934V4.991c0-2.756-2.232-4.99-4.99-4.99H4.991
		C2.233,0,0,2.235,0,4.991v79.718v31.98v9.204c1.623,1.553,3.246,3.103,4.867,4.659l-0.797,0.717
		C2.875,130.126,1.7,129,0.52,127.875c-0.174-0.261-0.344-0.514-0.52-0.772v9.426c0,2.756,2.238,4.99,4.99,4.99
		c0,0,19.49,0.039,19.754-0.002c0,0,0.039,0,0.059,0c0.072,0,0.139-0.018,0.209-0.022c-1.297-1.203-2.592-2.41-3.889-3.618
		c-1.613-4.479-1.426-5.125,0.443-7.001c1.732,2.101,3.465,4.198,5.199,6.311c-1.227,0.464-1.727-1.125,0.029,2.167
		c0.363,0.446,0.664,0.797,0.975,1.162c1.223-0.909,2.023-2.349,2.023-3.989v-3.148c-0.18-0.148-0.385-0.316-0.662-0.538
		c0.223,0.161,0.443,0.314,0.662,0.473v-16.492L96.1,35.395C95.309,34.745,94.53,34.096,93.739,33.44z M98.545,7.233l4.373,4.852
		c-0.902,0.075-1.799,0.15-2.695,0.227l-1.092-1.207c-0.27-0.482-0.547-0.975-0.822-1.457C98.379,8.838,98.477,8.053,98.545,7.233z
		 M10.764,74.065l4.086,2.926c0.549,0.965,1.105,1.938,1.648,2.902C13.174,77.16,14.315,78.319,10.764,74.065z M17.333,83.799
		c-0.662-0.036-1.326-0.07-1.996-0.102c-0.359-1.004-0.213-0.697,0.934-1.392C16.647,82.83,17,83.327,17.333,83.799z M5.87,125.243
		c-0.541-0.243-1.098-0.492-1.621-0.731c-0.646-0.892-1.295-1.781-1.928-2.668c2.502,1.684,0.207-0.156,3.811,3.156L5.87,125.243z
		 M6.893,66.564c1.738,2.669,0.627,0.748,1.656,2.905l-2.188-2.425L6.893,66.564z M8.442,136.116l0.789-0.719
		c0.555,0.963,1.107,1.938,1.658,2.912C10.067,137.578,9.249,136.842,8.442,136.116z M11.926,115.369
		c-1.625-1.45-3.27-2.917-4.902-4.364c2.547,1.53,1.566,0.836,5.17,4.126L11.926,115.369z M10.854,80.59
		c2.365,1.652,1.111,0.57,3.598,3.065c-0.41-0.017-0.818-0.036-1.227-0.051C12.434,82.601,11.647,81.594,10.854,80.59z
		 M25.293,129.605c-0.816-0.725-1.641-1.467-2.459-2.191c-0.334-0.504-0.674-1.014-1.014-1.521
		c-1.336-0.626-2.645-1.703-5.215-3.735c-2.525-3.626-1.906-3.114-3.311-5.805c2.607,1.465,3.906,2.693,7.32,6.487
		c0.143-0.054,0.279-0.071,0.408-0.062l-1.205-1.333l0.422-0.382c-0.279-0.383-0.609-0.829-1.008-1.39
		c1.455,0.893,2.895,1.781,4.342,2.676c1.291,1.779,2.559,3.548,3.846,5.337C25.018,127.112,25.795,127.241,25.293,129.605z
		 M38.415,86.532c-0.428,1.847-0.857,3.693-1.281,5.538c-2.441-1.874-4.893-3.762-7.34-5.655v-1.706c0,0-0.74-0.068-1.984-0.173
		c-1.432-1.452-2.865-2.91-4.293-4.364c-3.416-6.487-6.504-12.981-9.967-19.606l0.805-0.725c3.27,2.037,3.953,2.391,8.975,7.287
		c1.143,3.263,3.93,7.186,5.236,8.482c3.453,3.47,6.926,6.964,10.381,10.443L38.415,86.532z M94.792,8.426
		c0.1,0.641,0.188,1.287,0.289,1.93c-1.906-1.941-3.816-3.884-5.736-5.831C91.479,5.702,92.167,6.314,94.792,8.426z M91.596,11.307
		c1.174,1.128,2.363,2.261,3.553,3.398l-0.273,0.239c-0.447-0.324-0.91-0.653-1.359-0.975
		C92.883,13.092,92.239,12.192,91.596,11.307z"/>
</g>
</svg>
