<?xml version="1.0" encoding="utf-8"?>
<!-- Generator: Adobe Illustrator 16.0.0, SVG Export Plug-In . SVG Version: 6.00 Build 0)  -->
<!DOCTYPE svg PUBLIC "-//W3C//DTD SVG 1.1//EN" "http://www.w3.org/Graphics/SVG/1.1/DTD/svg11.dtd">
<svg version="1.1" id="Layer_1" xmlns="http://www.w3.org/2000/svg" xmlns:xlink="http://www.w3.org/1999/xlink" x="0px" y="0px"
	 width="552.444px" height="195.296px" viewBox="0 0 552.444 195.296" enable-background="new 0 0 552.444 195.296"
	 xml:space="preserve">
<g>
	<path fill="#B8B8B8" d="M140.762,129.865c-1.099-1.461-2.546-0.943-4.084-0.402c0.021-1.004,0.037-2.135-0.704-2.936
		c-0.702-0.775-1.856-1-2.764-1.498c-1.767-0.988-3.411-2.367-4.284-4.143c-0.043-0.088-0.102-0.164-0.153-0.252
		c-0.093,0.307-0.178,0.59-0.241,0.809c1.938,3.068,3.936,6.027,5.637,9.148c0.017,0.033,0.001,0.084,0.017,0.119
		c-0.101-0.135-0.201-0.271-0.302-0.406c0.083,0.682-0.546,1.723-0.805,2.57c-0.448-0.125-0.887-0.246-1.34-0.361
		c-0.132-1.074-0.272-2.145-0.434-3.404c-4.011-0.109-5.858-2.461-5.766-5.877c0.01-0.086,0.031-0.166,0.039-0.252
		c-1.087-0.662-2.213-1.301-3.416-1.844c-0.663-0.293-1.36-0.535-2.047-0.795c0.424,1.314,0.438,2.668,0.307,4.029
		c0.068,1.189-0.024,1.701-0.186,1.756c-0.175,0.064-0.414-0.326-0.716-0.934c-2.759-1.822-1.887-3.734-1.726-4.834
		c-3.387,0.814-3.765-0.873-2.725-2.678c0.205-0.361,0.461-0.717,0.772-1.064c0.446-0.506,0.97-0.988,1.572-1.377
		c0.202-0.133,0.424-0.264,0.647-0.373c0.2,0.039,0.363-0.258,0.595,0.082c0.005-0.266,0.195,1.238,0.137,0.316
		c0.02,0.018,0.034,0.029,0.054,0.037c0.409,0.215,2.547,1.918,4.767,3.719c0.597,1.248,1.564,0.734,2.314,1.822
		c0.068-0.514,0.805-1.898,1.146-2.828c-0.953-1.316-1.979-2.59-2.612-4.061c-0.431-0.988-0.541-2.143-1.208-3.023
		c-0.483-0.645-1.414-1.879-2.111-2.289c-0.804-0.465-0.258,0.26-0.94,0.422c-0.551,0.127-0.877-0.721-1.408,0.012
		c-0.497-0.891-1.146,0.027-1.755,0.172c-0.399-0.836-1.014-1.506-1.379-2.371c-0.272-0.637-0.577-1.539-1.389-1.68
		c-0.624-1.604-2.642-2.246-3.938-3.357c-1.688-1.436-3.214-3.008-4.649-4.672c-2.753-3.205,2.552,0.039-0.204-3.176
		c-1.385-1.615-2.956-3.064-4.571-4.479c-0.8-0.717-1.706-1.279-2.588-1.91c-0.761-0.543-1.989-0.867-2.594-1.541
		c-0.209-0.24-0.248-0.684-0.499-0.879c-0.321-0.234-0.626-0.102-0.984-0.176c-0.88-0.186-1.455-0.967-1.825-1.711
		c-0.225-0.453-0.083-1.053-0.332-1.402c-0.136-0.188-0.677-0.389-0.874-0.561c-0.397-0.34-0.694-0.775-1.063-1.146
		c-0.622-0.652-1.221-1.775-2.008-2.219c-0.407-0.223-0.899-0.234-1.313-0.467c-0.497-0.285-3.665-2.646-4.026-3.08
		c-1.671-2.053-0.633-0.502-2.505-2.41c1.628,1.83-2.865-0.143-2.729,1.857c-0.035-0.104-0.112-0.182-0.159-0.275
		c-0.124,0.217-0.261,0.453-0.453,0.617c-0.47-0.283-0.895-0.686-1.274-1.068c-0.639,1.865,2.369,5.588,2.542,7.506
		c0.059,0.646,0.577,3.354-0.875,2.496c-1.199-0.725-0.195-0.5-1.321-1.379c-0.502-0.393-2.09-1.736-2.611-1.205
		c-0.234,0.242-0.313,1.225-0.396,1.564c-0.189,0.906-1.716-0.041-1.608,0.873c-0.584-0.473-0.155,0.531-0.838,0.162
		c-0.103,0.189,15.71,17.904,6.838,8.4c0.049,1.979-6.507-6.479-5.444-4.717c1.082,1.795-0.463,2.439-2.013,1.441
		c-1.152-0.738-1.082-0.998-1.93-2.018c-0.736,0.527-2.566,0.246-2.861,1.109c-0.331,0.943,0.322,1.342,1.043,1.859
		c0.487,0.354,1.511,1.102,1.106,1.832c-0.375,0.695-1.023,0.064-1.379-0.318c-0.551-0.574,0.107,1.457,1.196,2.656
		c0.834,0.918,1.85,1.652,2.727,2.533c0.873,0.891,1.473,1.895,2.091,2.947c0.709,1.184,1.419,2.277,2.515,3.18
		c0.039-0.029,0.103-0.084,0.146-0.125c0.186,0.795,0.834,1.416,1.418,1.936c0.58,0.52,1.341,1.17,1.994,1.771
		c0.696,0.656,1.325,1.389,2.081,1.988c0.711,0.559,1.808,1.305,1.705,2.299c1.18,1.699,2.987-2.162,3.621-0.191
		c0.48,1.463,0.181,3.094,0.673,4.572c0.424,1.291,1.307,2.307,2.257,3.281c2.368,2.426-2.43-2.785,0.346-0.854
		c2.813,1.951,4.483,4.213,6.395,6.902c1.359,1.928,3.333,3.332,5.278,4.699c0.981,0.689,1.778,1.574,2.787,2.244
		c1.104,0.738,2.218,0.695,3.471,0.363c1.188-0.313,2.606-0.633,3.85-0.625c0.853,0.002,2.115,0.154,2.583,0.926
		c0.619,1.02,0.292,2.725-0.329,3.676c-0.054,0.748-1.645,1.535-2.205,2.061c-0.176-0.369-0.609-0.182-0.683,0.135
		c-0.078,0.316,0.468,0.938,0.629,1.191c0.461,0.725,0.901,1.145,1.584,1.582c0.936,0.604,2.595,1.947,2.578,3.139
		c0.497,0.604,1.282,0.84,1.735,1.529c0.716,1.109,1.193,1.953,2.212,2.881c1.009,0.918,8.251,9.094,9.638,8.75
		c1.918-0.477-3.16-8.248-3.082-8.572c0.409-0.076,6.141,7.703,6.398,7.982c-0.16-0.074-0.312,0.08-0.409,0.33
		c0.917,1.295,2.252,1.912,3.538,2.793c0.648,0.443,1.312,0.883,1.96,1.34c0.492,0.346,1.72,1.633,2.344,1.428
		c-0.74-1.098-1.677-2.107-2.578-3.078c-0.546-0.594-1.335-1.375-1.774-2.186c-1.027-0.863-1.232-1.201-3.721-4.188
		c2.493,2.033,2.727,2.084,4.403,4.16c0.575,0.539,1.136,1.104,1.794,1.467c0.882,0.479,2.251,0.875,3.236,1.057
		c-0.259-1.049-1.072-1.4-1.84-2.094c-1.017-0.914-1.114-1.375-0.666-2.561c0.551-1.441-6.131-8.619-6.574-10.084
		c-0.862-2.91-3.068-5.186-4.747-7.686c-0.862-1.268-1.579-2.578-1.811-4.084c0.963,4.313,6.104,5.09,8.541,8.453
		c0.916,1.266,1.248,2.758,1.55,4.24c2.128-0.469,2.669-1.588,2.229-3.559c-0.284-1.24-1.284-2.895-0.981-4.182
		c0.214-0.879,1.016-0.666,1.861-0.588c-0.927-2.104-2.327-4.012-3.713-5.873c2.452,1.291,5.313,2.75,8.148,3.02
		C142.178,132.297,141.659,131.043,140.762,129.865z M90.815,115.619c2.941,1.627,0.639,0.145,3.821,3.166
		C93.354,117.723,92.094,116.676,90.815,115.619z M102.757,122.436l0.797-0.719l5.476,6.07
		C105.718,126.541,107.361,127.865,102.757,122.436z"/>
	<path fill="#B8B8B8" d="M136.447,126.699c0.032,0.018,0.065,0.037,0.103,0.055c0.088,0.049,0.186,0.1,0.285,0.152
		c-0.125-0.141-0.231-0.258-0.414-0.445c0.007,0.041,0.012,0.115,0.017,0.213C136.437,126.674,136.442,126.695,136.447,126.699z"/>
	<path fill="#B8B8B8" d="M120.834,167.58c0.041,0.072,0.114,0.168,0.165,0.242c0.01-0.014,0.02-0.029,0.032-0.049
		C122.503,169.141,119.823,165.613,120.834,167.58z"/>
	<path fill="#B8B8B8" d="M134.456,183.863c0.953-0.484,1.913-1,1.911-1.418c2.144-1.82-7.527-5.73-7.084-5.854
		c-0.368-0.803-0.707-0.994-1.082-1.104c-1.023-2.072-5.989-5.775-7.201-7.666c-0.253,0.652-0.906,1.303-2.171,1.982
		c-4.483,0.205-1.962-2.184-0.168-4.607c-1.051-1.373-1.894-2.914-2.396-4.734c-0.244-1.178-6.719-6.746-7.159-7.223
		c-0.11-0.123-0.222-0.242-0.342-0.367c-0.36-0.381-0.77-0.838-1.223-1.648c-0.414-0.424-0.849-0.678-1.309-0.893
		c-0.824-0.387-1.672-0.609-2.534-1.287c-1.979-0.68-2.728-0.764-3.368-3.051c-0.363-0.494-0.66-1.715-1.106-2.604
		c-0.243-0.508-0.538-0.91-0.923-1.004c-0.849-1.115-1.46-1.766-2.063-2.592c-0.463-0.625-0.911-1.342-1.462-2.439
		c-0.29,0.342-0.57,0.678-0.833,0.994c-0.19,0.217-0.373,0.432-0.549,0.607c-0.45,0.439-0.879,0.721-1.332,0.676
		c-0.303,1.666-3.127,1.795-3.127,1.795c-0.09-1.967-0.212-3.926-0.523-5.854c-0.063-0.404-0.161-0.801-0.244-1.201
		c-0.277-1.293-0.624-2.576-1.177-3.822c-0.722-0.096-1.353-0.34-2.681-0.895c0.008-0.986,0.002-1.621-0.012-2.068
		c-1.295-1.15-2.64-2.223-4.021-3.254c0.692,0.502,1.165,0.785,1.175,0.631c-0.112-0.355-0.227-0.623-0.355-0.914
		c-1.233-3.004-10.211-9.42-11.973-8.182c-2,1.408-4.074,3.631-5.577,2.318c0.745-0.59,1.379-1.15,1.92-1.684
		c0.083-0.082,0.15-0.16,0.229-0.244c0.439-0.449,0.819-0.887,1.126-1.305c1.082-1.455,1.387-2.713,1.144-3.871
		c-0.405-1.951-2.318-3.641-4.652-5.551c-1.491-1.225-3.131-2.553-4.633-4.102c-0.594-0.607-1.167-1.236-1.693-1.92
		c-0.199,0.221-0.368,0.439-0.541,0.654c-0.224,0.271-0.404,0.541-0.567,0.811c-1.423,2.301-0.829,2.141,1.605,4.275
		c1.825,3.5-5.748-1.893-8.168,0.379c-1.752,2.746,5.997,11.414,5.107,12.041c-1.194,0.828-5.122-5.834-6.194-6.611
		c-1.369-1-2.854-0.148-4.284-1.08c-0.126-0.074-3.245,3.824-1.267,2.891c0.426,0.701,0.865,1.379,1.333,2.037
		c0.421,0.602-0.246,1.57-0.531,2.398c-0.145,0.412-0.198,0.793,0.041,1.072l0.517-0.027c0.283,0.102,0.57,0.205,0.853,0.307
		c1.194,0.432,2.389,0.861,3.583,1.287c-0.376,0.807-0.746,1.621-1.116,2.428c1.169,1.135,2.393,2.258,3.65,3.385
		c0.307,0.277,0.633,0.561,0.947,0.838c0.603,0.531,1.192,1.063,1.815,1.598c0.383,0.508,0.719,1.035,1.046,1.436
		c0.046,0.061,0.104,0.148,0.155,0.203c0.013,0.277,0.027,0.262,0.068,0.154c0-0.023,0.003-0.043,0.029-0.16
		c0.062-0.287,0.125-0.662,0.154-0.01c0.038-0.516,0.116-0.393,0.202-0.059c0.034,0.168,0.08,0.385,0.121,0.592
		c0.047,0.203,0.081,0.398,0.098,0.539c-0.095-0.17-0.144,0.605-0.219,0.848c-0.032,0.1-0.066,0.115-0.112-0.127
		c-0.117,2.053-0.515-2.014-0.699-1.762c-0.515,0.016-1.16-0.691-1.926-1.635c-2.714-1.525-4.863-4.234-7.049-6.879
		c-0.777-0.48-7.27-2.285-8.045-2.762c0.322,0.559,0.851,1.18,1.448,1.824c-0.227-0.096-0.027,0.357,0.634,1.367
		c0.136,0.203,0.256,0.422,0.382,0.629c0.101-0.225,0.205-0.449,0.31-0.672c2.949,2.74,7.208,5.721,9.516,7.291
		c0.31,0.217,0.642,0.771,0.989,1.391l-0.104,0.004c0.772,1.521,0.21,0.945,0.926,1.434c0.329,0.525,0.644,0.938,0.971,0.988
		c1.016,2.465,1.92,1.586,2.982,3.582c0.66,2.555,1.218,2.785,1.769,2.783c-0.068-0.514-0.132-1.125-0.192-1.811
		c0-0.041,0-0.092-0.01-0.137c-0.01-0.064-0.034-0.16-0.063-0.287c-0.061-0.285-0.18-0.795-0.353-1.527
		c-0.025-0.113-0.037-0.182-0.068-0.305c-0.029-0.654,0.02-1.041,0.129-1.266c0.479,0.453,0.984,0.924,1.506,1.418
		c-0.008,0.086,0,0.176-0.008,0.256c0.018,1.555-0.004,2.842-0.048,3.793c0.155,0.098,0.312,0.246,0.475,0.506
		c-0.01-0.225-0.015-0.35-0.015-0.414c-0.02-0.412,0.027,0.238,0.052,0.59c0.01,0.195,0.019,0.254,0.017,0.018
		c0-0.037-0.01-0.074-0.007-0.125c0.185,0.42,0.362,0.713,0.54,0.963c0.016,0.006,0.018,0.012,0.025,0.02
		c0.307,0.436,0.621,0.68,0.926,0.838c-0.091,0.145-0.2,0.35-0.313,0.68c0.414-0.025,0.88,1.146,1.292,1.387
		c0.644,0.736,1.286,1.635,1.9,2.4c0.717,0.273,1.194,0.799,1.569,1.457c0.205,0.365,0.375,0.764,0.541,1.182
		c0.771,1.977,1.292,4.27,3.823,4.316c0.114,0.004,0.261-0.018,0.393-0.021c0.22-0.018,0.429-0.025,0.673-0.068
		c0.443,0.363,0.894,0.779,1.35,1.232c0.458,0.459,3.432,0.07,3.901,0.586c0.032,0.271,0.07,0.662,0.112,0.93
		c0.031,0.199,0.065,0.34,0.08,0.277c0.598,0.473,1.209,1.148,1.813,1.826c0.049,0.641,0.061,0.486,0.061,0.07
		c0.39-0.541,0.724-0.627,0.968-0.58c0.114,0.02,0.227,0.068,0.29,0.121c0.73,1.584,1.788,3.752,3.679,5.076
		c1.572,1.105,3.965,1.348,5.071,2.77c0.751,0.971-1.915,0.604-1.481,1.697c1.017,2.557,4.742,6.617,6.525,7.928
		c0.41,0.707,0.805,0.93,1.212,1.297c1.14,0.754,8.427,6.756,9.571,8.092c0.539,0.375,1.144,0.908,1.732,1.473
		c0.768,0.711,1.541,1.465,2.255,1.996c1.274,1.158,2.356,2.1,2.95,3.9c0.217,0.584,0.229,1.584,0.692,1.453
		c0.58-0.162,2.288,2.352,3.831,2.076c1.313-0.236,2.446-3.193,3.284-4.074c0.48-0.502-2.521-2.365-2.563-3.314
		c-0.054-1.094,2.817-1.287,2.817-1.885c-0.01-2.354-5.824-4.262-4.601-4.791c2.52-1.088,5.616,1.607,8.631,5.23
		c0.607,0.729,1.123,2.846,1.73,3.492c2.719,2.895,5.709,3.744,6.418,3.082c1.17-1.084,0.819-2.59-0.033-4.041
		c0.341-0.6,0.714-1.242,1.06-1.832c0.616-1.066,7.201,7.33,8.614,5.605C140.94,191.813,133.499,184.348,134.456,183.863z
		 M68.51,147.703c-0.241-0.588-0.468-1.174-0.704-1.758l0.626-0.025c0.208,0.182,0.432,0.377,0.648,0.563
		C68.893,146.895,68.696,147.297,68.51,147.703z M79.664,126.486c0.044,0.389,0.103,0.789,0.14,1.141
		c0.026,0.268,0.061,0.488,0.08,0.732c-0.487,0.016-0.936,0.021-1.348,0.025c-0.178-0.623-0.349-1.168-0.478-1.617
		C78.606,126.658,79.124,126.568,79.664,126.486z M74.096,120.309c0.002-0.678,2.67,1.387,4.79,2.99
		c-0.229-0.162-0.453-0.33-0.685-0.488C76.888,121.924,75.543,121.076,74.096,120.309z M79.971,146.594
		c-0.037,0-0.054,0-0.098-0.002c0.008,0.068-0.002,0.141,0.008,0.209c-0.037,0.074-0.076,0.154-0.11,0.225
		c-0.621-0.117-1.247-0.238-1.881-0.357c-0.015-0.697-0.018-1.367-0.024-1.982c0.207-0.129,0.614-0.17,1.762-0.639
		c0.07,0.156,0.134,0.318,0.19,0.473c0.021,0.645,0.038,1.316,0.061,2.053c0.039,0.002,0.068,0.002,0.107,0.002
		C79.981,146.58,79.978,146.588,79.971,146.594z M119.508,178.49c-1.964-1.906-3.896-3.725-6.095-5.256
		c-0.618,0.514-1.191,0.996-1.788,1.498c-0.066-1.014-0.124-1.947-0.186-2.938c-0.75-0.748-1.15-1.684-2.093-2.332
		c-1.318-0.9-2.834-0.141-4.199-0.691c0.865-0.191,1.791-0.109,2.679-0.188c-0.397-2.316-0.487-3.412-3.271-3.576
		c3.416-1.676,3.523,2.791,6.255,4.018c0.149,0.068,0.314,0.111,0.461,0.166c0-0.035,0-0.064,0-0.098
		c1.762,0.404,3.248,0.742,5.578,1.271c-0.278,0.229-0.5,0.42-0.761,0.631c0.858,0.51,1.672,1.055,2.437,1.748
		c3.896,3.514,4.046,7.211,7.268,10.809C123.737,181.531,121.816,180.738,119.508,178.49z M129.27,191.223
		c0.013-0.059,0.086-0.195,0.178-0.373C129.444,191.086,129.405,191.248,129.27,191.223z"/>
	<path fill="#B8B8B8" d="M52.466,155.057c-0.031-0.033-0.075-0.1-0.075-0.1C52.127,154.777,52.204,154.846,52.466,155.057z"/>
	<path fill="#B8B8B8" d="M181.309,130.197l0.801-0.725c3.283,2.037,3.953,2.391,8.98,7.287c0.565,1.617,1.535,3.395,2.529,4.936
		h60.689c2.756,0,4.99-2.234,4.99-4.99v-18.326c0-2.756-2.234-4.992-4.99-4.992h-69.964V84.861h42.79
		c-0.272-1.629,0.215-2.354,1.45-3.596c0.987,1.195,1.977,2.396,2.966,3.596h6.779c-1.136-0.662-0.005,0.123-2.179-1.633
		c0.765,0.555,1.521,1.092,2.271,1.633h9.541c2.756,0,4.99-2.234,4.99-4.99V61.559c0-2.756-2.234-4.99-4.99-4.99h-57.546
		c0.79,1.086,1.716,2.303,2.86,3.734c-0.628-0.162-1.262-0.322-1.886-0.488c-0.813-0.723-1.643-1.467-2.461-2.189
		c-0.278-0.354-0.556-0.703-0.833-1.057h-3.753v-4.777c-2.852-3.631-5.707-7.262-8.559-10.887c2.695,1.889,0.683,0.205,4.903,4.367
		c-0.785-2.559-0.97-1.756,0.512-2.652c1.299,1.801,2.298,3.273,3.144,4.566v-14.76c-1.916-3.82-3.831-7.658-5.863-11.547
		l0.802-0.725c3.272,2.037,3.955,2.391,8.979,7.287c0.117,0.33,0.259,0.67,0.404,1.01h58.389c-0.577-0.803-1.167-1.619-1.747-2.426
		c0.839,0.807,1.687,1.615,2.529,2.426h6.471c2.756,0,4.99-2.234,4.99-4.99V5.135c0-2.756-2.234-4.992-4.99-4.992h-30.01
		c0.15,0.137,0.292,0.266,0.468,0.42l-0.269,0.244c-0.266-0.225-0.531-0.441-0.799-0.664h-15.562l-0.088,0.078l-0.068-0.078h-48.451
		c-2.756,0-4.99,2.236-4.99,4.992V91.52c1.138,1.58,2.273,3.156,3.419,4.746c-2.403-0.574-1.628-0.445-2.128,1.918
		c-0.429-0.379-0.86-0.764-1.291-1.152v0.848c0.567,0.447,1.216,0.975,2.088,1.678c0.101,0.641,0.19,1.287,0.288,1.93
		c-0.79-0.805-1.584-1.613-2.376-2.418v4.428c0.812,0.777,1.625,1.559,2.441,2.34l-0.269,0.238
		c-0.448-0.324-0.908-0.652-1.361-0.975c-0.269-0.373-0.541-0.75-0.812-1.127v32.732c0,2.756,2.234,4.99,4.99,4.99h27.616
		C185.237,137.891,183.332,134.068,181.309,130.197z M227.637,71.115l1.109,1.225c0.092,0.643,0.189,1.285,0.285,1.928l-2.193-2.43
		L227.637,71.115z M230.957,76.939c-2.466-0.434-3.509-1.363-7.333-4.391c-2.521-3.627-1.902-3.115-3.307-5.805
		C223.639,68.607,224.777,70.021,230.957,76.939z M219.215,65.521l-0.268,0.238c-1.628-1.449-3.271-2.916-4.902-4.365
		C216.589,62.926,215.61,62.23,219.215,65.521z M213.158,75.391l-0.272,0.242c-0.541-0.242-1.092-0.492-1.623-0.73
		c-0.639-0.891-1.292-1.781-1.923-2.668C211.837,73.918,209.546,72.078,213.158,75.391z M211.881,80.943l-0.795,0.717
		c-1.193-1.143-2.373-2.27-3.543-3.395c-0.931-1.387-1.842-2.754-2.764-4.125C207.144,76.398,209.517,78.67,211.881,80.943z
		 M252.256,21.951l4.375,4.852c-0.909,0.074-1.799,0.15-2.695,0.227l-1.092-1.207c-0.271-0.482-0.551-0.975-0.829-1.457
		C252.091,23.557,252.181,22.771,252.256,21.951z M248.506,23.145c0.095,0.641,0.186,1.287,0.285,1.93
		c-1.91-1.941-3.818-3.885-5.736-5.83C245.192,20.42,245.875,21.031,248.506,23.145z M179.784,37.305
		c0.545,0.965,1.104,1.938,1.651,2.902c-3.328-2.734-2.188-1.574-5.738-5.828L179.784,37.305z M171.825,26.877
		c1.74,2.67,0.629,0.748,1.657,2.906l-2.188-2.426L171.825,26.877z M158.466,14.73l0.531-0.479c1.729,2.666,0.628,0.746,1.656,2.9
		L158.466,14.73z M164.758,103.215c-0.909,0.074-1.799,0.15-2.695,0.227l-1.092-1.207c-0.271-0.482-0.549-0.975-0.829-1.457
		c0.076-0.809,0.166-1.594,0.241-2.416L164.758,103.215z M161.292,124.049l0.531-0.479c1.74,2.666,0.629,0.746,1.652,2.9
		L161.292,124.049z M161.232,121.787c-0.471-1.766-0.943-3.541-1.416-5.316l1.065-0.961l4.363,4.848
		c1.721,4.283,3.322,4.855,9.59,11.172c-0.805-0.004-1.631-0.021-2.43-0.025C168.676,128.264,164.956,125.029,161.232,121.787z
		 M174.12,136.676l0.531-0.479c1.74,2.668,0.629,0.748,1.657,2.904L174.12,136.676z M179.033,123.338l-2.19-2.434
		c0.991,0.566,1.998,1.146,2.992,1.711L179.033,123.338z"/>
	<path fill="#B8B8B8" d="M377.873,82.533c2.729-0.979,5.356-2.238,7.849-3.768c12.723-7.809,20.326-21.334,20.326-36.182
		c0-14.846-7.604-28.371-20.326-36.18c-6.669-4.098-14.297-6.262-22.046-6.262h-70.297c-0.634,0-1.238,0.131-1.794,0.348
		c0.756,0.701,1.623,1.529,2.727,2.604c1.139,3.264,3.926,7.188,5.242,8.482c3.44,3.471,6.916,6.965,10.373,10.445l-0.528,0.477
		c-0.434,1.848-0.862,3.695-1.287,5.539c-2.622-2.014-5.256-4.045-7.89-6.08c-1.903-1.93-3.824-3.879-5.732-5.818
		c-2.061-3.93-4.032-7.875-6.019-11.838c-0.044,0.273-0.083,0.549-0.083,0.834v14.742c4.91,7.02,5.104,8.791,10.939,16.08
		c-0.629-0.162-1.263-0.324-1.889-0.49c-0.81-0.721-1.643-1.467-2.456-2.188c-2.203-2.797-4.396-5.59-6.595-8.387v111.959
		c0,2.756,2.234,4.99,4.991,4.99c0,0,19.489,0.039,19.753-0.002c0.02,0,0.036,0,0.053,0c1.312,0,2.491-0.514,3.383-1.34
		l-1.563-1.732l0.529-0.479c1.359,2.088,0.989,1.385,1.248,2.006c0.862-0.896,1.394-2.105,1.394-3.445V85.033h28.53l30.933,54.289
		c0.888,1.557,2.542,2.52,4.333,2.52h21.098c1.779,0,3.422-0.945,4.316-2.482c0.892-1.537,0.898-3.434,0.021-4.979L377.873,82.533z
		 M309.543,112.902c-0.815-0.723-1.64-1.467-2.458-2.189c-0.914-1.367-1.833-2.742-2.747-4.119c1.08-1.674,2.966,1.705-0.857-3.621
		c1.457,0.893,2.897,1.781,4.348,2.676c1.281,1.779,2.556,3.549,3.84,5.336C309.266,110.41,310.045,110.539,309.543,112.902z
		 M317.134,57.314c-1.193-1.145-2.37-2.27-3.548-3.395c-0.926-1.387-1.84-2.754-2.758-4.127c2.365,2.26,4.739,4.531,7.103,6.805
		L317.134,57.314z M321.504,62.16l0.797-0.719c0.55,0.963,1.104,1.938,1.656,2.912C323.131,63.623,322.313,62.887,321.504,62.16z
		 M340.19,69.506c-2.009-1.865-3.999-3.719-6.005-5.586c-1.605-4.479-1.423-5.125,0.448-7c0.093,0.111,0.181,0.221,0.278,0.332
		c0.575,0.701,1.149,1.402,1.725,2.102c1.067,1.289,2.13,2.578,3.2,3.877c-1.229,0.463-1.732-1.125,0.026,2.166
		c4.245,5.232,4.63,4.463,9.564,9.002c-1.918-1.232-3.821-2.449-5.719-3.67C342.884,71.602,344.461,73.023,340.19,69.506z
		 M342.2,58.883c0.919,0.66,1.818,1.307,2.717,1.951C342.884,59.604,344.651,60.859,342.2,58.883z M350.648,86.461
		c-1.728-2.094-3.47-4.201-5.195-6.303c0.997,0.57,1.986,1.139,2.98,1.707l2.483,4.354L350.648,86.461z M360.708,72.998l-3.28-3.639
		c1.002,0.57,1.996,1.135,2.985,1.703l1.097,1.213L360.708,72.998z M363.675,56.721h-45.5v-5.773
		c-0.288-0.133-0.58-0.264-0.862-0.391c-0.642-0.893-1.292-1.781-1.926-2.668c2.211,1.486,0.692,0.238,2.788,2.205V28.451h45.5
		c7.759,0,14.07,6.34,14.07,14.133C377.746,50.379,371.434,56.721,363.675,56.721z"/>
	<path fill="#B8B8B8" d="M517.97,110.104c0.282,0.285,0.59,0.59,0.97,0.959c-0.21-0.672-0.37-1.104-0.478-1.402
		C518.301,109.809,518.141,109.961,517.97,110.104z"/>
	<path fill="#B8B8B8" d="M552.444,42.584c0-14.846-7.591-28.371-20.301-36.18c-6.691-4.098-14.316-6.262-22.068-6.262h-67.621
		c0.282,0.27,0.584,0.559,0.945,0.9c0.272,0.482,0.546,0.975,0.813,1.439l-3.271-2.34h-1.162c-2.754,0-4.99,2.236-4.99,4.992v10.199
		c0.509,0.289,1.021,0.58,1.522,0.865c0.563,0.982,1.111,1.947,1.657,2.914c-0.901-0.65-1.808-1.291-2.725-1.953
		c-0.148-0.209-0.302-0.424-0.455-0.637v2.449c0.402,0.406,0.904,0.912,1.581,1.58l-0.263,0.238
		c-0.439-0.313-0.88-0.631-1.318-0.943v116.758c0,2.756,2.236,4.99,4.99,4.99h70.295c7.759,0,15.387-2.16,22.063-6.25
		c12.718-7.82,20.306-21.346,20.306-36.182c0-10.48-3.931-20.533-10.932-28.289C548.513,63.105,552.444,53.055,552.444,42.584z
		 M464.601,30.691v-2.24h44.479c7.752,0,14.056,6.34,14.056,14.133c0,7.795-6.304,14.137-14.056,14.137h-11.577l2.673,2.967
		c-0.908,0.076-1.798,0.15-2.695,0.227l-1.092-1.207c-0.27-0.482-0.55-0.975-0.828-1.457c0.02-0.178,0.034-0.354,0.054-0.529h-3.465
		c0.063,0.412,0.126,0.826,0.188,1.238c-0.407-0.412-0.812-0.826-1.219-1.238h-26.518V30.84c-0.124-0.102-0.246-0.205-0.372-0.307
		C464.37,30.596,464.487,30.645,464.601,30.691z M515.25,79.09l-0.799,0.721l-2.191-2.432
		C513.252,77.943,514.259,78.523,515.25,79.09z M492.401,62.309l-0.271,0.24c-0.446-0.324-0.907-0.654-1.36-0.975
		c-0.628-0.879-1.281-1.779-1.92-2.664C490.035,60.039,491.216,61.172,492.401,62.309z M446.844,119.146
		c-1.277-1.068-2.547-2.113-3.807-3.162c2.896,1.299-0.268-0.926,4.072,2.92L446.844,119.146z M452.398,32.387l-0.802,0.719
		l-0.658-0.732c0.507,0.758,1.014,1.518,1.521,2.275l-3.284-3.645l0.292-0.264l-2.234-2.479
		C450.146,29.881,447.877,28.113,452.398,32.387z M448.857,108.521c3.036,2.479,2.681,1.959,5.731,5.832
		C451.264,111.625,452.41,112.785,448.857,108.521z M462.182,138.297l0.796-0.719c1.017,1.301,2.011,2.59,3.034,3.891
		C464.725,140.404,463.461,139.359,462.182,138.297z M463.993,132.273c2.938,1.213,1.074-0.359,6.542,5.115
		c0.534,0.949,1.092,1.924,1.643,2.896C468.496,137.607,467.991,137.08,463.993,132.273z M542.124,112.16l-0.526,0.477
		c-0.434,1.848-0.862,3.695-1.289,5.539c-2.624-2.016-5.256-4.045-7.888-6.08c-1.905-1.93-3.823-3.879-5.731-5.818
		c-1.223-2.328-2.388-4.662-3.558-6.996c-0.029,3.563-1.382,6.807-3.577,9.279c4.757,6.623,5.595,8.916,8.943,13.563l0.512-0.467
		c0.921,1.371,1.84,2.748,2.756,4.123l-3.189-3.541c0.804,1.119,1.754,2.371,2.948,3.857c-0.629-0.164-1.258-0.324-1.882-0.49
		c-0.823-0.721-1.651-1.467-2.466-2.188c-3.331-4.242-6.667-8.48-9.996-12.719c-0.489,0.35-0.999,0.67-1.53,0.955
		c0.01,0.01,0.018,0.018,0.027,0.027l-0.264,0.238c-0.041-0.029-0.085-0.061-0.126-0.09c-1.874,0.934-3.979,1.473-6.207,1.473
		h-44.479v-28.27h39.835c-2.596-2.258-5.19-4.514-7.785-6.773c-0.471-1.766-0.943-3.539-1.416-5.316l1.064-0.961l4.364,4.848
		c1.401,3.477,2.759,4.557,6.561,8.203h1.856c3.046,0,5.858,0.988,8.163,2.648c-0.175-0.34-0.336-0.672-0.517-1.012l0.805-0.723
		c3.274,2.037,3.952,2.389,8.975,7.285c1.143,3.264,3.928,7.186,5.236,8.482C535.196,105.186,538.668,108.68,542.124,112.16z
		 M496.711,80.521l0.531-0.477c1.734,2.666,0.629,0.746,1.652,2.898L496.711,80.521z"/>
	<path fill="#B8B8B8" d="M93.737,33.439l0.797-0.719c0.614,0.785,1.223,1.564,1.83,2.348l2.81-3.453
		c-0.926-0.977-1.974-2.217-3.624-4.199c2.164,0.895,1.732,0.285,3.536,2.084c-0.375-1.385-0.741-2.771-1.116-4.16l1.072-0.959
		l3.163,3.51l18.7-22.963c1.708-2.355-0.678-4.916-2.978-4.916H93.429c-2.771,0-5.973,1.121-7.598,3.365l-2.396,2.85
		c0.624,0.643,1.302,1.482,2.71,3.27c-2.001-1.645-2.388-1.887-3.153-2.746l-5.356,6.367c0.288,0.266,0.619,0.563,1.033,0.932
		l-0.266,0.24c-0.349-0.289-0.689-0.57-1.03-0.857L29.821,69.934V4.99c0-2.756-2.231-4.99-4.99-4.99H4.99C2.232,0,0,2.234,0,4.99
		v79.719v31.98v9.203c1.623,1.553,3.246,3.104,4.866,4.66l-0.797,0.717c-1.194-1.143-2.371-2.27-3.551-3.395
		c-0.173-0.262-0.343-0.514-0.519-0.773v9.426c0,2.756,2.237,4.99,4.99,4.99c0,0,19.49,0.039,19.753-0.002c0,0,0.039,0,0.059,0
		c0.073,0,0.139-0.018,0.21-0.021c-1.297-1.203-2.593-2.41-3.89-3.619c-1.613-4.479-1.426-5.125,0.443-7
		c1.732,2.1,3.466,4.197,5.2,6.311c-1.228,0.463-1.728-1.125,0.029,2.166c0.363,0.447,0.663,0.797,0.975,1.162
		c1.222-0.908,2.022-2.348,2.022-3.988v-3.148c-0.18-0.148-0.385-0.316-0.662-0.539c0.224,0.162,0.443,0.314,0.662,0.473v-16.492
		l66.307-81.424C95.308,34.744,94.529,34.096,93.737,33.439z M98.544,7.232l4.372,4.852c-0.902,0.076-1.799,0.15-2.695,0.227
		l-1.092-1.207c-0.269-0.482-0.546-0.975-0.821-1.457C98.378,8.838,98.476,8.053,98.544,7.232z M10.763,74.064l4.086,2.926
		c0.549,0.965,1.104,1.938,1.647,2.902C13.172,77.16,14.313,78.318,10.763,74.064z M17.331,83.799
		c-0.661-0.035-1.326-0.07-1.996-0.102c-0.358-1.004-0.212-0.697,0.934-1.391C16.645,82.83,16.999,83.326,17.331,83.799z
		 M5.868,125.242c-0.541-0.242-1.097-0.492-1.621-0.73c-0.646-0.893-1.294-1.781-1.928-2.668c2.503,1.684,0.207-0.156,3.812,3.156
		L5.868,125.242z M6.891,66.564c1.739,2.668,0.628,0.748,1.656,2.904L6.36,67.045L6.891,66.564z M8.441,136.115l0.789-0.719
		c0.554,0.963,1.106,1.938,1.657,2.912C10.066,137.578,9.248,136.842,8.441,136.115z M11.925,115.369
		c-1.625-1.451-3.271-2.918-4.903-4.365c2.547,1.531,1.567,0.836,5.171,4.127L11.925,115.369z M10.853,80.59
		c2.364,1.652,1.111,0.57,3.597,3.066c-0.409-0.018-0.818-0.037-1.226-0.051C12.432,82.602,11.645,81.594,10.853,80.59z
		 M25.292,129.605c-0.816-0.725-1.641-1.467-2.459-2.191c-0.334-0.504-0.673-1.014-1.014-1.521
		c-1.336-0.625-2.645-1.703-5.215-3.734c-2.524-3.627-1.905-3.115-3.31-5.805c2.607,1.465,3.906,2.693,7.32,6.486
		c0.142-0.053,0.278-0.07,0.407-0.061l-1.204-1.334l0.422-0.381c-0.28-0.383-0.609-0.83-1.009-1.391
		c1.455,0.893,2.895,1.781,4.342,2.676c1.292,1.779,2.559,3.549,3.846,5.338C25.016,127.111,25.793,127.24,25.292,129.605z
		 M38.414,86.531c-0.429,1.848-0.858,3.693-1.282,5.539c-2.441-1.875-4.893-3.762-7.34-5.656v-1.705c0,0-0.74-0.068-1.983-0.174
		c-1.433-1.451-2.865-2.91-4.293-4.363c-3.417-6.488-6.504-12.982-9.967-19.607l0.804-0.725c3.271,2.037,3.953,2.391,8.975,7.287
		c1.144,3.264,3.931,7.186,5.237,8.482c3.453,3.471,6.925,6.965,10.381,10.443L38.414,86.531z M94.79,8.426
		c0.1,0.641,0.188,1.287,0.29,1.93c-1.906-1.941-3.816-3.883-5.736-5.83C91.478,5.701,92.165,6.314,94.79,8.426z M91.594,11.307
		c1.175,1.129,2.364,2.262,3.554,3.398l-0.273,0.24c-0.448-0.324-0.911-0.654-1.359-0.975
		C92.881,13.092,92.238,12.191,91.594,11.307z"/>
</g>
</svg>
