<?xml version="1.0" encoding="utf-8"?>
<!-- Generator: Adobe Illustrator 16.0.0, SVG Export Plug-In . SVG Version: 6.00 Build 0)  -->
<!DOCTYPE svg PUBLIC "-//W3C//DTD SVG 1.1//EN" "http://www.w3.org/Graphics/SVG/1.1/DTD/svg11.dtd">
<svg version="1.1" id="Layer_1" xmlns="http://www.w3.org/2000/svg" xmlns:xlink="http://www.w3.org/1999/xlink" x="0px" y="0px"
	 width="552.441px" height="195.296px" viewBox="0 0 552.441 195.296" enable-background="new 0 0 552.441 195.296"
	 xml:space="preserve">
<g>
	<path fill="#B8B8B8" d="M140.762,129.865c-1.1-1.461-2.547-0.943-4.084-0.402c0.021-1.004,0.037-2.135-0.705-2.936
		c-0.701-0.775-1.855-1-2.764-1.498c-1.766-0.988-3.41-2.367-4.283-4.143c-0.043-0.088-0.102-0.164-0.154-0.252
		c-0.092,0.307-0.178,0.59-0.24,0.809c1.938,3.068,3.936,6.027,5.637,9.148c0.016,0.033,0,0.084,0.016,0.119
		c-0.1-0.135-0.201-0.271-0.301-0.406c0.082,0.682-0.547,1.723-0.805,2.57c-0.449-0.125-0.887-0.246-1.34-0.361
		c-0.133-1.074-0.273-2.145-0.434-3.404c-4.012-0.109-5.859-2.461-5.766-5.877c0.01-0.086,0.031-0.166,0.039-0.252
		c-1.088-0.662-2.213-1.301-3.416-1.844c-0.664-0.293-1.361-0.535-2.047-0.795c0.424,1.314,0.438,2.668,0.307,4.029
		c0.068,1.189-0.025,1.701-0.186,1.756c-0.176,0.064-0.414-0.326-0.717-0.934c-2.758-1.822-1.887-3.734-1.725-4.834
		c-3.387,0.814-3.766-0.873-2.725-2.678c0.205-0.361,0.461-0.717,0.771-1.064c0.447-0.506,0.971-0.988,1.572-1.377
		c0.203-0.133,0.424-0.264,0.648-0.373c0.199,0.039,0.363-0.258,0.594,0.082c0.006-0.266,0.195,1.238,0.137,0.316
		c0.02,0.018,0.035,0.029,0.055,0.037c0.408,0.215,2.547,1.918,4.766,3.719c0.598,1.248,1.564,0.734,2.314,1.822
		c0.068-0.514,0.805-1.898,1.146-2.828c-0.953-1.316-1.979-2.59-2.613-4.061c-0.43-0.988-0.541-2.143-1.207-3.023
		c-0.484-0.645-1.414-1.879-2.111-2.289c-0.805-0.465-0.258,0.26-0.941,0.422c-0.551,0.127-0.877-0.721-1.408,0.012
		c-0.496-0.891-1.145,0.027-1.754,0.172c-0.4-0.836-1.014-1.506-1.379-2.371c-0.273-0.637-0.578-1.539-1.389-1.68
		c-0.625-1.604-2.643-2.246-3.939-3.357c-1.688-1.436-3.213-3.008-4.648-4.672c-2.754-3.205,2.551,0.039-0.205-3.176
		c-1.385-1.615-2.955-3.064-4.57-4.479c-0.801-0.717-1.707-1.279-2.588-1.91c-0.762-0.543-1.99-0.867-2.594-1.541
		c-0.209-0.24-0.248-0.684-0.5-0.879c-0.32-0.234-0.625-0.102-0.984-0.176c-0.879-0.186-1.455-0.967-1.824-1.711
		c-0.225-0.453-0.084-1.053-0.332-1.402c-0.137-0.188-0.678-0.389-0.875-0.561c-0.396-0.34-0.693-0.775-1.063-1.146
		c-0.621-0.652-1.221-1.775-2.008-2.219c-0.406-0.223-0.898-0.234-1.313-0.467c-0.498-0.285-3.666-2.646-4.027-3.08
		c-1.67-2.053-0.633-0.502-2.504-2.41c1.627,1.83-2.865-0.143-2.729,1.857c-0.035-0.104-0.113-0.182-0.16-0.275
		c-0.123,0.217-0.26,0.453-0.453,0.617c-0.469-0.283-0.895-0.686-1.273-1.068c-0.639,1.865,2.369,5.588,2.541,7.506
		c0.059,0.646,0.578,3.354-0.875,2.496c-1.199-0.725-0.195-0.5-1.32-1.379c-0.502-0.393-2.09-1.736-2.611-1.205
		c-0.234,0.242-0.313,1.225-0.396,1.564c-0.189,0.906-1.715-0.041-1.607,0.873c-0.584-0.473-0.156,0.531-0.838,0.162
		c-0.104,0.189,15.709,17.904,6.838,8.4c0.049,1.979-6.508-6.479-5.445-4.717c1.082,1.795-0.463,2.439-2.012,1.441
		c-1.152-0.738-1.082-0.998-1.93-2.018c-0.736,0.527-2.566,0.246-2.861,1.109c-0.332,0.943,0.322,1.342,1.043,1.859
		c0.486,0.354,1.51,1.102,1.105,1.832c-0.375,0.695-1.023,0.064-1.379-0.318c-0.551-0.574,0.107,1.457,1.197,2.656
		c0.834,0.918,1.85,1.652,2.727,2.533c0.873,0.891,1.473,1.895,2.09,2.947c0.709,1.184,1.42,2.277,2.516,3.18
		c0.039-0.029,0.102-0.084,0.146-0.125c0.186,0.795,0.834,1.416,1.418,1.936c0.58,0.52,1.34,1.17,1.994,1.771
		c0.695,0.656,1.324,1.389,2.08,1.988c0.711,0.559,1.809,1.305,1.705,2.299c1.18,1.699,2.988-2.162,3.621-0.191
		c0.48,1.463,0.182,3.094,0.674,4.572c0.424,1.291,1.307,2.307,2.256,3.281c2.369,2.426-2.43-2.785,0.346-0.854
		c2.813,1.951,4.484,4.213,6.395,6.902c1.359,1.928,3.334,3.332,5.279,4.699c0.98,0.689,1.777,1.574,2.787,2.244
		c1.104,0.738,2.217,0.695,3.471,0.363c1.188-0.313,2.605-0.633,3.85-0.625c0.852,0.002,2.115,0.154,2.582,0.926
		c0.619,1.02,0.293,2.725-0.328,3.676c-0.055,0.748-1.645,1.535-2.205,2.061c-0.176-0.369-0.609-0.182-0.684,0.135
		c-0.078,0.316,0.469,0.938,0.629,1.191c0.461,0.725,0.902,1.145,1.584,1.582c0.936,0.604,2.596,1.947,2.578,3.139
		c0.498,0.604,1.283,0.84,1.736,1.529c0.715,1.109,1.193,1.953,2.211,2.881c1.01,0.918,8.252,9.094,9.639,8.75
		c1.918-0.477-3.16-8.248-3.082-8.572c0.408-0.076,6.141,7.703,6.398,7.982c-0.16-0.074-0.313,0.08-0.41,0.33
		c0.918,1.295,2.252,1.912,3.539,2.793c0.648,0.443,1.311,0.883,1.959,1.34c0.492,0.346,1.721,1.633,2.344,1.428
		c-0.74-1.098-1.676-2.107-2.578-3.078c-0.545-0.594-1.334-1.375-1.773-2.186c-1.027-0.863-1.232-1.201-3.721-4.188
		c2.492,2.033,2.727,2.084,4.402,4.16c0.576,0.539,1.137,1.104,1.795,1.467c0.881,0.479,2.25,0.875,3.236,1.057
		c-0.26-1.049-1.072-1.4-1.84-2.094c-1.018-0.914-1.115-1.375-0.666-2.561c0.551-1.441-6.131-8.619-6.574-10.084
		c-0.863-2.91-3.068-5.186-4.748-7.686c-0.861-1.268-1.578-2.578-1.811-4.084c0.963,4.313,6.105,5.09,8.541,8.453
		c0.916,1.266,1.248,2.758,1.551,4.24c2.127-0.469,2.668-1.588,2.229-3.559c-0.283-1.24-1.283-2.895-0.98-4.182
		c0.213-0.879,1.016-0.666,1.861-0.588c-0.928-2.104-2.328-4.012-3.713-5.873c2.451,1.291,5.313,2.75,8.148,3.02
		C142.178,132.297,141.658,131.043,140.762,129.865z M90.814,115.619c2.941,1.627,0.639,0.145,3.82,3.166
		C93.354,117.723,92.094,116.676,90.814,115.619z M102.756,122.436l0.797-0.719l5.477,6.07
		C105.717,126.541,107.359,127.865,102.756,122.436z"/>
	<path fill="#FFFFFF" d="M136.445,126.699c0.033,0.018,0.066,0.037,0.104,0.055c0.088,0.049,0.186,0.1,0.285,0.152
		c-0.125-0.141-0.232-0.258-0.414-0.445c0.006,0.041,0.012,0.115,0.016,0.213C136.436,126.678,136.441,126.695,136.445,126.699z"/>
	<path fill="#FFFFFF" d="M120.834,167.58c0.041,0.072,0.113,0.168,0.164,0.242c0.01-0.014,0.02-0.029,0.033-0.049
		C122.502,169.141,119.822,165.613,120.834,167.58z"/>
	<path fill="#B8B8B8" d="M134.455,183.863c0.953-0.484,1.912-1,1.91-1.418c2.145-1.82-7.527-5.73-7.084-5.854
		c-0.367-0.803-0.707-0.994-1.082-1.104c-1.023-2.072-5.988-5.775-7.201-7.666c-0.252,0.652-0.906,1.303-2.17,1.982
		c-4.484,0.205-1.963-2.184-0.168-4.607c-1.051-1.373-1.895-2.914-2.396-4.734c-0.244-1.178-6.719-6.746-7.158-7.223
		c-0.111-0.123-0.223-0.242-0.342-0.367c-0.361-0.381-0.77-0.838-1.223-1.648c-0.414-0.424-0.85-0.678-1.309-0.893
		c-0.824-0.387-1.672-0.609-2.535-1.287c-1.979-0.68-2.727-0.764-3.367-3.051c-0.363-0.494-0.66-1.715-1.107-2.604
		c-0.242-0.508-0.537-0.91-0.922-1.004c-0.85-1.115-1.461-1.766-2.063-2.592c-0.463-0.625-0.912-1.342-1.463-2.439
		c-0.289,0.342-0.57,0.678-0.832,0.994c-0.191,0.217-0.373,0.432-0.549,0.607c-0.451,0.439-0.879,0.721-1.332,0.676
		c-0.303,1.666-3.127,1.795-3.127,1.795c-0.09-1.967-0.213-3.926-0.523-5.854c-0.064-0.404-0.162-0.801-0.244-1.201
		c-0.277-1.293-0.625-2.576-1.178-3.822c-0.721-0.096-1.352-0.34-2.68-0.895c0.008-0.986,0.002-1.621-0.012-2.068
		c-1.295-1.15-2.641-2.223-4.021-3.254c0.691,0.502,1.164,0.785,1.174,0.631c-0.111-0.355-0.227-0.623-0.355-0.914
		c-1.232-3.004-10.211-9.42-11.973-8.182c-2,1.408-4.074,3.631-5.576,2.318c0.744-0.59,1.379-1.15,1.92-1.684
		c0.082-0.082,0.15-0.16,0.229-0.244c0.439-0.449,0.818-0.887,1.125-1.305c1.082-1.455,1.387-2.713,1.145-3.871
		c-0.406-1.951-2.318-3.641-4.652-5.551c-1.492-1.225-3.131-2.553-4.633-4.102c-0.594-0.607-1.168-1.236-1.693-1.92
		c-0.199,0.221-0.369,0.439-0.541,0.654c-0.225,0.271-0.404,0.541-0.568,0.811c-1.422,2.301-0.828,2.141,1.605,4.275
		c1.826,3.5-5.748-1.893-8.168,0.379c-1.752,2.746,5.998,11.414,5.107,12.041c-1.193,0.828-5.121-5.834-6.193-6.611
		c-1.369-1-2.854-0.148-4.285-1.08c-0.125-0.074-3.244,3.824-1.266,2.891c0.426,0.701,0.865,1.379,1.332,2.037
		c0.422,0.602-0.246,1.57-0.531,2.398c-0.145,0.412-0.197,0.793,0.041,1.072l0.518-0.027c0.283,0.102,0.57,0.205,0.852,0.307
		c1.195,0.432,2.389,0.861,3.584,1.287c-0.377,0.807-0.746,1.621-1.117,2.428c1.17,1.135,2.393,2.258,3.65,3.385
		c0.307,0.277,0.633,0.561,0.947,0.838c0.604,0.531,1.193,1.063,1.816,1.598c0.383,0.508,0.719,1.035,1.045,1.436
		c0.047,0.061,0.105,0.148,0.156,0.203c0.012,0.277,0.027,0.262,0.068,0.154c0-0.023,0.002-0.043,0.029-0.16
		c0.061-0.287,0.125-0.662,0.154-0.01c0.037-0.516,0.115-0.393,0.201-0.059c0.035,0.168,0.08,0.385,0.121,0.592
		c0.047,0.203,0.082,0.398,0.098,0.539c-0.094-0.17-0.143,0.605-0.219,0.848c-0.031,0.1-0.066,0.115-0.111-0.127
		c-0.117,2.053-0.516-2.014-0.699-1.762c-0.516,0.016-1.16-0.691-1.926-1.635c-2.715-1.525-4.863-4.234-7.049-6.879
		c-0.777-0.48-7.27-2.285-8.045-2.762c0.322,0.559,0.85,1.18,1.447,1.824c-0.227-0.096-0.027,0.357,0.635,1.367
		c0.135,0.203,0.256,0.422,0.381,0.629c0.102-0.225,0.205-0.449,0.311-0.672c2.949,2.74,7.207,5.721,9.516,7.291
		c0.309,0.217,0.641,0.771,0.988,1.391l-0.104,0.004c0.771,1.521,0.209,0.945,0.926,1.434c0.328,0.525,0.643,0.938,0.971,0.988
		c1.016,2.465,1.92,1.586,2.982,3.582c0.66,2.555,1.217,2.785,1.768,2.783c-0.068-0.514-0.131-1.125-0.191-1.811
		c0-0.041,0-0.092-0.01-0.137c-0.01-0.064-0.035-0.16-0.064-0.287c-0.061-0.285-0.18-0.795-0.352-1.527
		c-0.025-0.113-0.037-0.182-0.068-0.305c-0.029-0.654,0.02-1.041,0.129-1.266c0.479,0.453,0.984,0.924,1.506,1.418
		c-0.008,0.086,0,0.176-0.008,0.256c0.018,1.555-0.004,2.842-0.049,3.793c0.156,0.098,0.313,0.246,0.475,0.506
		c-0.01-0.225-0.014-0.35-0.014-0.414c-0.02-0.412,0.027,0.238,0.051,0.59c0.01,0.195,0.02,0.254,0.018,0.018
		c0-0.037-0.01-0.074-0.008-0.125c0.186,0.42,0.363,0.713,0.541,0.963c0.016,0.006,0.018,0.012,0.025,0.02
		c0.307,0.436,0.621,0.68,0.926,0.838c-0.092,0.145-0.201,0.35-0.313,0.68c0.414-0.025,0.879,1.146,1.291,1.387
		c0.645,0.736,1.287,1.635,1.9,2.4c0.717,0.273,1.195,0.799,1.57,1.457c0.205,0.365,0.375,0.764,0.541,1.182
		c0.77,1.977,1.291,4.27,3.822,4.316c0.115,0.004,0.262-0.018,0.393-0.021c0.221-0.018,0.43-0.025,0.674-0.068
		c0.443,0.363,0.893,0.779,1.35,1.232c0.457,0.459,3.432,0.07,3.9,0.586c0.033,0.271,0.07,0.662,0.113,0.93
		c0.031,0.199,0.064,0.34,0.08,0.277c0.598,0.473,1.209,1.148,1.813,1.826c0.049,0.641,0.061,0.486,0.061,0.07
		c0.391-0.541,0.725-0.627,0.969-0.58c0.113,0.02,0.227,0.068,0.289,0.121c0.73,1.584,1.789,3.752,3.68,5.076
		c1.572,1.105,3.965,1.348,5.07,2.77c0.752,0.971-1.914,0.604-1.48,1.697c1.016,2.557,4.742,6.617,6.525,7.928
		c0.41,0.707,0.805,0.93,1.211,1.297c1.141,0.754,8.428,6.756,9.572,8.092c0.539,0.375,1.143,0.908,1.732,1.473
		c0.768,0.711,1.541,1.465,2.254,1.996c1.275,1.158,2.357,2.1,2.951,3.9c0.217,0.584,0.229,1.584,0.691,1.453
		c0.58-0.162,2.289,2.352,3.832,2.076c1.313-0.236,2.445-3.193,3.283-4.074c0.48-0.502-2.521-2.365-2.563-3.314
		c-0.055-1.094,2.816-1.287,2.816-1.885c-0.01-2.354-5.824-4.262-4.6-4.791c2.52-1.088,5.615,1.607,8.631,5.23
		c0.607,0.729,1.123,2.846,1.73,3.492c2.719,2.895,5.709,3.744,6.418,3.082c1.17-1.084,0.818-2.59-0.033-4.041
		c0.34-0.6,0.713-1.242,1.059-1.832c0.617-1.066,7.201,7.33,8.615,5.605C140.939,191.813,133.498,184.348,134.455,183.863z
		 M68.51,147.703c-0.242-0.588-0.469-1.174-0.705-1.758l0.627-0.025c0.207,0.182,0.432,0.377,0.648,0.563
		C68.893,146.895,68.695,147.297,68.51,147.703z M79.662,126.486c0.045,0.389,0.104,0.789,0.141,1.141
		c0.025,0.268,0.061,0.488,0.08,0.732c-0.488,0.016-0.936,0.021-1.348,0.025c-0.178-0.623-0.35-1.168-0.479-1.617
		C78.605,126.658,79.123,126.568,79.662,126.486z M74.096,120.309c0.002-0.678,2.67,1.387,4.789,2.99
		c-0.229-0.162-0.453-0.33-0.684-0.488C76.887,121.924,75.543,121.076,74.096,120.309z M79.971,146.594
		c-0.037,0-0.055,0-0.098-0.002c0.008,0.068-0.002,0.141,0.008,0.209c-0.037,0.074-0.076,0.154-0.111,0.225
		c-0.621-0.117-1.246-0.238-1.881-0.357c-0.014-0.697-0.018-1.367-0.023-1.982c0.207-0.129,0.613-0.17,1.762-0.639
		c0.07,0.156,0.133,0.318,0.189,0.473c0.021,0.645,0.039,1.316,0.061,2.053c0.039,0.002,0.068,0.002,0.107,0.002
		C79.98,146.58,79.977,146.588,79.971,146.594z M119.508,178.49c-1.965-1.906-3.896-3.725-6.096-5.256
		c-0.617,0.514-1.191,0.996-1.787,1.498c-0.066-1.014-0.125-1.947-0.186-2.938c-0.75-0.748-1.15-1.684-2.094-2.332
		c-1.318-0.9-2.834-0.141-4.199-0.691c0.865-0.191,1.791-0.109,2.68-0.188c-0.398-2.316-0.488-3.412-3.271-3.576
		c3.416-1.676,3.523,2.791,6.256,4.018c0.148,0.068,0.314,0.111,0.461,0.166c0-0.035,0-0.064,0-0.098
		c1.762,0.404,3.248,0.742,5.578,1.271c-0.279,0.229-0.5,0.42-0.762,0.631c0.859,0.51,1.672,1.055,2.438,1.748
		c3.896,3.514,4.045,7.211,7.268,10.809C123.736,181.531,121.814,180.738,119.508,178.49z M129.27,191.223
		c0.012-0.059,0.086-0.195,0.178-0.373C129.443,191.086,129.404,191.248,129.27,191.223z"/>
	<path fill="#FFFFFF" d="M181.309,130.197l0.801-0.725c3.283,2.037,3.953,2.391,8.98,7.287c0.564,1.617,1.535,3.395,2.529,4.936
		h60.689c2.756,0,4.99-2.234,4.99-4.99v-18.326c0-2.756-2.234-4.992-4.99-4.992h-69.965V84.861h42.791
		c-0.273-1.629,0.215-2.354,1.449-3.596c0.988,1.195,1.977,2.396,2.967,3.596h6.779c-1.137-0.662-0.006,0.123-2.18-1.633
		c0.766,0.555,1.521,1.092,2.271,1.633h9.541c2.756,0,4.99-2.234,4.99-4.99V61.559c0-2.756-2.234-4.99-4.99-4.99h-57.547
		c0.791,1.086,1.717,2.303,2.861,3.734c-0.629-0.162-1.262-0.322-1.887-0.488c-0.813-0.723-1.643-1.467-2.461-2.189
		c-0.277-0.354-0.555-0.703-0.832-1.057h-3.754v-4.777c-2.852-3.631-5.707-7.262-8.559-10.887c2.695,1.889,0.684,0.205,4.904,4.367
		c-0.785-2.559-0.971-1.756,0.512-2.652c1.299,1.801,2.297,3.273,3.143,4.566v-14.76c-1.916-3.82-3.83-7.658-5.863-11.547
		l0.803-0.725c3.271,2.037,3.955,2.391,8.979,7.287c0.117,0.33,0.26,0.67,0.404,1.01h58.389c-0.576-0.803-1.166-1.619-1.746-2.426
		c0.838,0.807,1.686,1.615,2.529,2.426h6.471c2.756,0,4.99-2.234,4.99-4.99V5.135c0-2.756-2.234-4.992-4.99-4.992h-30.01
		c0.15,0.137,0.291,0.266,0.467,0.42l-0.268,0.244c-0.266-0.225-0.531-0.441-0.799-0.664h-15.563l-0.088,0.078l-0.068-0.078h-48.451
		c-2.756,0-4.99,2.236-4.99,4.992V91.52c1.139,1.58,2.273,3.156,3.42,4.746c-2.404-0.574-1.629-0.445-2.129,1.918
		c-0.428-0.379-0.859-0.764-1.291-1.152v0.848c0.568,0.447,1.217,0.975,2.088,1.678c0.102,0.641,0.191,1.287,0.289,1.93
		c-0.791-0.805-1.584-1.613-2.377-2.418v4.428c0.813,0.777,1.625,1.559,2.441,2.34l-0.268,0.238
		c-0.449-0.324-0.908-0.652-1.361-0.975c-0.27-0.373-0.541-0.75-0.813-1.127v32.732c0,2.756,2.234,4.99,4.99,4.99h27.617
		C185.236,137.891,183.33,134.068,181.309,130.197z M227.637,71.115l1.109,1.225c0.092,0.643,0.189,1.285,0.285,1.928l-2.193-2.43
		L227.637,71.115z M230.955,76.939c-2.465-0.434-3.508-1.363-7.332-4.391c-2.521-3.627-1.902-3.115-3.307-5.805
		C223.639,68.607,224.775,70.021,230.955,76.939z M219.215,65.521l-0.268,0.238c-1.629-1.449-3.271-2.916-4.902-4.365
		C216.588,62.926,215.609,62.23,219.215,65.521z M213.156,75.391l-0.271,0.242c-0.541-0.242-1.092-0.492-1.623-0.73
		c-0.639-0.891-1.293-1.781-1.924-2.668C211.836,73.918,209.545,72.078,213.156,75.391z M211.881,80.943l-0.795,0.717
		c-1.193-1.143-2.373-2.27-3.543-3.395c-0.932-1.387-1.842-2.754-2.764-4.125C207.143,76.398,209.516,78.67,211.881,80.943z
		 M252.256,21.951l4.375,4.852c-0.91,0.074-1.799,0.15-2.695,0.227l-1.092-1.207c-0.271-0.482-0.551-0.975-0.83-1.457
		C252.09,23.557,252.18,22.771,252.256,21.951z M248.506,23.145c0.094,0.641,0.186,1.287,0.285,1.93
		c-1.91-1.941-3.818-3.885-5.736-5.83C245.191,20.42,245.873,21.031,248.506,23.145z M179.783,37.305
		c0.545,0.965,1.104,1.938,1.65,2.902c-3.328-2.734-2.188-1.574-5.738-5.828L179.783,37.305z M171.824,26.877
		c1.74,2.67,0.629,0.748,1.656,2.906l-2.188-2.426L171.824,26.877z M158.465,14.73l0.531-0.479c1.73,2.666,0.629,0.746,1.656,2.9
		L158.465,14.73z M164.758,103.215c-0.91,0.074-1.799,0.15-2.695,0.227l-1.092-1.207c-0.271-0.482-0.549-0.975-0.83-1.457
		c0.076-0.809,0.166-1.594,0.242-2.416L164.758,103.215z M161.291,124.049l0.531-0.479c1.74,2.666,0.629,0.746,1.652,2.9
		L161.291,124.049z M161.23,121.787c-0.471-1.766-0.943-3.541-1.416-5.316l1.066-0.961l4.363,4.848
		c1.721,4.283,3.322,4.855,9.59,11.172c-0.805-0.004-1.631-0.021-2.43-0.025C168.676,128.264,164.955,125.029,161.23,121.787z
		 M174.119,136.676l0.531-0.479c1.74,2.668,0.629,0.748,1.656,2.904L174.119,136.676z M179.031,123.338l-2.189-2.434
		c0.99,0.566,1.998,1.146,2.992,1.711L179.031,123.338z"/>
	<path fill="#FFFFFF" d="M377.871,82.533c2.73-0.979,5.357-2.238,7.85-3.768c12.723-7.809,20.326-21.334,20.326-36.182
		c0-14.846-7.604-28.371-20.326-36.18c-6.67-4.098-14.297-6.262-22.047-6.262h-70.297c-0.633,0-1.238,0.131-1.793,0.348
		c0.756,0.701,1.623,1.529,2.727,2.604c1.139,3.264,3.926,7.188,5.242,8.482c3.439,3.471,6.916,6.965,10.373,10.445l-0.529,0.477
		c-0.434,1.848-0.861,3.695-1.287,5.539c-2.621-2.014-5.256-4.045-7.889-6.08c-1.904-1.93-3.824-3.879-5.732-5.818
		c-2.061-3.93-4.033-7.875-6.02-11.838c-0.043,0.273-0.082,0.549-0.082,0.834v14.742c4.91,7.02,5.104,8.791,10.939,16.08
		c-0.629-0.162-1.264-0.324-1.889-0.49c-0.811-0.721-1.643-1.467-2.457-2.188c-2.203-2.797-4.396-5.59-6.594-8.387v111.959
		c0,2.756,2.234,4.99,4.99,4.99c0,0,19.49,0.039,19.754-0.002c0.02,0,0.035,0,0.053,0c1.311,0,2.49-0.514,3.383-1.34l-1.563-1.732
		l0.529-0.479c1.359,2.088,0.988,1.385,1.248,2.006c0.861-0.896,1.393-2.105,1.393-3.445V85.033h28.531l30.932,54.289
		c0.889,1.557,2.543,2.52,4.334,2.52h21.098c1.779,0,3.422-0.945,4.316-2.482c0.891-1.537,0.898-3.434,0.021-4.979L377.871,82.533z
		 M309.543,112.902c-0.816-0.723-1.641-1.467-2.459-2.189c-0.914-1.367-1.832-2.742-2.746-4.119c1.08-1.674,2.965,1.705-0.857-3.621
		c1.457,0.893,2.896,1.781,4.348,2.676c1.281,1.779,2.555,3.549,3.84,5.336C309.266,110.41,310.045,110.539,309.543,112.902z
		 M317.133,57.314c-1.193-1.145-2.369-2.27-3.547-3.395c-0.926-1.387-1.84-2.754-2.758-4.127c2.365,2.26,4.738,4.531,7.102,6.805
		L317.133,57.314z M321.504,62.16l0.797-0.719c0.549,0.963,1.104,1.938,1.656,2.912C323.131,63.623,322.313,62.887,321.504,62.16z
		 M340.189,69.506c-2.01-1.865-4-3.719-6.006-5.586c-1.605-4.479-1.422-5.125,0.449-7c0.092,0.111,0.18,0.221,0.277,0.332
		c0.576,0.701,1.15,1.402,1.725,2.102c1.068,1.289,2.131,2.578,3.201,3.877c-1.229,0.463-1.732-1.125,0.025,2.166
		c4.246,5.232,4.631,4.463,9.564,9.002c-1.918-1.232-3.82-2.449-5.719-3.67C342.883,71.602,344.461,73.023,340.189,69.506z
		 M342.199,58.883c0.918,0.66,1.818,1.307,2.717,1.951C342.883,59.604,344.65,60.859,342.199,58.883z M350.646,86.461
		c-1.727-2.094-3.469-4.201-5.195-6.303c0.998,0.57,1.986,1.139,2.98,1.707l2.484,4.354L350.646,86.461z M360.707,72.998
		l-3.281-3.639c1.002,0.57,1.996,1.135,2.986,1.703l1.096,1.213L360.707,72.998z M363.674,56.721h-45.5v-5.773
		c-0.287-0.133-0.58-0.264-0.861-0.391c-0.643-0.893-1.293-1.781-1.926-2.668c2.211,1.486,0.691,0.238,2.787,2.205V28.451h45.5
		c7.76,0,14.07,6.34,14.07,14.133C377.744,50.379,371.434,56.721,363.674,56.721z"/>
	<path fill="#FFFFFF" d="M517.969,110.104c0.283,0.285,0.59,0.59,0.971,0.959c-0.211-0.672-0.371-1.104-0.479-1.402
		C518.301,109.809,518.141,109.961,517.969,110.104z"/>
	<path fill="#FFFFFF" d="M552.443,42.584c0-14.846-7.592-28.371-20.301-36.18c-6.691-4.098-14.316-6.262-22.068-6.262h-67.621
		c0.281,0.27,0.584,0.559,0.945,0.9c0.271,0.482,0.545,0.975,0.813,1.439l-3.27-2.34h-1.162c-2.754,0-4.99,2.236-4.99,4.992v10.199
		c0.508,0.289,1.02,0.58,1.521,0.865c0.564,0.982,1.111,1.947,1.658,2.914c-0.902-0.65-1.809-1.291-2.725-1.953
		c-0.148-0.209-0.303-0.424-0.455-0.637v2.449c0.402,0.406,0.904,0.912,1.58,1.58l-0.262,0.238
		c-0.439-0.313-0.881-0.631-1.318-0.943v116.758c0,2.756,2.236,4.99,4.99,4.99h70.295c7.758,0,15.387-2.16,22.063-6.25
		c12.719-7.82,20.307-21.346,20.307-36.182c0-10.48-3.932-20.533-10.932-28.289C548.512,63.105,552.443,53.055,552.443,42.584z
		 M464.6,30.691v-2.24h44.48c7.752,0,14.055,6.34,14.055,14.133c0,7.795-6.303,14.137-14.055,14.137h-11.578l2.674,2.967
		c-0.908,0.076-1.799,0.15-2.695,0.227l-1.092-1.207c-0.27-0.482-0.551-0.975-0.828-1.457c0.02-0.178,0.033-0.354,0.053-0.529
		h-3.465c0.064,0.412,0.127,0.826,0.188,1.238c-0.406-0.412-0.811-0.826-1.219-1.238H464.6V30.84
		c-0.123-0.102-0.246-0.205-0.371-0.307C464.369,30.596,464.486,30.645,464.6,30.691z M515.25,79.09l-0.799,0.721l-2.191-2.432
		C513.252,77.943,514.258,78.523,515.25,79.09z M492.4,62.309l-0.271,0.24c-0.445-0.324-0.906-0.654-1.359-0.975
		c-0.629-0.879-1.281-1.779-1.92-2.664C490.033,60.039,491.215,61.172,492.4,62.309z M446.844,119.146
		c-1.277-1.068-2.547-2.113-3.807-3.162c2.895,1.299-0.268-0.926,4.072,2.92L446.844,119.146z M452.396,32.387l-0.801,0.719
		l-0.658-0.732c0.506,0.758,1.014,1.518,1.52,2.275l-3.283-3.645l0.291-0.264l-2.234-2.479
		C450.145,29.881,447.877,28.113,452.396,32.387z M448.855,108.521c3.037,2.479,2.682,1.959,5.732,5.832
		C451.264,111.625,452.408,112.785,448.855,108.521z M462.182,138.297l0.795-0.719c1.018,1.301,2.012,2.59,3.035,3.891
		C464.725,140.404,463.461,139.359,462.182,138.297z M463.992,132.273c2.938,1.213,1.074-0.359,6.541,5.115
		c0.535,0.949,1.092,1.924,1.643,2.896C468.494,137.607,467.99,137.08,463.992,132.273z M542.123,112.16l-0.527,0.477
		c-0.434,1.848-0.861,3.695-1.289,5.539c-2.623-2.016-5.256-4.045-7.887-6.08c-1.906-1.93-3.824-3.879-5.732-5.818
		c-1.223-2.328-2.387-4.662-3.557-6.996c-0.029,3.563-1.383,6.807-3.578,9.279c4.758,6.623,5.596,8.916,8.943,13.563l0.512-0.467
		c0.922,1.371,1.84,2.748,2.756,4.123l-3.189-3.541c0.805,1.119,1.754,2.371,2.949,3.857c-0.629-0.164-1.258-0.324-1.883-0.49
		c-0.822-0.721-1.65-1.467-2.465-2.188c-3.332-4.242-6.668-8.48-9.996-12.719c-0.49,0.35-1,0.67-1.531,0.955
		c0.01,0.01,0.018,0.018,0.027,0.027l-0.264,0.238c-0.041-0.029-0.084-0.061-0.125-0.09c-1.875,0.934-3.98,1.473-6.207,1.473H464.6
		v-28.27h39.836c-2.596-2.258-5.191-4.514-7.785-6.773c-0.471-1.766-0.943-3.539-1.416-5.316l1.064-0.961l4.363,4.848
		c1.402,3.477,2.76,4.557,6.561,8.203h1.857c3.045,0,5.857,0.988,8.162,2.648c-0.174-0.34-0.336-0.672-0.516-1.012l0.805-0.723
		c3.273,2.037,3.951,2.389,8.975,7.285c1.143,3.264,3.928,7.186,5.236,8.482C535.195,105.186,538.668,108.68,542.123,112.16z
		 M496.711,80.521l0.531-0.477c1.734,2.666,0.629,0.746,1.652,2.898L496.711,80.521z"/>
	<path fill="#FFFFFF" d="M93.736,33.439l0.797-0.719c0.613,0.785,1.223,1.564,1.83,2.348l2.809-3.453
		c-0.926-0.977-1.973-2.217-3.623-4.199c2.164,0.895,1.732,0.285,3.535,2.084c-0.375-1.385-0.74-2.771-1.115-4.16l1.072-0.959
		l3.162,3.51l18.701-22.963c1.707-2.355-0.678-4.916-2.979-4.916H93.428c-2.77,0-5.973,1.121-7.598,3.365l-2.395,2.85
		c0.623,0.643,1.301,1.482,2.709,3.27c-2-1.645-2.387-1.887-3.152-2.746l-5.357,6.367c0.289,0.266,0.619,0.563,1.033,0.932
		l-0.266,0.24c-0.348-0.289-0.689-0.57-1.029-0.857L29.82,69.934V4.99c0-2.756-2.232-4.99-4.99-4.99H4.988
		c-2.758,0-4.99,2.234-4.99,4.99v79.719v31.98v9.203c1.623,1.553,3.246,3.104,4.867,4.66l-0.797,0.717
		c-1.195-1.143-2.371-2.27-3.551-3.395c-0.174-0.262-0.344-0.514-0.52-0.773v9.426c0,2.756,2.238,4.99,4.99,4.99
		c0,0,19.49,0.039,19.754-0.002c0,0,0.039,0,0.059,0c0.072,0,0.139-0.018,0.209-0.021c-1.297-1.203-2.592-2.41-3.889-3.619
		c-1.613-4.479-1.426-5.125,0.443-7c1.732,2.1,3.465,4.197,5.199,6.311c-1.227,0.463-1.727-1.125,0.029,2.166
		c0.363,0.447,0.664,0.797,0.975,1.162c1.223-0.908,2.023-2.348,2.023-3.988v-3.148c-0.18-0.148-0.385-0.316-0.662-0.539
		c0.223,0.162,0.443,0.314,0.662,0.473v-16.492l66.307-81.424C95.307,34.744,94.527,34.096,93.736,33.439z M98.543,7.232
		l4.373,4.852c-0.902,0.076-1.799,0.15-2.695,0.227l-1.092-1.207c-0.27-0.482-0.547-0.975-0.822-1.457
		C98.377,8.838,98.475,8.053,98.543,7.232z M10.762,74.064l4.086,2.926c0.549,0.965,1.105,1.938,1.648,2.902
		C13.172,77.16,14.313,78.318,10.762,74.064z M17.33,83.799c-0.662-0.035-1.326-0.07-1.996-0.102
		c-0.359-1.004-0.213-0.697,0.934-1.391C16.645,82.83,16.998,83.326,17.33,83.799z M5.867,125.242
		c-0.541-0.242-1.098-0.492-1.621-0.73c-0.646-0.893-1.295-1.781-1.928-2.668c2.502,1.684,0.207-0.156,3.811,3.156L5.867,125.242z
		 M6.891,66.564c1.738,2.668,0.627,0.748,1.656,2.904l-2.188-2.424L6.891,66.564z M8.439,136.115l0.789-0.719
		c0.555,0.963,1.107,1.938,1.658,2.912C10.064,137.578,9.246,136.842,8.439,136.115z M11.924,115.369
		c-1.625-1.451-3.27-2.918-4.902-4.365c2.547,1.531,1.566,0.836,5.17,4.127L11.924,115.369z M10.852,80.59
		c2.365,1.652,1.111,0.57,3.598,3.066c-0.41-0.018-0.818-0.037-1.227-0.051C12.432,82.602,11.645,81.594,10.852,80.59z
		 M25.291,129.605c-0.816-0.725-1.641-1.467-2.459-2.191c-0.334-0.504-0.674-1.014-1.014-1.521
		c-1.336-0.625-2.645-1.703-5.215-3.734c-2.525-3.627-1.906-3.115-3.311-5.805c2.607,1.465,3.906,2.693,7.32,6.486
		c0.143-0.053,0.279-0.07,0.408-0.061l-1.205-1.334l0.422-0.381c-0.279-0.383-0.609-0.83-1.008-1.391
		c1.455,0.893,2.895,1.781,4.342,2.676c1.291,1.779,2.559,3.549,3.846,5.338C25.016,127.111,25.793,127.24,25.291,129.605z
		 M38.412,86.531c-0.428,1.848-0.857,3.693-1.281,5.539c-2.441-1.875-4.893-3.762-7.34-5.656v-1.705c0,0-0.74-0.068-1.984-0.174
		c-1.432-1.451-2.865-2.91-4.293-4.363c-3.416-6.488-6.504-12.982-9.967-19.607l0.805-0.725c3.27,2.037,3.953,2.391,8.975,7.287
		c1.143,3.264,3.93,7.186,5.236,8.482c3.453,3.471,6.926,6.965,10.381,10.443L38.412,86.531z M94.789,8.426
		c0.1,0.641,0.188,1.287,0.289,1.93c-1.906-1.941-3.816-3.883-5.736-5.83C91.477,5.701,92.164,6.314,94.789,8.426z M91.594,11.307
		c1.174,1.129,2.363,2.262,3.553,3.398l-0.273,0.24c-0.447-0.324-0.91-0.654-1.359-0.975C92.881,13.092,92.236,12.191,91.594,11.307
		z"/>
</g>
</svg>
